<?xml version="1.0" encoding="UTF-8" standalone="no"?>
<!-- Created with Inkscape (http://www.inkscape.org/) -->

<svg
   width="937.20667mm"
   height="533.91443mm"
   viewBox="0 0 937.20664 533.91444"
   version="1.1"
   id="svg1821"
   inkscape:version="1.2.1 (1:1.2.1+202210291244+9c6d41e410)"
   sodipodi:docname="drawing_3.svg"
   inkscape:export-filename="drawing_3.png"
   inkscape:export-xdpi="96"
   inkscape:export-ydpi="96"
   xml:space="preserve"
   xmlns:inkscape="http://www.inkscape.org/namespaces/inkscape"
   xmlns:sodipodi="http://sodipodi.sourceforge.net/DTD/sodipodi-0.dtd"
   xmlns="http://www.w3.org/2000/svg"
   xmlns:svg="http://www.w3.org/2000/svg"><sodipodi:namedview
     id="namedview1823"
     pagecolor="#ffffff"
     bordercolor="#666666"
     borderopacity="1.0"
     inkscape:showpageshadow="2"
     inkscape:pageopacity="0.0"
     inkscape:pagecheckerboard="0"
     inkscape:deskcolor="#d1d1d1"
     inkscape:document-units="mm"
     showgrid="false"
     inkscape:zoom="0.050166158"
     inkscape:cx="-2192.7133"
     inkscape:cy="2611.3222"
     inkscape:window-width="1862"
     inkscape:window-height="1043"
     inkscape:window-x="58"
     inkscape:window-y="0"
     inkscape:window-maximized="1"
     inkscape:current-layer="g417"><inkscape:page
       x="0"
       y="0"
       width="937.2066"
       height="533.91443"
       id="page719"
       inkscape:export-filename="submission.png"
       inkscape:export-xdpi="96"
       inkscape:export-ydpi="96" /><inkscape:page
       x="1293.2612"
       y="-455.31131"
       width="1058.3333"
       height="705.5556"
       id="page721" /></sodipodi:namedview><defs
     id="defs1818" /><g
     inkscape:label="Layer 1"
     inkscape:groupmode="layer"
     id="layer1"
     transform="translate(314.78661,138.5134)"><g
       id="g4739"
       transform="matrix(0.03527778,0,0,-0.03527778,-818.79831,-787.38863)" /></g><g
     id="g417"
     transform="matrix(0.03527778,0,0,-0.03527778,1293.2611,250.2443)"><g
       id="g423"
       transform="matrix(1.84049,0,0,1.84049,-38724.158,-10847.347)"
       style="fill:#e6e6e6"><path
         d="m 1663.95,1544.59 c 0,0 -998.311,1510.36 88.94,3287.33 1087.24,1777.01 2547.51,883.37 2476.84,2951.62 -70.66,2068.25 3017.9,2268.86 4109.41,1669.13 774.84,-425.76 1485.3,-376.1 2298.76,-326.44 332.4,20.29 681.9,40.58 1060,28.45 2114.3,-67.85 2706.2,-2154.08 2120,-3169.36 -831.7,-1440.5 2605.6,-1609.91 627,-4440.73 H 1663.95"
         style="fill:#e6e6e6;fill-opacity:1;fill-rule:nonzero;stroke:none"
         id="path425" /></g><path
       d="m -29771.658,-3710.1472 c -201.96,-0.1 -104.73,212.6 -7.68,490.9 125.47,359.9 683.11,611.7 789.14,786.1 44.07,72.5 22.22,106.4 -39.59,106.4 -86.94,0 -252.95,-66.9 -425.98,-187.2 -296.05,-205.8 -269.12,-606.8 -741.97,-948.5 -90.86,-65.6 -198.78,-92.1 -313.81,-92.1 -483.66,0 -1093.5,468.6 -1093.5,468.6 408.81,95.7 916.92,650.4 870.79,783.6 -4.95,14.3 -19.9,20.8 -42.8,20.8 -190.4,0 -932.16,-443.5 -1078.64,-486.5 -19.1,-5.6 -41.66,-8.7 -66.87,-8.7 -191.42,0 -536.66,176.9 -696.5,763.1 -180.88,663.4 890.01,1051.29997 890.01,1051.29997 0,0 1083.35,-537.29997 1394.37,-537.29997 22.23,0 40.48,2.8 54.14,8.7 204.8,88.1 -960.38,734.89997 -960.38,734.89997 348.68,252.8 1556.67,352.5 1556.67,352.5 0,0 561.08,-1078.49997 771,-1078.49997 11.86,0 22.56,3.4 32.01,10.7 176.79,135.8 -608.85,1037.39997 -608.85,1037.39997 79.15,19.3 163.92,27.2 249.35,27.2 368.71,0 750.19,-146 750.19,-146 816.3,-434.8 215.9,-1460.49997 215.9,-1460.49997 0,0 226,-412.4 749.3,-730.5 v 0 c 0,0 106.9,-52.7 250.1,-165 l -97.6,-57.2 c -23.3,21.5 -46.9,41.6 -70.9,60.2 l -0.4,0.3 -1.1,0.8 c -15.5,11.2 -37.7,27 -65,46.1 h -0.1 l -0.1,0.1 c -64,40.9 -109.5,72.1 -140.5,95.8 l -0.2,0.2 c -196.6,130.6 -464.9,293.5 -580.2,293.5 -0.1,0 -0.2,0 -0.3,0 0,0 1.8,21.5 -5.4,57 1.7,-18.2 3.5,-37.1 5.4,-57 43,-455.7 -756.79,-1005.2 -1277.85,-1182.7 -118.08,-40.3 -202.98,-58.5 -262.15,-58.5"
       style="fill:#808080;fill-opacity:1;fill-rule:nonzero;stroke:none"
       id="path427" /><g
       id="g429"
       transform="matrix(1.51423,0,0,1.51423,-38724.158,-10847.347)"
       style="fill:#999999"><path
         d="m 15860.7,2610.97 c 439.3,426.62 -205.9,1209.4 -205.9,1209.4 0,0 -1233.1,90.74 -1350.2,251.08 -117.1,160.35 1069.4,128.32 1069.4,128.32 -152.8,351.73 -1033.8,975.61 -1033.8,975.61 0,0 -1025.6,-639.07 -1099.6,-454.75 -74,184.25 936.9,519.47 936.9,519.47 -276,269.38 -820.1,361.9 -820.1,361.9 -823,36.59 -827.4,-1021.97 -827.4,-1021.97 0,0 -360.2,-213.78 -905.6,-220.51 v 0 c 0,0 -105.8,8.06 -266.5,-13.14 l 48.9,-88.1 c 27.6,5.88 54.8,10.63 81.6,14 l 0.5,0.07 1.2,0.13 c 16.9,1.52 41.1,3.56 70.7,5.81 l 0.1,0.06 h 0.1 c 67.6,2.25 116.6,5.68 151.1,9.78 l 0.3,0.07 c 210.1,11.02 490,14.33 578.1,-38.11 0,0 8.3,17.37 30,41.28 -9.6,-13.15 -19.5,-26.88 -30,-41.28 -239.5,-329.87 124.7,-1113.64 443.8,-1485.91 319,-372.2 335.9,-123.43 402.8,209.35 66.9,332.78 -246.6,778.55 -248.8,960.36 -2.3,181.81 186.6,18.95 320.4,-273.01 133.7,-291.97 -68.7,-587.23 139,-1063.45 207.7,-476.22 1249.7,-349.09 1249.7,-349.09 -270.2,258.62 -408.4,914.2 -312.6,995.43 95.7,81.23 544.7,-753.98 648.8,-865.33 103.9,-111.28 487.8,-194.16 927.1,232.53"
         style="fill:#999999;fill-opacity:1;fill-rule:nonzero;stroke:none"
         id="path431" /></g><path
       d="m -28792.718,-50.147229 c -669.92,387.399999 -1780.05,698.499999 -1917.36,867.199999 -1.38,1.7 -2.72,3.4 -4.03,5 -72.22,91.7 -2.87,221.00003 105.02,221.00003 9.82,0 19.97,-1.1 30.35,-3.4 936.27,-204.60003 1786.02,-1089.800029 1786.02,-1089.800029"
       style="fill:#666666;fill-opacity:1;fill-rule:nonzero;stroke:none"
       id="path433" /><path
       d="m -28522.158,-282.94723 c -967.14,252.400001 -2456.25,258.700001 -2685.14,421.6 -85.82,61.1 -114.41,120.1 -116.61,170 -3.39,76.7 57.71,141.4 134.18,147.6 71.79,5.8 143.88,8.6 216.42,8.6 1194.54,0 2451.15,-747.8 2451.15,-747.8"
       style="fill:#666666;fill-opacity:1;fill-rule:nonzero;stroke:none"
       id="path435" /><g
       id="g437"
       transform="matrix(1.30626,0,0,1.30626,-38724.158,-10847.347)"
       style="fill:#333333"><path
         d="m 15433.7,6596.02 c 0,0 154.4,965.66 674.6,1524.89 22.3,23.95 50.4,34.58 77.9,34.58 58,0 113.8,-46.94 109.6,-115.6 -0.1,-1.69 -0.2,-3.4 -0.3,-5.12 -13.3,-172.82 -599.1,-880.75 -861.8,-1438.75"
         style="fill:#333333;fill-opacity:1;fill-rule:nonzero;stroke:none"
         id="path439" /></g><g
       id="g441"
       transform="matrix(1.35896,0,0,1.35896,-38724.158,-10847.347)"
       style="fill:#999999"><path
         d="m 14913.2,6236.45 c -19.1,3.82 -29.7,5.59 -29.7,5.59 -11.1,0.51 -21.9,0.81 -32.8,0.95 179.4,336.29 634.9,1093.19 1272.2,1462.46 17.8,10.29 37.4,15.27 56.9,15.27 36.2,0 71.6,-17.25 92,-49.6 20.4,-32.38 28.2,-82.01 0.8,-157.94 -66.3,-183.92 -843.8,-740.66 -1359.4,-1276.73"
         style="fill:#999999;fill-opacity:1;fill-rule:nonzero;stroke:none"
         id="path443" /></g><g
       id="g445"
       transform="matrix(1.24334,0,0,1.24334,-38724.158,-10847.347)"><path
         d="m 16139.5,6640.48 c 0,0 31.8,69.65 92.2,183.06 11.8,-0.16 23.7,-0.49 35.8,-1.05 0,0 11.6,-1.93 32.5,-6.11 -56.8,-59.04 -110.6,-117.75 -160.5,-175.9"
         style="fill:#d2e1fd;fill-opacity:1;fill-rule:nonzero;stroke:none"
         id="path447" /></g><g
       id="g449"
       transform="matrix(1.17016,0,0,1.17016,-38724.158,-10847.347)"
       style="fill:#666666"><path
         d="m 13327.2,8721.23 c -13.5,0 -27.1,3.04 -40,9.43 l -363.7,181.41 c -43.2,21.37 -62.5,71.99 -44.7,115.95 l 163.3,413.5 c 14.3,35.5 5.2,75.8 -22.7,102.41 -59.5,56.7 -115,119.46 -166.8,187.37 -27.9,36.53 -54,73.82 -78.4,111.87 -17.4,27.08 -47.4,43.19 -79.2,43.19 -3.1,0 -6.2,-0.15 -9.4,-0.47 l -422.8,-46.41 c -3.6,-0.39 -7,-0.57 -10.5,-0.57 -44.8,0 -84,31.21 -93.3,76.12 l -75.7,384.77 -1.8,9.1 c -8.9,46.9 18.5,92.9 63.8,107 l 312.5,97.7 c 5.2,1.6 10.1,3.6 14.7,6 32,16.9 52.6,51.2 49.6,88 -14.5,217.2 14.1,434.6 84.8,640.4 2.8,8.5 4.4,17.3 4.9,25.8 1.4,32.6 -14.9,64.6 -42.9,82.9 l -230.2,147.2 c -30.1,19.6 -45.9,54.9 -42.3,89.2 1.4,10.4 4.1,21.3 9.2,31.5 l 178.4,358.5 c 16.3,33.1 50.2,52.8 85.5,52.8 11.8,0 23.7,-2.2 35.3,-6.8 l 338,-133.9 c 11,-4.3 22.4,-6.4 33.9,-6.4 23.1,0 45.7,8.6 63.2,25.1 38.2,35 77.5,68.4 119.2,100.2 78.2,59.7 159.9,111 244.3,154.3 l 0.3,0.2 c 35.2,18.2 55.5,55.2 51.2,94.5 l -40.1,367 -1.8,18.5 c -5.5,47.1 26.6,91.4 73.9,100.6 l 393.2,77.6 c 6.1,1.2 12.2,1.7 18.2,1.7 41.3,0 79.2,-26.4 91.9,-67.2 l 108.8,-347.8 c 12.1,-38.7 47.5,-65.3 87.5,-65.7 169.3,-4.6 337.2,-34.8 497.1,-90.8 10,-3.3 20.2,-4.9 30.3,-4.9 31.2,0 61.2,15.6 78.9,43.2 l 175.1,272.5 c 18.3,28.4 48.9,44 80.3,44 14.4,0 29.1,-3.3 42.8,-10.2 l 360.1,-178.9 c 42.4,-21.3 61.6,-71.6 44.1,-115.3 l -156.9,-397.4 c -13.4,-33.7 -6.3,-72 17.8,-99.1 30,-33.2 58.8,-67.9 86.4,-104 52.1,-68.3 97.9,-139.1 137.4,-211.6 16,-30 46.8,-48.7 80.1,-48.7 3.6,0 7.2,0.3 10.9,0.7 l 441,48.6 c 3.3,0.4 6.7,0.5 9.9,0.5 44.6,0 83.4,-31.1 92.2,-75.5 l 78.1,-394.6 c 7.9,-41.9 -13.6,-84 -51.2,-102.1 -3.9,-1.8 -8.2,-3.9 -12.6,-5 l -385.8,-120.9 c -35.9,-11.1 -62,-42 -65.7,-79.2 -0.4,-3.3 -0.8,-6.6 -0.7,-9.9 0,-9.9 0.1,-19.2 -0.9,-29.3 -2.4,-116.3 -17.7,-232.5 -44.9,-346 -9.7,-37.8 6.8,-77.8 40.4,-98.8 l 287.6,-185.1 c 41,-26.1 55.3,-79.32 33.5,-122.75 l -39.5,-79.8 -138.7,-278.05 c -16.2,-32.91 -49.4,-52.13 -84.2,-52.13 -11.5,0 -23.3,2.11 -34.5,6.52 l -333,131.9 c -10.8,4.39 -22.1,6.49 -33.2,6.49 -25.4,0 -50.3,-10.92 -68.1,-30.61 -67,-74.45 -142.6,-144.41 -225.7,-207.75 -61.6,-47 -126.3,-89.31 -192.1,-126.14 l 8.5,-76.98 34.3,-315.9 c 4.7,-39.05 -16.5,-76.27 -50.9,-92.51 -7.1,-3.69 -14.7,-5.98 -22.8,-7.51 l -395.8,-78.89 c -5.9,-1.12 -11.7,-1.65 -17.4,-1.65 -40.4,0 -77.2,26.39 -89.8,65.76 l -74,237.8 c -12,38.53 -48.6,65.38 -88.6,65.38 -1.7,0 -3.4,-0.05 -5,-0.14 -30.8,-1.71 -61.4,-2.56 -92.2,-2.56 -143.2,0 -285.6,18.57 -423.2,55.37 -8.3,2.21 -16.7,3.29 -24.9,3.29 -31.1,0 -60.3,-15.41 -76.8,-42.28 L 13403,8762.42 c -17.1,-26.4 -46,-41.19 -75.8,-41.19 m 819.7,2876.47 c -216.7,0 -435.5,-79.9 -609.3,-245.8 -78.3,-74.9 -147,-167 -202.6,-277.1 -12,-23.2 -22.6,-50.6 -32.5,-79.7 -40.9,-126.3 -55.8,-291.2 -32.9,-404.6 99,-487.6 485.2,-750.2 878.3,-750.2 305.6,0 615.5,158.88 797.3,494.2 6.7,12.7 13.4,25.4 19.8,38.5 60.3,121.3 87.9,330.9 62.4,463.8 -13.5,69.7 -32.9,134.9 -56.9,195.4 -148.3,368.9 -483.5,565.5 -823.6,565.5"
         style="fill:#666666;fill-opacity:1;fill-rule:nonzero;stroke:none"
         id="path451" /></g><g
       id="g453"
       transform="matrix(1.4444,0,0,1.4444,-38724.158,-10847.347)"
       style="fill:#000000"><path
         d="m 15631.1,9132.35 c 12.1,-30.45 21.9,-63.25 28.6,-98.31 12.8,-66.87 -1,-172.3 -31.4,-233.36 -3.2,-6.56 -6.6,-12.93 -9.9,-19.32 -209.2,-385.69 -754.4,-307.32 -843,128.77 -11.5,57.03 -4,139.99 16.5,203.53 5,14.66 10.3,28.43 16.4,40.11 28,55.39 62.5,101.72 101.9,139.4 224.6,214.51 598.7,143.01 720.9,-160.82 z m -1362.2,-600.05 212.7,23.35 c 17.7,1.78 35,-6.54 44.6,-21.49 12.2,-19.14 25.4,-37.91 39.4,-56.29 26.1,-34.16 54,-65.73 84,-94.27 13.9,-13.38 18.6,-33.66 11.3,-51.5 l -82.1,-208.04 c -9,-22.11 0.8,-47.59 22.4,-58.33 l 183,-91.27 c 20.8,-10.29 45.7,-3.31 58.3,15.99 l 111.3,173.28 c 10.5,17.09 31.2,24.96 51.1,19.61 84.2,-22.48 171.7,-31.43 259.4,-26.57 21.1,1.16 40.8,-12.65 47.1,-32.82 l 37.1,-119.64 c 7.3,-22.64 30.4,-36.74 54,-32.24 l 199.1,39.68 c 4.1,0.78 7.9,1.93 11.5,3.78 17.3,8.18 27.9,26.89 25.6,46.54 l -17.2,158.93 -4.3,38.73 c 33.1,18.52 65.7,39.81 96.6,63.46 41.8,31.86 79.8,67.05 113.5,104.51 13,14.25 33.1,19.37 51,12.13 l 167.5,-66.35 c 23,-8.92 48.9,0.91 59.7,22.95 l 69.9,139.88 19.9,40.14 c 10.9,21.85 3.7,48.64 -16.9,61.74 l -144.7,93.12 c -16.9,10.61 -25.2,30.71 -20.3,49.71 13.6,57.14 21.4,115.59 22.5,174.07 0.5,5.09 0.5,9.76 0.5,14.76 -0.1,1.68 0.2,3.31 0.4,4.95 1.8,18.74 14.9,34.31 33,39.87 l 194.1,60.85 c 2.2,0.53 4.4,1.57 6.3,2.47 18.9,9.13 29.8,30.33 25.8,51.35 l -39.3,198.55 c -4.7,23.97 -26.9,40.27 -51.4,37.74 l -221.8,-24.45 c -18.9,-2.31 -36.9,7.44 -45.8,24.14 -19.9,36.5 -42.9,72.09 -69.2,106.44 -13.8,18.19 -28.3,35.63 -43.4,52.32 -12.2,13.63 -15.7,32.93 -8.9,49.86 l 78.9,199.97 c 8.8,21.97 -0.9,47.25 -22.2,57.96 l -181.2,90.02 c -21.9,10.93 -48.4,3.85 -61.9,-16.99 l -88.1,-137.09 c -11.8,-18.4 -34.3,-26.2 -54.9,-19.27 -80.5,28.16 -164.9,43.35 -250.1,45.65 -20.1,0.21 -38,13.61 -44,33.08 l -54.8,174.93 c -7.3,23.5 -31.3,37.6 -55.4,33 l -197.8,-39.03 c -23.8,-4.63 -40,-26.95 -37.1,-50.65 l 0.9,-9.29 20.1,-184.64 c 2.2,-19.78 -8,-38.4 -25.7,-47.52 l -0.2,-0.14 c -42.4,-21.78 -83.5,-47.57 -122.9,-77.59 -20.9,-16 -40.7,-32.84 -59.9,-50.42 -13.2,-12.38 -32.1,-15.99 -49,-9.4 l -169.9,67.36 c -23.3,9.29 -49.8,-0.96 -60.8,-23.15 l -89.7,-180.35 c -2.6,-5.15 -4,-10.62 -4.7,-15.87 -1.9,-17.24 6.1,-34.97 21.3,-44.85 l 115.8,-74.05 c 14.1,-9.23 22.2,-25.33 21.5,-41.72 -0.2,-4.3 -0.9,-8.7 -2.4,-13.01 -35.6,-103.5 -50,-212.86 -42.6,-322.13 1.5,-18.52 -8.9,-35.8 -25,-44.29 -2.3,-1.19 -4.8,-2.18 -7.4,-3 l -157.3,-49.16 c -22.8,-7.09 -36.5,-30.22 -32,-53.82 l 0.9,-4.62 38.1,-193.55 c 5,-24.34 27.5,-40.69 52.2,-38.01"
         style="fill:#000000;fill-opacity:1;fill-rule:nonzero;stroke:none"
         id="path455" /></g><g
       id="g457"
       transform="matrix(1.27372,0,0,1.27372,-38724.158,-10847.347)"
       style="fill:#808080"><path
         d="m 15751.5,11860.5 c 14.9,-22.1 28.3,-46.4 39.7,-73 21.7,-50.9 28.9,-136.9 15.4,-190.6 -1.4,-5.8 -3,-11.4 -4.6,-17.1 -99.3,-342.1 -545.5,-374.1 -691,-43.4 -19,43.3 -27.4,110.4 -22.1,164.3 1.4,12.5 3.3,24.4 6.1,34.7 12.6,48.8 32.1,91.5 56.8,128.2 141.2,209 450.3,216.9 599.7,-3.1 z m -977.2,-711.4 164.8,55.3 c 13.7,4.5 28.8,0.9 39.1,-9.3 13,-13.1 26.7,-25.7 41,-37.9 26.5,-22.6 54.2,-42.8 82.8,-60.3 13.5,-8.2 20.7,-23.5 18,-38.9 l -29.3,-179.2 c -3.3,-19.1 8.9,-37.7 28,-42.4 l 160.9,-40.8 c 18.2,-4.6 36.8,5.2 43.5,22.7 l 58.3,156.7 c 5.4,15.4 20.4,25.2 37.2,24.4 70.6,-3.3 141.7,4.7 210.4,23.7 16.5,4.6 34.5,-3 43,-17.9 l 50.2,-88.5 c 9.6,-16.7 30.4,-23.9 48.3,-16.3 l 151.2,65.9 c 3.1,1.3 5.9,2.9 8.4,5 12.4,9.5 17.6,26.2 12.3,41.3 l -41.2,123.2 -10,30 c 23.1,20.4 45.2,42.9 65.7,67 27.6,32.5 51.8,67 72,102.5 7.9,13.6 22.9,21.1 38.4,18.5 l 144.3,-23.8 c 19.8,-3.1 38.7,9.2 43.5,28.6 l 31.2,123 8.8,35.3 c 4.9,19.2 -5.4,39.2 -24,46.1 l -130.9,48.8 c -15.3,5.5 -25.3,20.1 -24.7,36 0.9,47.7 -3,95.4 -12.2,142 -0.4,4.1 -1.2,7.8 -2.1,11.8 -0.4,1.3 -0.5,2.6 -0.6,4 -1.8,15.2 6,29.8 19.3,37.3 l 143.5,81.8 c 1.7,0.8 3.2,2 4.6,3.1 13.4,10.5 18.3,29.2 11.6,45.2 l -65.5,150.7 c -7.9,18.2 -28.3,27.3 -47.3,21.1 l -171.8,-57.7 c -14.5,-5.1 -30.5,-0.5 -40.4,11.2 -22.2,25.5 -46.6,49.8 -73.3,72.5 -14.1,12.1 -28.6,23.4 -43.5,34 -12,8.8 -18.2,23.5 -15.7,38 l 28,172.3 c 3.2,19 -8.8,37.4 -27.6,42.2 l -159.3,40.1 c -19.2,4.9 -39.1,-5.3 -46.2,-24.2 l -46.2,-123.9 c -6.1,-16.7 -22.7,-26.8 -40.2,-24.8 -68.8,8.4 -138.3,5.9 -206.3,-7 -16,-3.3 -32.5,4.2 -40.7,18.7 l -73.6,129.3 c -9.9,17.4 -31.4,24.4 -49.6,16.6 l -150.3,-65.1 c -18.1,-7.8 -27,-28.3 -20.7,-46.6 l 2.3,-7.2 47.9,-143.1 c 5.1,-15.3 0.2,-31.8 -12.2,-42.1 l -0.1,-0.2 c -29.9,-24.6 -58.1,-52.1 -84.1,-82.7 -13.9,-16.4 -26.7,-33.1 -38.9,-50.4 -8.3,-12.1 -22.7,-18.2 -37.2,-15.9 l -146.5,24.1 c -20.1,3.3 -39.3,-9.4 -44.2,-28.9 l -40.1,-158.6 c -1.1,-4.5 -1.3,-9.1 -0.9,-13.4 1.5,-14 10.9,-26.7 24.6,-31.9 l 104.7,-38.7 c 12.8,-4.9 22,-16.3 24.3,-29.4 0.5,-3.5 0.7,-7.1 0.3,-10.8 -10.4,-88.2 -2.8,-177.5 21.8,-262.9 4.4,-14.4 -0.8,-29.9 -12.1,-39.5 -1.7,-1.3 -3.5,-2.5 -5.4,-3.6 l -116.2,-66.2 c -16.9,-9.5 -23.8,-30.3 -16.2,-48.2 l 1.5,-3.5 63.6,-147 c 8.3,-18.5 28.9,-27.6 48,-21.2"
         style="fill:#808080;fill-opacity:1;fill-rule:nonzero;stroke:none"
         id="path459" /></g><path
       d="m -34958.228,-7986.1472 h 904.71 c 48.49,41.1 -33.55,134.5 -119.25,140.7 -37.23,2.9 -84.31,-4.9 -138.09,-16.3 -12.45,165.4 -83.55,908.7 -351.5,878.9 -301.28,-33.5 0,-327.4 85.17,-501.4 63.09,-128.9 129.65,-313.8 160.06,-401 -24.46,-5.3 -49.78,-10.5 -75.65,-15.2 -39.93,122.6 -188.52,535 -377.47,511 -221.85,-28.2 -132.67,-193.5 24.57,-291.7 115.36,-72.2 257.02,-174.8 324.33,-224.3 -57.03,-9.3 -116.55,-15.6 -176.94,-14.2 -154.97,3.7 -230.61,-42 -259.94,-66.5"
       style="fill:#000000;fill-opacity:1;fill-rule:nonzero;stroke:none"
       id="path461" /><g
       id="g463"
       transform="matrix(1.6015,0,0,1.6015,-38724.158,-10847.347)"
       style="fill:#000000"><path
         d="m 16205.5,1800.25 h -638.8 c -34.2,29.03 23.7,94.97 84.2,99.4 26.3,2 59.5,-3.49 97.5,-11.55 8.8,116.77 59,641.65 248.2,620.54 212.7,-23.6 0,-231.09 -60.1,-353.98 -44.6,-91.03 -91.6,-221.54 -113.1,-283.11 17.3,-3.74 35.2,-7.42 53.4,-10.8 28.3,86.61 133.2,377.84 266.6,360.85 156.6,-19.85 93.7,-136.62 -17.4,-205.93 -81.4,-50.95 -181.4,-123.39 -229,-158.42 40.3,-6.55 82.3,-10.98 124.9,-9.98 109.5,2.55 162.9,-29.66 183.6,-47.02"
         style="fill:#000000;fill-opacity:1;fill-rule:nonzero;stroke:none"
         id="path465" /></g><g
       id="g467"
       transform="matrix(1.0274,0,0,1.0274,-38724.158,-10847.347)"
       style="fill:#333333"><path
         d="m 14213.4,8879.41 -481.7,-5726.98 c 0,0 -50.4,-347.09 207.8,-347.77 424.5,-0.98 2113.2,0 2113.2,0 0,0 -319.6,72.32 -315.7,234.86 4.6,191.65 563,5894.11 563,5894.11 l -2086.6,-54.22"
         style="fill:#333333;fill-opacity:1;fill-rule:nonzero;stroke:none"
         id="path469" /></g><g
       id="g471"
       transform="matrix(1.03625,0,0,1.03625,-38724.158,-10847.347)"
       style="fill:#000000"><path
         d="m 16073.3,2881.46 c -82.8,-0.19 -1703.7,-2.99 -2113.7,2.32 -178.6,2.22 -210,158.84 -211.4,260.17 -0.8,48.63 5.4,84.53 5.4,84.53 l 12.4,147.65 31.7,376.07 28,332.35 35.9,427.03 30.3,360.43 339.3,4034.66 2068.8,53.66 c 0,0 -233.1,-2366.04 -398.1,-4088.32 -18.4,-191.84 -36,-375.87 -52.2,-547.65 -5.2,-54.81 -10.2,-108.47 -15.1,-160.67 -15.4,-162.9 -29.4,-312.58 -41.5,-444.69 -6.4,-69.67 -12.3,-134.33 -17.7,-193.58 -21,-232.28 -33.4,-380.6 -33.5,-408.78 -0.1,-16.51 1.3,-31.75 4,-46.04 34,-180.94 296.3,-189.14 327.4,-189.14"
         style="fill:#000000;fill-opacity:1;fill-rule:nonzero;stroke:none"
         id="path473" /></g><g
       id="g475"
       transform="matrix(1.33485,0,0,1.33485,-38724.158,-10847.347)"
       style="fill:#000000"><path
         d="m 7039.29,9232.84 903.01,-3627.13 123.61,-496.76 420.57,-1689.4 H 16300 L 14749.9,9232.84 H 7039.29"
         style="fill:#000000;fill-opacity:1;fill-rule:nonzero;stroke:none"
         id="path477" /></g><path
       d="m -29327.748,1477.1528 -167.05,-55.7 1876.74,-7872.7 222.1,168.5 -1931.79,7759.9"
       style="fill:#666666;fill-opacity:1;fill-rule:nonzero;stroke:none"
       id="path479" /><g
       id="g481"
       transform="matrix(1.33485,0,0,1.33485,-38724.158,-10847.347)"
       style="fill:#666666"><path
         d="m 8320.09,3293.32 h 7765.41 l 214.5,126.23 H 8486.48 l -166.39,-126.23"
         style="fill:#666666;fill-opacity:1;fill-rule:nonzero;stroke:none"
         id="path483" /></g><g
       id="g485"
       transform="matrix(1.04237,0,0,1.04237,-38724.158,-10847.347)"
       style="fill:#4d4d4d"><path
         d="M 14146.9,2762.27 H 16300 v 102.27 h -2153.1 v -102.27"
         style="fill:#4d4d4d;fill-opacity:1;fill-rule:nonzero;stroke:none"
         id="path487" /></g><g
       id="g489"
       transform="matrix(1.00737,0,0,1.00737,-38724.158,-10847.347)"
       style="fill:#4d4d4d"><path
         d="m 16300,4364.04 -11.5,-81 -2095.3,-423.28 28.8,341.88 13.7,162.4 H 16300"
         style="fill:#4d4d4d;fill-opacity:1;fill-rule:nonzero;stroke:none"
         id="path491" /></g><g
       id="g493"
       transform="matrix(1.02183,0,0,1.02183,-38724.158,-10847.347)"
       style="fill:#666666"><path
         d="m 16300,2922.1 h -1773.3 c -157.3,0.58 -287.8,1.27 -370.2,2.35 -181.1,2.25 -213,161.08 -214.4,263.84 l 2055.8,386.85 c -21.3,-235.56 -33.9,-385.97 -34,-414.55 0,-0.59 0,-1.08 0,-1.57 0,-16.14 1.4,-31.12 4,-45.11 34.5,-183.5 300.6,-191.81 332.1,-191.81"
         style="fill:#666666;fill-opacity:1;fill-rule:nonzero;stroke:none"
         id="path495" /></g><g
       id="g497"
       transform="matrix(1.02183,0,0,1.02183,-38724.158,-10847.347)"
       style="fill:#333333"><path
         d="m 15292.9,2921.22 c -267.6,0 -543.4,0.19 -766.2,0.88 v 0 H 16300 v 0 c -43.7,-0.1 -510.9,-0.88 -1007.1,-0.88"
         style="fill:#333333;fill-opacity:1;fill-rule:nonzero;stroke:none"
         id="path499" /></g><g
       id="g501"
       transform="matrix(1.31036,0,0,1.31036,-38724.158,-10847.347)"
       style="fill:#333333"><path
         d="M 7170.85,9405.41 H 15025.5 L 16300,4646.04 H 8355.71 L 7170.85,9405.41"
         style="fill:#333333;fill-opacity:1;fill-rule:nonzero;stroke:none"
         id="path503" /></g><g
       id="g505"
       transform="matrix(1.28058,0,0,1.28058,-38724.158,-10847.347)"
       style="fill:#b3b3b3"><path
         d="M 16300,4965.11 H 8774.56 l -268.94,1071.31 -104.01,414.5 -42.41,169.07 -276.43,1100.91 -14.3,57.31 -146.1,581.91 -65.36,260.38 -55.75,222.11 -130.72,520.68 h 7416.96 l 143.5,-520.68 61.3,-222.11 71.7,-260.38 472.9,-1715.38 v -0.08 l 40.1,-145.32 18.7,-67.47 326.4,-1184.31 77.9,-282.45"
         style="fill:#b3b3b3;fill-opacity:1;fill-rule:nonzero;stroke:none"
         id="path507" /></g><path
       d="m -23864.758,-4759.3472 -3527.7,-1541.6 -382.7,1541.6 z"
       style="fill:#000000;fill-opacity:1;fill-rule:nonzero;stroke:none"
       id="path509" /><g
       id="g511"
       transform="matrix(1.0457,0,0,1.0457,-38724.158,-10847.347)"
       style="fill:#ffffff"><path
         d="m 14622.3,10590.1 c -623.2,0 -1046,-507 -942.7,-1130.12 103.3,-623.12 694.3,-1130.05 1317.4,-1130.05 623.2,0 1046,506.93 942.7,1130.05 -103.3,623.12 -694.3,1130.12 -1317.4,1130.12 z m 413.9,-2495.62 c -753,0 -1467.2,612.61 -1592.1,1365.5 -124.8,752.92 386.2,1365.52 1139.1,1365.52 752.9,0 1467.1,-612.6 1591.9,-1365.52 124.9,-752.89 -386,-1365.5 -1138.9,-1365.5"
         style="fill:#ffffff;fill-opacity:1;fill-rule:nonzero;stroke:none"
         id="path513" /></g><g
       id="g515"
       transform="matrix(1.0386,0,0,1.0386,-38724.158,-10847.347)"
       style="fill:#000000"><path
         d="m 15139.4,8146.72 c -759.9,0 -1480.5,618.14 -1606.5,1377.92 -126,759.86 389.7,1377.96 1149.4,1377.96 412.8,0 830.6,-182.7 1146.5,-501.4 243.7,-245.9 407.1,-557.19 460,-876.56 11.2,-67.21 -34.2,-121.61 -101.5,-121.61 -67.2,0 -130.6,54.4 -141.8,121.61 -43.6,262.99 -178.1,519.26 -378.8,721.66 -260,262.5 -604.1,413 -944,413 -625.7,0 -1050.3,-509 -946.5,-1134.66 103.8,-625.65 697.2,-1134.6 1322.9,-1134.6 67.2,0 130.6,-54.5 141.8,-121.71 11.2,-67.21 -34.3,-121.61 -101.5,-121.61"
         style="fill:#000000;fill-opacity:1;fill-rule:nonzero;stroke:none"
         id="path517" /></g><g
       id="g519"
       transform="matrix(1.13301,0,0,1.13301,-38724.158,-10847.347)"
       style="fill:#ffffff"><path
         d="m 16269.1,6500.23 20,-120.48 c 10.9,-65.75 -34,-119.59 -99.8,-119.59 h -4222.2 c -65.8,0 -128.4,53.84 -139.4,119.59 l -19.9,120.48 c -11,65.75 33.9,119.59 99.6,119.59 h 4222.3 c 65.8,0 128.5,-53.84 139.4,-119.59"
         style="fill:#ffffff;fill-opacity:1;fill-rule:nonzero;stroke:none"
         id="path521" /></g><g
       id="g523"
       transform="matrix(1.04019,0,0,1.04019,-38724.158,-10847.347)"
       style="fill:#4d4d4d"><path
         d="m 16235,7210.51 65,-391.76 h -3265.1 c -71.6,0 -139.9,58.65 -151.8,130.27 l -21.7,131.22 c -11.9,71.62 36.9,130.27 108.5,130.27 H 16235"
         style="fill:#4d4d4d;fill-opacity:1;fill-rule:nonzero;stroke:none"
         id="path525" /></g><path
       d="m -22541.458,-3347.0472 -308.2,-407.5 h -703.1 l 308.2,407.5 h 703.1"
       style="fill:#000000;fill-opacity:1;fill-rule:nonzero;stroke:none"
       id="path527" /><g
       id="g529"
       transform="matrix(1.04019,0,0,1.04019,-38724.158,-10847.347)"
       style="fill:#000000"><path
         d="m 16235,7210.51 65,-391.76 h -626.5 l 296.4,391.76 h 265.1"
         style="fill:#000000;fill-opacity:1;fill-rule:nonzero;stroke:none"
         id="path531" /></g><path
       d="m -23673.558,-3347.0472 -308.2,-407.5 h -703.1 l 308.2,407.5 h 703.1"
       style="fill:#000000;fill-opacity:1;fill-rule:nonzero;stroke:none"
       id="path533" /><path
       d="m -24805.558,-3347.0472 -308.2,-407.5 h -51.6 c -74.5,0 -145.5,61 -157.9,135.5 l -22.6,136.5 c -12.4,74.5 38.4,135.5 112.9,135.5 h 427.4"
       style="fill:#000000;fill-opacity:1;fill-rule:nonzero;stroke:none"
       id="path535" /><path
       d="m -23769.858,-765.64723 h -266.6 l -13.5,81.8 h 372.6 l 11.7,-70.4 -163.1,-459.79997 h -104.5 l 163.4,448.39997"
       style="fill:#e6f0ff;fill-opacity:1;fill-rule:nonzero;stroke:none"
       id="path537" /><path
       d="m -23202.358,-948.94723 c -17.4,104.5 -85.3,190.2 -167.1,190.2 -81.8,0 -120.3,-83.4 -102.6,-190.2 17.4,-104.49997 84.6,-190.09997 167.1,-190.09997 82.6,0 120.2,84.1 102.6,190.09997 z m -365.9,0 c -25.1,151.5 47,274.2 186.3,274.2 138.6,0 250.4,-121.2 275.8,-274.2 25.1,-151.49997 -47,-274.19997 -186.3,-274.19997 -139.4,0 -250.4,121.2 -275.8,274.19997"
       style="fill:#e6f0ff;fill-opacity:1;fill-rule:nonzero;stroke:none"
       id="path539" /><g
       id="g541"
       transform="matrix(1.00015,0,0,1.00015,-38724.158,-10847.347)"><path
         d="m 16220.4,9761.3 c -7,42.4 -37,77.29 -71.1,77.29 -35.6,0 -51,-34.89 -44,-77.29 7.2,-43.19 37.1,-77.18 71.1,-77.18 35.6,0 51.1,34.79 44,77.18 z m -182.5,0 c -12.2,73.49 28.3,135.58 103.3,135.58 74.2,0 134.3,-61.29 146.7,-135.58 12.1,-73.49 -28.3,-135.58 -103.3,-135.58 -74.2,0 -134.4,61.4 -146.7,135.58 z m 54.7,400.7 h 75 l -299.8,-530.18 h -74.9 z m -237.4,-129.5 c -7.1,42.4 -37.1,77.2 -71.2,77.2 -35.6,0 -51,-34.8 -44,-77.2 7.2,-43.23 37.1,-77.33 71.2,-77.33 35.6,0 51,34.9 44,77.33 z m -182.6,0 c -12.2,73.4 28.3,135.5 103.3,135.5 74.2,0 134.4,-61.3 146.7,-135.5 12.2,-73.53 -28.3,-135.62 -103.3,-135.62 -74.2,0 -134.4,61.39 -146.7,135.62"
         style="fill:#e6f0ff;fill-opacity:1;fill-rule:nonzero;stroke:none"
         id="path543" /></g><path
       d="m -23371.758,-3025.0472 h 28.7 l 22.8,-137.3 h 85.9 l 4.3,-26.2 h -114.6 l -27.1,163.5"
       style="fill:#e6f0ff;fill-opacity:1;fill-rule:nonzero;stroke:none"
       id="path545" /><path
       d="m -23119.558,-3127.1472 c -3.6,21.8 -22.2,39.7 -44.4,39.7 -22.6,0 -34.2,-17.7 -30.5,-39.7 3.6,-21.4 22.2,-39.6 44.2,-39.6 22.8,0 34.3,17.9 30.7,39.6 z m -103.2,0 c -5.8,35.3 17.4,64.5 55.2,64.5 37.8,0 70.4,-28.7 76.3,-64.5 5.8,-35 -17.4,-64.2 -55.4,-64.2 -37.6,0 -70.2,28.8 -76.1,64.2"
       style="fill:#e6f0ff;fill-opacity:1;fill-rule:nonzero;stroke:none"
       id="path547" /><path
       d="m -22984.858,-3136.9472 c -7.7,2.8 -18.1,4.9 -29,4.9 -17.8,0 -27.1,-7.2 -25,-19.6 1.9,-11.6 13.5,-18.2 26.8,-18.2 18.7,0 30.9,10.5 28.4,25.9 z m 7.9,-51.6 -2.5,15.2 c -6.8,-10 -18.3,-17.7 -37,-17.7 -23.4,0 -46.1,13.3 -50.3,38.5 -4.5,27.3 14.6,40.4 43.3,40.4 14.9,0 24.8,-2.1 34.9,-5.2 l -0.4,2.4 c -2.8,17 -15.1,26.4 -34.7,26.4 -13.8,0 -23.5,-3.1 -34,-7.7 l -11.4,22.6 c 12.5,6.1 25.1,10.3 45.2,10.3 36.4,0 57.3,-19.2 62.8,-52.1 l 12.1,-73.1 h -28"
       style="fill:#e6f0ff;fill-opacity:1;fill-rule:nonzero;stroke:none"
       id="path549" /><path
       d="m -22832.258,-3126.6472 c -3.9,23.8 -23.3,39.5 -42.2,39.5 -19.4,0 -33,-15 -28.9,-40 4,-23.8 22.9,-39.4 42,-39.4 18.9,0 33.1,15.9 29.1,39.9 z m -99.6,0 c -6.8,40.9 17.1,64 46.5,64 20.4,0 34.9,-10.3 45.7,-21.7 l -11,66.3 h 28.2 l 28.3,-170.5 h -28.3 l -3.4,20.6 c -7,-12.9 -18.1,-23.1 -38.2,-23.1 -28.9,0 -61,23.1 -67.8,64.4"
       style="fill:#e6f0ff;fill-opacity:1;fill-rule:nonzero;stroke:none"
       id="path551" /><path
       d="m -22777.758,-3065.2472 h 28.3 l 20.4,-123.3 h -28.2 z m -8.7,45.8 h 30.3 l 4.5,-26.9 h -30.4 l -4.4,26.9"
       style="fill:#e6f0ff;fill-opacity:1;fill-rule:nonzero;stroke:none"
       id="path553" /><path
       d="m -22712.558,-3065.2472 h 28.2 l 3.2,-19.1 c 6,11.6 15.8,21.7 34.9,21.7 27.8,0 47,-18.7 51.7,-47.4 l 13.1,-78.5 h -28.3 l -11.6,70.1 c -3.2,19.1 -14.6,30.1 -31.4,30.1 -16.3,0 -25.9,-11.4 -22.7,-30.6 l 11.6,-69.6 h -28.3 l -20.4,123.3"
       style="fill:#e6f0ff;fill-opacity:1;fill-rule:nonzero;stroke:none"
       id="path555" /><path
       d="m -22465.258,-3120.5472 c -3.4,20.3 -22.3,34.1 -41.9,34.1 -19.6,0 -32.8,-13.6 -29.3,-34.3 3.4,-20.4 21.3,-34.1 40.7,-34.1 19.6,0 33.8,14 30.5,34.3 z m -78.5,-91.1 6.9,21.3 c 14.5,-8.2 29.3,-13.1 46.1,-13.1 25.2,0 36.8,13.1 32.7,37.8 l -1.6,9.6 c -8.1,-13.3 -19.3,-22.6 -39.7,-22.6 -28.9,0 -59.5,21.4 -65.6,58.1 -6.1,36.4 17.7,57.9 46.4,57.9 20.8,0 35.2,-9.6 46.7,-21 l -3.1,18.4 h 28.3 l 16.2,-98 c 3.5,-20.8 0.7,-36.2 -7.9,-46.5 -9.4,-11.2 -25.7,-16.6 -47.9,-16.6 -20.3,0 -40.1,5.2 -57.5,14.7"
       style="fill:#e6f0ff;fill-opacity:1;fill-rule:nonzero;stroke:none"
       id="path557" /><path
       d="m -29957.958,-2098.1472 c 0,0 24.12,262.9 -269.65,262.9 0,0 89.02,-24.1 135.07,-72.4 0,0 -187.37,110 -391.27,-59 -203.9,-169 -77.21,-592.9 -139.22,-673.4 -62,-80.5 -303.46,-96.6 -273.95,-356.9 29.51,-260.2 766.34,-586.2 719.02,-801.5 0,0 288.76,424.5 82.28,618.2 0,0 100.64,-94.8 110.9,-207.5 0,0 27.3,220 -112.69,290.4 -123.89,62.3 -225.37,290 -214.63,330.7 10.73,40.7 354.14,668.5 354.14,668.5"
       style="fill:#000000;fill-opacity:1;fill-rule:nonzero;stroke:none"
       id="path559" /><path
       d="m -30247.158,-3360.5472 c 0,0 219.46,-907.9 434.9,-1089.4 129.5,-109.1 514.53,-359.5 514.53,-359.5 l -160.16,-58.1 c 0,0 -534.04,180.4 -653.6,320.9 -119.56,140.6 -446.92,845 -446.92,845 l 311.25,341.1"
       style="fill:#ffb27d;fill-opacity:1;fill-rule:nonzero;stroke:none"
       id="path561" /><path
       d="m -28986.878,-5141.2472 -51.59,127.7 c -55.3,136.9 -188.2,226.6 -335.9,226.6 h -951.43 v -603.7 -2577.4 h 3935.74 v 2577.4 h -2227.2 c -162.5,0 -308.76,98.7 -369.62,249.4"
       style="fill:#1a1a1a;fill-opacity:1;fill-rule:nonzero;stroke:none"
       id="path563" /><path
       d="m -32309.828,-4955.6472 c 1.92,-3.4 3.98,-7.1 6.04,-10.6 48.02,-83.5 158.19,-288.1 279.54,-511.9 57.4,-106.2 117.5,-216.7 174.51,-320.7 98.23,-179.6 187.6,-339.4 239.74,-423.9 53.03,-85.9 92.07,-146.3 107.86,-170.4 l 0.13,-0.2 c 4.75,-7.4 5.78,-16.1 5.14,-24.9 -5.52,-75.7 -3.98,-151 3.47,-225.1 73.19,-728.2 564.23,-1118.4 564.23,-1118.4 l 146,-21.6 c 0,0 -206.61,765.5 -267.48,1198.2 -10.27,73.3 -14.77,132.8 -11.18,171.6 10.8,112.7 -9.24,278.2 -47.12,468.3 -67.41,337.7 -191.07,752.2 -298.55,1084 -6.81,21.2 -212.13,763.9 -212.13,763.9 -172.32,-150.6 -800.89,-212.8 -800.89,-212.8 0,0 -106.57,-259.1 110.69,-645.5"
       style="fill:#000000;fill-opacity:1;fill-rule:nonzero;stroke:none"
       id="path565" /><path
       d="m -30476.748,-7968.0472 h -609.35 c 0,0 -14.6,92.9 17.22,163.3 30.5,67.6 73.97,69.8 5.55,175.7 38.73,-39.8 163.19,-56.3 251.29,-44.5 10.79,-17.5 69.59,-134.9 105.64,-160.8 39.82,-28.6 217.39,-18.4 229.65,-133.7"
       style="fill:#000000;fill-opacity:1;fill-rule:nonzero;stroke:none"
       id="path567" /><path
       d="m -32309.828,-4955.6472 c 1.92,-3.4 3.98,-7.1 6.04,-10.6 48.02,-83.5 307.75,-563.2 429.09,-787.1 -140.6,578.5 -42.8,1157 -42.8,1157 l -392.33,-359.3"
       style="fill:#000000;fill-opacity:1;fill-rule:nonzero;stroke:none"
       id="path569" /><path
       d="m -30041.058,-2061.1472 c 3.98,16 -348.03,-159.1 -365.88,-178.9 -165.09,-183.1 -118.02,-422.1 -23.55,-424.4 60.58,-1.5 48.84,-102.2 48.84,-102.2 l 674.93,285.5 c 0,0 -81.26,473.9 -334.34,420"
       style="fill:#000000;fill-opacity:1;fill-rule:nonzero;stroke:none"
       id="path571" /><path
       d="m -30267.868,-3224.1472 c 0,0 102.71,-205.2 89.89,-371.7 0,0 -123.85,-195.5 -445.05,-245 0,0 276.16,616.8 355.16,616.7"
       style="fill:#4d4d4d;fill-opacity:1;fill-rule:nonzero;stroke:none"
       id="path573" /><path
       d="m -31834.798,-4355.4472 2.07,113.9 c -227.07,-28.6 -782.93,271.4 -782.93,271.4 0,0 -237.55,-158 -270.07,-609.3 -15.88,-220.2 -116.29,-1151.6 -127.39,-1429.7 -4.06,-100.8 -5.4,-172.7 -5.86,-201.5 l 0.03,-0.3 c -0.14,-8.7 -4.25,-16.5 -9.65,-23.4 -46.99,-59.7 -87.75,-123 -123.04,-188.6 -346.48,-644.7 -165.29,-1520.6 -165.29,-1520.6 l 80.46,20.4 c 0,0 292.97,908.1 484.44,1300.9 32.5,66.6 62.03,118.4 86.72,148.4 72,87.5 147.91,236 222.74,414.7 141.45,337.9 607.77,1703.7 607.77,1703.7"
       style="fill:#000000;fill-opacity:1;fill-rule:nonzero;stroke:none"
       id="path575" /><path
       d="m -32832.368,-7968.0472 h -609.35 c 0,0 -14.6,92.9 17.23,163.3 30.5,67.6 78.26,98.3 66.82,180.1 38.72,-39.8 101.83,-84.5 189.92,-72.6 10.8,-17.5 69.68,-111.2 105.73,-137.1 39.82,-28.6 217.39,-18.4 229.65,-133.7"
       style="fill:#000000;fill-opacity:1;fill-rule:nonzero;stroke:none"
       id="path577" /><path
       d="m -30664.158,-3971.6472 c -81.86,-14 13.36,-79.1 -99.21,-91.3 -160.23,-17.5 -325.66,-29.5 -412.32,-64 -31.6,-12.6 -52.74,-28.2 -59.34,-48.1 -37.57,-112.9 -275.46,-307 -275.46,-307 -1061.05,48.3 -1129.39,521.2 -1129.39,521.2 688.64,668.8 1274.48,1033.3 1758.66,1078.4 117.85,11 276.68,-3.7 351.2,-36.9 169.35,-75.4 262.15,-304.8 262.15,-304.8 0,0 -85.3,-694.5 -396.29,-747.5"
       style="fill:#666666;fill-opacity:1;fill-rule:nonzero;stroke:none"
       id="path579" /><path
       d="m -30763.368,-4062.9472 c -160.23,-17.5 -325.66,-29.5 -412.32,-64 -250.51,499.2 214.31,927.2 214.31,927.2 0,0 162.91,-663 198.01,-863.2"
       style="fill:#4d4d4d;fill-opacity:1;fill-rule:nonzero;stroke:none"
       id="path581" /><path
       d="m -30625.138,-3110.1472 c 0,0 -402.93,22 -474.52,-231 -71.6,-252.9 134.32,-1262.7 178.69,-1366.9 80.79,-189.8 488.17,-754.9 488.17,-754.9 l 130.57,67.7 c 0,0 -262.25,827.2 -320.8,909.1 -91.91,128.5 118.49,1265.9 -2.11,1376"
       style="fill:#ffb27d;fill-opacity:1;fill-rule:nonzero;stroke:none"
       id="path583" /><path
       d="m -30302.228,-5395.2472 c 0,0 33.7,-29.3 60.8,-62.4 27.11,-33.2 3.27,-45.1 81.1,-195.1 0,0 -3.98,-20.8 -20.89,-17 -16.9,3.8 -75.64,62 -105.77,57.8 0,0 -21.53,-17.7 -23.89,-76.5 -2.21,-55 -2.37,-176.6 -11.94,-199.4 -9.57,-22.9 -79.5,95.8 -113.91,181.5 -30.17,75.1 -0.77,328.7 -0.77,328.7 l 135.27,-17.6"
       style="fill:#ffb27d;fill-opacity:1;fill-rule:nonzero;stroke:none"
       id="path585" /><path
       d="m -31179.128,-3679.4472 c 1.05,-5.9 381.3,-69.9 619.13,50.8 0,0 198.69,622.4 -85.24,592.6 -283.94,-29.7 -452.07,-119.2 -459.22,-255.1 -7.16,-135.9 -74.67,-388.3 -74.67,-388.3"
       style="fill:#4d4d4d;fill-opacity:1;fill-rule:nonzero;stroke:none"
       id="path587" /><path
       d="m -30539.088,-2962.9472 c 4.14,-50.4 10.56,-109.4 76.48,-177.3 50.51,-52 123.49,-92.5 174.76,-41.3 26.15,26.1 61.44,65.1 79.31,95.8 44.3,76.2 97.07,154 97.07,154 l -228.05,199.8 -13.61,11.9 c -59.74,-104.3 -118.48,-154.4 -169.89,-192.8 -15.54,-11.6 -17.65,-30.8 -16.07,-50.1"
       style="fill:#ffb27d;fill-opacity:1;fill-rule:nonzero;stroke:none"
       id="path589" /><path
       d="m -30111.488,-2931.8472 c 0,0 -52.72,-77.7 -97.04,-153.9 -141.74,87.4 -141.9,262.9 -130.98,353.8 l 228.02,-199.9"
       style="fill:#ed985f;fill-opacity:1;fill-rule:nonzero;stroke:none"
       id="path591" /><path
       d="m -30105.168,-3031.9472 c 0,0 -344.18,191.5 -221.61,404 122.56,212.5 160.69,380.3 385.61,267 224.93,-113.3 220.48,-218.8 196.82,-299.6 -23.65,-80.9 -268.14,-415.8 -360.82,-371.4"
       style="fill:#ffb27d;fill-opacity:1;fill-rule:nonzero;stroke:none"
       id="path593" /><path
       d="m -29686.208,-2536.6472 c -15.76,94.3 -63.69,103.4 -97.11,97.1 -127.1,210.2 -334.76,128.1 -334.76,128.1 -110.91,-139.2 -271.27,-162.9 -271.27,-162.9 0,0 39.95,-74.3 204.5,-120.3 50.27,-14.1 107.32,-5.6 162.34,12.9 -114.17,-63.6 -233.56,-88 -233.56,-88 216.85,-19.8 423.18,178.4 444.58,199.6 10,-30.7 27.55,-95 17.05,-142 -14.28,-64 -71.01,-179.7 -36.38,-194.7 0,0 168.25,128.7 144.61,270.2"
       style="fill:#000000;fill-opacity:1;fill-rule:nonzero;stroke:none"
       id="path595" /><path
       d="m -29234.758,-4809.8472 c 0,0 -96.04,-72.1 -23.65,-119.1 72.38,-47.1 201.6,-59.8 202.14,-29 1.78,103.7 -49.95,177.5 -178.49,148.1"
       style="fill:#ffb27d;fill-opacity:1;fill-rule:nonzero;stroke:none"
       id="path597" /><path
       d="m -29294.678,-7021.1472 h 2033.62 c 83.8,0 148.4,128.2 149.5,218.9 3.3,284.9 -302.5,740.1 -995.6,538.6 0,0 -195.6,527.9 -882.82,463.8 -403.53,-37.6 -628.43,-449.3 -655.49,-816.3 -16.15,-219.1 147.68,-405 350.79,-405"
       style="opacity:0.99;fill:#4d4d4d;fill-opacity:1;fill-rule:nonzero;stroke:none"
       id="path599" /><path
       d="m -28575.958,-6590.8472 h 393.8 v -904.9 h -393.8 v 904.9"
       style="fill:#ffffff;fill-opacity:1;fill-rule:nonzero;stroke:none"
       id="path601" /><path
       d="m -27890.258,-6773.5472 h -977.61 l 488.81,459.4 z"
       style="fill:#ffffff;fill-opacity:1;fill-rule:nonzero;stroke:none"
       id="path603" /><g
       id="g605"
       transform="matrix(1.19916,0,0,1.19916,-38724.158,-10847.347)"
       style="fill:#000000"><path
         d="m 16300,6929.02 -428.5,-98.49 -212.9,-384.77 -159.2,878.79 800.6,-395.53"
         style="fill:#000000;fill-opacity:1;fill-rule:nonzero;stroke:none"
         id="path607" /></g><g
       id="g609"
       transform="matrix(1.18598,0,0,1.18598,-38724.158,-10847.347)"
       style="fill:#000000"><path
         d="m 16300,6626.24 -63.2,-47.64 -275.7,365.86 63.3,47.64 275.6,-365.86"
         style="fill:#000000;fill-opacity:1;fill-rule:nonzero;stroke:none"
         id="path611" /></g><path
       d="m -27186.758,101.85277 c -16.9,-19.399999 -19.1,-41.099999 -10.7,-64.299999 l 0.2,-0.3 c 15.5,-42.8000003 66.6,-90.6 126.1,-138.300001 7.6,-6.2 14.4,-11.8 20.3,-16.9 1.5,-1.4 3,-2.7 4.5,-4.1 1.2,-1.1 2.3,-2.2 3.5,-3.2 55.4,-51.1 34.6,-62.8 134.2,-166.5 113.6,-118.2 191.8,-120.3 214,-109.5 18.8,9.1 -19.4,71.8 -61.8,142.3 -2,3.4 -4,6.8 -6.1,10.2 -5.7,9.4 -11.3,18.9 -16.9,28.3 -49.6,84.8 -36.9,124.600001 -25.1,250.800001 9.5,102.499999 159.5,572.799999 159.5,572.799999 l -217.7,37.5 c 0,0 -65.5,-374.5 -137.7,-432.2 -38.7,-30.7 -81.9,-31.1 -119,-53.9 -2.6,-1.6 -5.2,-3.2 -7.7,-4.8 -21.1,-14 -42.6,-28.5 -59.6,-47.9"
       style="fill:#ffb27d;fill-opacity:1;fill-rule:nonzero;stroke:none"
       id="path613" /><path
       d="m -27186.758,101.85277 c -16.9,-19.399999 -19.1,-41.099999 -10.7,-64.299999 l 0.2,-0.3 c 18.9,-42.7000003 68.8,-90.3 126.3,-137.900001 7.5,-6.3 14.2,-12 20.1,-17.3 1.5,-1.4 3,-2.7 4.5,-4.1 1.2,-1.1 2.3,-2.2 3.5,-3.2 55.4,-51.1 34.6,-62.8 134.2,-166.5 113.6,-118.2 191.8,-120.3 214,-109.5 18.8,9.1 -19.4,71.8 -61.8,142.3 -22.1,8.1 -124.8,49.8 -202.4,149.2 -65.9,84.100001 -110.7,191.300001 -155.5,257.1 -5,0.9 -7.9,1.4 -12.8,2.4 -21.1,-14 -42.6,-28.5 -59.6,-47.9"
       style="fill:#233862;fill-opacity:1;fill-rule:nonzero;stroke:none"
       id="path615" /><path
       d="m -25431.558,237.75277 c 13.4,-67.2 109.2,-56 216.2,-29.8 107,26.1 81.6,-4.9 233.8,11.9 152.3,16.9 198.5,73.7 203.1,96.3 4.2,20.1 -71.1,27.2 -151.8,36.5 -10.1,1.1 -20.3,2.4 -30.5,3.6 -91.2,11.5 -157.9,70.3 -240.7,118.6 -78.4,45.7 -195.4,232.1 -195.4,232.1 l -208.8,-16.6 c 0,0 109.6,-166.4 152,-238.8 24.9,-42.6 23.6,-98.9 20.5,-142.3 -1.6,-23.7 -3.2,-47.8 1.6,-71.5"
       style="fill:#ffb27d;fill-opacity:1;fill-rule:nonzero;stroke:none"
       id="path617" /><path
       d="m -25215.358,207.95277 c 107,26.1 81.6,-4.9 233.8,11.9 152.3,16.9 198.5,73.7 203.1,96.3 4.2,20.1 -71.1,27.2 -151.8,36.5 l -0.7,-1.6 c 0,0 -91.4,-64.7 -218.1,-67.8 -103.4,-2.5 -212.8,27.1 -284.1,26 -1.6,-23.7 -3.2,-47.8 1.6,-71.5 13.4,-67.2 109.2,-56 216.2,-29.8"
       style="fill:#233862;fill-opacity:1;fill-rule:nonzero;stroke:none"
       id="path619" /><path
       d="m -26231.958,1573.2528 -195.2,-525.4 -254.9,-686.00003 c 0,0 -69.2,-6.6 -135.4,12.4 -61,17.6 -131,63.8 -131,63.8 0,0 70.8,736.50003 202.8,1159.30003 33.9,108.5 71.8,196.3 113.6,245.7 204.7,241.9 400.1,-269.8 400.1,-269.8"
       style="fill:#000000;fill-opacity:1;fill-rule:nonzero;stroke:none"
       id="path621" /><path
       d="m -26430.458,2407.5528 c -111.1,35.8 -401.1,0.5 -715.6,-56.4 -86.9,-15.7 -174.5,24 -220.3,99.5 l -791.5,61.8 c 0,0 -261.2,-579.2 -118.2,-948.3 21,-54.2 67.1,-88.1 138.3,-89.2 0,0 478.3,-0.7 631.3,-0.7 393.6,0 833.1,270.6 889.9,282 93.1,18.6 130.3,-167.5 223.3,-362.9 93.1,-195.4 874.7,-865.40003 874.7,-865.40003 0,0 120.1,-1.2 169.7,17.5 53.4,20 72.9,46 72.9,46 0,0 -866,1723.00003 -1154.5,1816.10003"
       style="fill:#1a1a1a;fill-opacity:1;fill-rule:nonzero;stroke:none"
       id="path623" /><path
       d="m -27450.458,4774.9528 c -58.7,35 -116,40.4 -151.2,39.4 -24.4,-0.7 -48.8,0.9 -73,4.4 -302.1,44.3 -484,-394.5 -494.6,-527.1 -19.6,-243.4 -148.4,-280.5 -329.6,-433 -363.47,-305.6 -256.9,-660.8 -58.2,-792.8 119.3,-79.2 329.4,0 329.4,0 3,-2.1 574.8,319.6 856.7,474.8 422.5,60.1 90.3,1133.3 -79.5,1234.3"
       style="fill:#000000;fill-opacity:1;fill-rule:nonzero;stroke:none"
       id="path625" /><path
       d="m -27607.258,3672.7528 c 1.3,-0.8 -138.7,-48.5 -232.2,-7.1 -88,38.9 -154.7,183.7 -153.4,183.8 40,1.8 84,36.8 117.8,266.5 l 17.1,-6.1 286.7,-103.1 c 0,0 -20.8,-92 -34.2,-179.6 -11.4,-73.5 -17.4,-144 -1.8,-154.4"
       style="fill:#ffb27d;fill-opacity:1;fill-rule:nonzero;stroke:none"
       id="path627" /><path
       d="m -27571.258,4006.7528 c 0,0 -11.5,-49.7 -28.2,-142.4 -164.6,29.7 -235.3,156.5 -258.5,245.5 l 286.7,-103.1"
       style="fill:#ed975d;fill-opacity:1;fill-rule:nonzero;stroke:none"
       id="path629" /><path
       d="m -27528.558,3915.4528 c 0,0 -392.3,52.6 -355.7,296.4 36.5,243.7 10.5,414.7 262.5,391.4 251.9,-23.3 286.5,-123.6 294.1,-208 7.6,-84.3 -98,-487.2 -200.9,-479.8"
       style="fill:#ffb27d;fill-opacity:1;fill-rule:nonzero;stroke:none"
       id="path631" /><path
       d="m -27341.958,4528.9528 c 0,0 -251,-216.4 -421.8,-233.9 -170.8,-17.4 -235.5,37.4 -235.5,37.4 0,0 100.7,83.6 161.3,218.5 17.8,39.7 55.6,67 99,70.8 121.9,10.5 353.1,15.3 397,-92.8"
       style="fill:#000000;fill-opacity:1;fill-rule:nonzero;stroke:none"
       id="path633" /><path
       d="m -27498.858,4548.2528 c 0,0 84,-81.2 110.4,-141.4 25.6,-58.2 33.2,-197.2 12.9,-252.4 0,0 130.9,254.5 56.8,378.1 -78.6,131.1 -180.1,15.7 -180.1,15.7"
       style="fill:#000000;fill-opacity:1;fill-rule:nonzero;stroke:none"
       id="path635" /><path
       d="m -27276.958,3095.0528 c -11.9,-794 -3.3,-628.1 -90.1,-703.4 -20.9,-18.1 -79.8,-28.9 -157.2,-34.1 -243.4,-16.1 -671.4,24 -687.7,69 -56.1,155.7 -16.5,204 -63.3,442.4 -4.9,25.3 -11,52.7 -18.1,82.6 -39,163.7 -77,219.4 61.5,482.4 125.7,238.2 256.3,431.5 268,424.6 331.6,-196.9 358.3,-31.4 358.3,-31.4 0,0 334.4,-344.9 328.6,-732.1"
       style="fill:#666666;fill-opacity:1;fill-rule:nonzero;stroke:none"
       id="path637" /><path
       d="m -26427.158,1047.8528 -254.9,-686.00003 c 0,0 -69.2,-6.6 -135.4,12.4 -61,17.6 -131,63.8 -131,63.8 0,0 70.8,736.50003 202.8,1159.30003 l 318.5,-549.5"
       style="fill:#000000;fill-opacity:1;fill-rule:nonzero;stroke:none"
       id="path639" /><path
       d="m -27605.458,3827.1528 c 0,0 341.1,-57.8 381.2,-204.7 40.1,-146.9 171.9,-1038.5 171.9,-1038.5 0,0 -96.2,-94 -176.3,-13.9 -80.1,80.2 -252.2,834.3 -252.2,834.3 l -124.6,422.8"
       style="fill:#4d4d4d;fill-opacity:1;fill-rule:nonzero;stroke:none"
       id="path641" /><path
       d="m -27524.258,2357.5528 c -243.4,-16.1 -671.4,24 -687.7,69 -56.1,155.7 -16.5,204 -63.3,442.4 l 117.4,330.6 c 0,0 -19.4,-368.2 89.2,-465 108.4,-96.9 444.5,-187 497.3,-267.9 25.5,-38.8 42.2,-77.8 47.1,-109.1"
       style="fill:#666666;fill-opacity:1;fill-rule:nonzero;stroke:none"
       id="path643" /><path
       d="m -27803.158,2512.4528 c 0,0 240.2,53.5 278.9,32.2 38.8,-21.4 133.5,-99 145.3,-126 11.9,-27 -86.2,20.5 -118.2,29.1 -20.6,5.5 -75.1,-13.4 -102,-22.4 -113.3,-37.8 -182.8,-18.3 -182.8,-18.3 l -21.2,105.4"
       style="fill:#ffb27d;fill-opacity:1;fill-rule:nonzero;stroke:none"
       id="path645" /><path
       d="m -27964.058,3858.6528 c 0,0 -322.5,-19.8 -434.1,-175.6 -157.2,-219.1 -468.92,-1153.3 -290.2,-1277.8 201.2,-140.3 915.7,-36.8 915.7,-36.8 0,0 23.8,111.2 -9.3,165 -33.1,53.7 -570.7,140.6 -595.5,165.4 -24.8,24.8 310.1,483.8 310.1,558.3 0,74.4 103.3,601.5 103.3,601.5"
       style="fill:#4d4d4d;fill-opacity:1;fill-rule:nonzero;stroke:none"
       id="path647" /><path
       d="m -27512.658,2477.7528 c 0,0 50.4,-64.9 66.9,-72.7 16.5,-7.7 27.1,-5.8 27.1,-5.8 l -33.9,61.1 -60.1,17.4"
       style="fill:#ffb27d;fill-opacity:1;fill-rule:nonzero;stroke:none"
       id="path649" /><path
       d="m -27524.258,2544.6528 146.3,-71.1 c 0,0 -6.2,-10.2 -24.2,-9.4 -18,0.9 -63.5,17.5 -63.5,17.5 l -58.6,63"
       style="fill:#ffb27d;fill-opacity:1;fill-rule:nonzero;stroke:none"
       id="path651" /><path
       d="m -26274.858,2377.5528 h -1528.3 v -33.7 h 1514.7 l 13.6,33.7"
       style="fill:#000000;fill-opacity:1;fill-rule:nonzero;stroke:none"
       id="path653" /><path
       d="m -27445.758,2343.8528 h 1157.3 l 348.2,865.8 h -1155.6 l -349.9,-865.8"
       style="fill:#000000;fill-opacity:1;fill-rule:nonzero;stroke:none"
       id="path655" /><path
       d="m -26580.558,2776.7528 c 8.7,30.4 -8.9,55.1 -39.3,55.1 -30.5,0 -62.2,-24.7 -70.9,-55.1 -8.8,-30.4 8.8,-55.1 39.3,-55.1 30.4,0 62.1,24.7 70.9,55.1"
       style="fill:#ffffff;fill-opacity:1;fill-rule:nonzero;stroke:none"
       id="path657" /><g
       id="g659"
       transform="matrix(1.47643,0,0,1.47643,-38724.158,-10847.347)"
       style="fill:#4d4d4d"><path
         d="m 15881.3,6547.83 c 0,0 379.9,-386.48 399.3,-546.93 19.4,-160.46 -196.9,-410.93 -196.9,-410.93 l -202.4,957.86"
         style="fill:#4d4d4d;fill-opacity:1;fill-rule:nonzero;stroke:none"
         id="path661" /></g><g
       id="g663"
       transform="matrix(1.41884,0,0,1.41884,-38724.158,-10847.347)"
       style="fill:#000000"><path
         d="m 16300,2257.76 c 0,0 -15.1,-235.26 -60.6,-238.57 -6.1,-0.43 -230.9,0.06 -230.9,0.06 l -287.1,2.26 c 0,0 2.1,69.21 86,83.59 84,14.45 224.5,73.16 275.6,183.95 53.7,116.51 217,-31.29 217,-31.29"
         style="fill:#000000;fill-opacity:1;fill-rule:nonzero;stroke:none"
         id="path665" /></g><g
       id="g667"
       transform="matrix(1.4745,0,0,1.4745,-38724.158,-10847.347)"
       style="fill:#000000"><path
         d="m 16300,2171.18 c 0,0 -14.6,-226.38 -58.4,-229.57 -5.8,-0.41 -222.2,0.07 -222.2,0.07 l -276.2,2.24 c 0,0 2,66.53 82.7,80.43 80.8,13.91 216,70.33 265.2,176.94 51.7,112.11 208.9,-30.11 208.9,-30.11"
         style="fill:#000000;fill-opacity:1;fill-rule:nonzero;stroke:none"
         id="path669" /></g><g
       id="g671"
       transform="matrix(1.47633,0,0,1.47633,-38724.158,-10847.347)"
       style="fill:#000000"><path
         d="m 15365,4601.14 c 0,0 71.2,-461.62 338.5,-1281.36 267.4,-819.73 303.3,-1174.53 303.3,-1174.53 l 288.8,7.45 c 0,0 4.4,895.26 -118.7,1307.43 -123.2,412.24 -23.6,1485.1 -23.6,1485.1 L 15365,4601.14"
         style="fill:#000000;fill-opacity:1;fill-rule:nonzero;stroke:none"
         id="path673" /></g><g
       id="g675"
       transform="matrix(1.45474,0,0,1.45474,-38724.158,-10847.347)"
       style="fill:#000000"><path
         d="m 15451.3,4995 c 0,0 -11.9,-705.63 108.2,-1572.39 120.3,-866.75 78.1,-1234.45 78.1,-1234.45 l 292.4,-10.38 c 0,0 176.6,866.41 127.5,1300.24 -49.2,433.82 242.5,1487.62 242.5,1487.62 l -848.7,29.36"
         style="fill:#000000;fill-opacity:1;fill-rule:nonzero;stroke:none"
         id="path677" /></g><g
       id="g679"
       transform="matrix(1.42983,0,0,1.42983,-38724.158,-10847.347)"><path
         d="m 16300,6761.02 -158.8,-103.65 -228.9,43.22 c 3.2,18.47 18.5,95.12 32.4,164.5 0.8,4.13 1.7,8.18 2.5,12.17 11.9,59.1 22.2,109.8 22.2,109.8 l 214.1,93.96 79.9,35.02 c -0.2,-1.24 -6.3,-65.55 -7.2,-74.94 -15.3,-166.71 43.8,-280.08 43.8,-280.08"
         style="fill:#ffb27d;fill-opacity:1;fill-rule:nonzero;stroke:none"
         id="path681" /></g><g
       id="g683"
       transform="matrix(1.43189,0,0,1.43189,-38724.158,-10847.347)"
       style="fill:#4d4d4d"><path
         d="m 15948.2,6804.37 c 4.4,1.81 275.7,81.22 305.1,71.44 29.4,-9.78 46.7,-66.77 46.7,-66.77 l -443.5,-99.3 c 0,0 35,70.88 91.7,94.63"
         style="fill:#4d4d4d;fill-opacity:1;fill-rule:nonzero;stroke:none"
         id="path685" /></g><g
       id="g687"
       transform="matrix(1.46883,0,0,1.46883,-38724.158,-10847.347)"><path
         d="m 16254.8,4858.77 c -45.2,-204.24 -790.7,-226.85 -982.4,-40.98 -21.9,21.17 -22.7,119.55 -14.2,252.17 16.7,259.05 69.3,648.68 71.8,847.82 1.2,96.13 14.6,194.44 32.4,283.76 37.8,190.22 95.3,339.46 95.3,339.46 0,0 364.3,116.96 432.4,96.74 328,-97.08 409.9,-1574.79 364.7,-1778.97"
         style="fill:#666666;fill-opacity:1;fill-rule:nonzero;stroke:none"
         id="path689" /></g><g
       id="g691"
       transform="matrix(1.42585,0,0,1.42585,-38724.158,-10847.347)"
       style="fill:#4d4d4d"><path
         d="m 15718.2,5222.79 c 17.2,266.86 71.4,668.24 73.9,873.38 1.3,99.03 15.1,200.3 33.4,292.31 l 225.7,39.28 c 0,0 248.8,-956.13 -333,-1204.97"
         style="fill:#4d4d4d;fill-opacity:1;fill-rule:nonzero;stroke:none"
         id="path693" /></g><g
       id="g695"
       transform="matrix(1.3982,0,0,1.3982,-38724.158,-10847.347)"><path
         d="m 16154.5,5705.21 c 0,0 15.5,-37.55 -17.4,-62.66 -33.1,-25.1 -54.5,-65.79 -47,-95.62 7.5,-29.82 79.6,-78.6 104.7,-70.8 25,7.79 76.1,46.91 70.7,62.65 -5.6,15.73 34.5,137.89 -26.4,185.02 -61,47.21 -84.6,-18.59 -84.6,-18.59"
         style="fill:#ffb27d;fill-opacity:1;fill-rule:nonzero;stroke:none"
         id="path697" /></g><g
       id="g699"
       transform="matrix(1.41301,0,0,1.41301,-38724.158,-10847.347)"
       style="fill:#4d4d4d"><path
         d="m 16236,6840.92 c 0,0 -215.9,-28.45 -393.4,-288.82 -177.4,-260.29 -294.3,-453.92 -261.8,-547.91 32.3,-94.05 328.7,-420.59 379.9,-420.73 51.2,-0.07 133.9,36.94 138.7,120.74 0,0 -187.7,333.4 -146.4,380.25 17.6,20.03 251.3,206.15 287.3,112.95 59.7,-154.14 -4.3,643.52 -4.3,643.52"
         style="fill:#4d4d4d;fill-opacity:1;fill-rule:nonzero;stroke:none"
         id="path701" /></g><g
       id="g703"
       transform="matrix(1.42629,0,0,1.42629,-38724.158,-10847.347)"><path
         d="m 16280.5,7055.66 c -47.3,-79.72 -222.9,-148.29 -296.2,-173.53 0.8,4.14 1.7,8.2 2.4,12.2 12,59.24 22.3,110.07 22.3,110.07 l 214.7,94.19 c 47.4,0.54 76.3,-10.13 56.8,-42.93"
         style="fill:#fca56b;fill-opacity:1;fill-rule:nonzero;stroke:none"
         id="path705" /></g><g
       id="g707"
       transform="matrix(1.44291,0,0,1.44291,-38724.158,-10847.347)"><path
         d="m 15744.7,6936.81 c 0,0 341.4,-107.27 404.9,106.29 63.6,213.59 150.4,343.59 -64.9,421.12 -215.2,77.53 -282,8.68 -320.5,-57.45 -38.6,-66.13 -106.7,-436.55 -19.5,-469.96"
         style="fill:#ffb27d;fill-opacity:1;fill-rule:nonzero;stroke:none"
         id="path709" /></g><g
       id="g711"
       transform="matrix(1.4524,0,0,1.4524,-38724.158,-10847.347)"
       style="fill:#000000"><path
         d="m 15674.5,7378.77 c 0,0 21.1,-247.13 72.2,-236.51 51.1,10.61 97.4,18.46 89.8,-56.01 -7.6,-74.46 -78.6,-160.31 78.8,-173.82 157.4,-13.52 384.7,392.1 341.6,469.09 -124.3,222.13 -762.3,268.29 -582.4,-2.75"
         style="fill:#000000;fill-opacity:1;fill-rule:nonzero;stroke:none"
         id="path713" /></g><g
       id="g715"
       transform="matrix(1.75652,0,0,1.75652,-38724.158,-10847.347)"
       style="fill:#000000"><path
         d="M 16282.6,1597.65 H 1192.94 c -9.6,0 -17.44,7.85 -17.44,17.47 v 6.66 c 0,9.57 7.84,17.43 17.44,17.43 H 16282.6 c 9.5,0 17.4,-7.86 17.4,-17.43 v -6.66 c 0,-9.62 -7.9,-17.47 -17.4,-17.47"
         style="fill:#000000;fill-opacity:1;fill-rule:nonzero;stroke:none"
         id="path717" /></g></g></svg>
