<?xml version="1.0" encoding="UTF-8" standalone="no"?>
<!-- Created with Inkscape (http://www.inkscape.org/) -->

<svg
   width="1618.5229mm"
   height="1448.7194mm"
   viewBox="0 0 1618.5229 1448.7194"
   version="1.1"
   id="svg1821"
   inkscape:version="1.2.1 (1:1.2.1+202210291244+9c6d41e410)"
   sodipodi:docname="drawing_3.svg"
   inkscape:export-filename="drawing_3.png"
   inkscape:export-xdpi="96"
   inkscape:export-ydpi="96"
   xmlns:inkscape="http://www.inkscape.org/namespaces/inkscape"
   xmlns:sodipodi="http://sodipodi.sourceforge.net/DTD/sodipodi-0.dtd"
   xmlns="http://www.w3.org/2000/svg"
   xmlns:svg="http://www.w3.org/2000/svg">
  <sodipodi:namedview
     id="namedview1823"
     pagecolor="#ffffff"
     bordercolor="#666666"
     borderopacity="1.0"
     inkscape:showpageshadow="2"
     inkscape:pageopacity="0.0"
     inkscape:pagecheckerboard="0"
     inkscape:deskcolor="#d1d1d1"
     inkscape:document-units="mm"
     showgrid="false"
     inkscape:zoom="0.070945661"
     inkscape:cx="-155.04824"
     inkscape:cy="3086.8695"
     inkscape:window-width="1862"
     inkscape:window-height="1043"
     inkscape:window-x="58"
     inkscape:window-y="0"
     inkscape:window-maximized="1"
     inkscape:current-layer="layer1" />
  <defs
     id="defs1818" />
  <g
     inkscape:label="Layer 1"
     inkscape:groupmode="layer"
     id="layer1"
     transform="translate(650.04836,593.8247)">
    <g
       id="g4739"
       transform="matrix(0.03527778,0,0,-0.03527778,-818.79831,-787.38863)" />
    <g
       id="g374"
       transform="matrix(0.03527778,0,0,-0.03527778,-650.04836,854.89462)">
      <g
         id="g376"
         transform="scale(3.06748)" />
      <g
         id="g380"
         transform="scale(2.82745)">
        <path
           d="M 15445.6,4589.68 6199.46,3008.93 c -509.08,-87.04 -996.79,258.28 -1083.83,767.37 0,0 -905.45,9362.3 -79.93,9503.4 0,0 9711.9,965.2 9853,139.7 L 16213,5673.51 c 87,-509.08 -258.3,-996.79 -767.4,-1083.83"
           style="fill:#c8c7c5;fill-opacity:1;fill-rule:nonzero;stroke:none"
           id="path382" />
      </g>
      <g
         id="g384"
         transform="scale(2.7435)">
        <path
           d="M 15378.1,4387.9 5754.81,3466.52 c -529.87,-50.73 -1004.89,341.25 -1055.63,871.12 0,0 -218.47,9691.36 640.72,9773.66 0,0 10055.2,253.3 10137.5,-605.9 l 771.9,-8061.87 C 16300,4913.66 15908,4438.64 15378.1,4387.9"
           style="fill:#f0f0ef;fill-opacity:1;fill-rule:nonzero;stroke:none"
           id="path386" />
      </g>
      <g
         id="g388"
         transform="scale(2.59748)">
        <path
           d="M 5761.7,4999.66 14954.3,3661.4 c 559.6,-53.59 1061.3,360.42 1114.9,920.08 0,0 230.8,10236.12 -676.7,10323.02 0,0 -9091.62,232.3 -9178.51,-675.2 L 5259.18,6456.95 c -53.55,-559.62 -57.1,-1403.7 502.52,-1457.29"
           style="fill:#f0f0ef;fill-opacity:1;fill-rule:nonzero;stroke:none"
           id="path390" />
      </g>
      <g
         id="g392"
         transform="scale(2.70294)">
        <path
           d="M 15317.7,4190.81 H 5505.27 c -540.27,0 -982.3,442.04 -982.3,982.3 v 8053.59 c 0,876.1 716.81,1592.9 1592.89,1592.9 h 8591.24 c 876.1,0 1592.9,-716.8 1592.9,-1592.9 V 5173.11 c 0,-540.26 -442,-982.3 -982.3,-982.3"
           style="fill:#ffffff;fill-opacity:1;fill-rule:nonzero;stroke:none"
           id="path394" />
      </g>
      <g
         id="g396"
         transform="scale(2.70294)"
         style="fill:#000000">
        <path
           d="M 16300,12057 H 4522.97 v 1169.7 c 0,876.1 716.81,1592.9 1592.86,1592.9 h 8591.27 c 876.1,0 1592.9,-716.8 1592.9,-1592.9 V 12057"
           style="fill:#000000;fill-opacity:1;fill-rule:nonzero;stroke:none"
           id="path398" />
      </g>
      <g
         id="g400"
         transform="scale(2.45745)">
        <path
           d="m 7082.72,15415.9 v 0 c -144.91,0 -263.49,118.6 -263.49,263.5 v 620.6 h 527.01 v -620.6 c 0,-144.9 -118.58,-263.5 -263.52,-263.5"
           style="fill:#c02c34;fill-opacity:1;fill-rule:nonzero;stroke:none"
           id="path402" />
      </g>
      <g
         id="g404"
         transform="scale(2.45745)">
        <path
           d="m 10200.9,15415.9 v 0 c -144.9,0 -263.47,118.6 -263.47,263.5 v 620.6 h 526.97 v -620.6 c 0,-144.9 -118.5,-263.5 -263.5,-263.5"
           style="fill:#c02c34;fill-opacity:1;fill-rule:nonzero;stroke:none"
           id="path406" />
      </g>
      <g
         id="g408"
         transform="scale(2.45745)">
        <path
           d="m 13117.4,15415.9 v 0 c -144.9,0 -263.5,118.6 -263.5,263.5 v 620.6 h 527 v -620.6 c 0,-144.9 -118.6,-263.5 -263.5,-263.5"
           style="fill:#c02c34;fill-opacity:1;fill-rule:nonzero;stroke:none"
           id="path410" />
      </g>
      <g
         id="g412"
         transform="scale(2.46373)">
        <path
           d="m 16013.4,15376.6 v 0 c -144.6,0 -262.8,118.3 -262.8,262.8 0,0 0,573.7 0,619 0,41.6 525.6,-5.6 525.6,-5.6 v -613.4 c 0,-144.5 -118.3,-262.8 -262.8,-262.8"
           style="fill:#c02c34;fill-opacity:1;fill-rule:nonzero;stroke:none"
           id="path414" />
      </g>
      <g
         id="g416"
         transform="scale(2.51939)">
        <path
           d="m 9848.7,15123.4 v 0 c -141.38,0 -257.05,115.7 -257.05,257 v 662.6 c 0,141.3 115.67,257 257.05,257 v 0 c 141.34,0 257,-115.7 257,-257 v -662.6 c 0,-141.3 -115.66,-257 -257,-257"
           style="fill:#eeeded;fill-opacity:1;fill-rule:nonzero;stroke:none"
           id="path418" />
      </g>
      <g
         id="g420"
         transform="scale(2.51939)">
        <path
           d="m 12707.7,15123.4 v 0 c -141.4,0 -257,115.7 -257,257 v 662.6 c 0,141.3 115.6,257 257,257 v 0 c 141.4,0 257,-115.7 257,-257 v -662.6 c 0,-141.3 -115.6,-257 -257,-257"
           style="fill:#eeeded;fill-opacity:1;fill-rule:nonzero;stroke:none"
           id="path422" />
      </g>
      <g
         id="g424"
         transform="scale(2.51939)">
        <path
           d="m 15566.8,15123.4 v 0 c -141.4,0 -257.1,115.7 -257.1,257 v 662.6 c 0,141.3 115.7,257 257.1,257 v 0 c 141.3,0 257,-115.7 257,-257 v -662.6 c 0,-141.3 -115.7,-257 -257,-257"
           style="fill:#eeeded;fill-opacity:1;fill-rule:nonzero;stroke:none"
           id="path426" />
      </g>
      <g
         id="g428"
         transform="scale(2.53819)">
        <path
           d="M 16300,7613.97 13333.4,4494.7 c 0,0 112.2,549.17 113.1,894.3 0.6,219.21 -44.2,410.45 -59.3,725.24 -42.3,883.11 469.1,1107.99 710.5,1238.76 370.3,200.49 977.5,52.12 1343.6,75.92 154.7,10.04 743.3,35.77 858.7,185.05"
           style="fill:#b9b8b7;fill-opacity:1;fill-rule:nonzero;stroke:none"
           id="path430" />
      </g>
      <g
         id="g432"
         transform="scale(2.69121)">
        <path
           d="M 16300,7366.21 12575.3,4239.14 c 0,0 185.2,594.64 221.7,975.8 23.2,242.09 -8.6,458.16 6.5,807.56 42.2,980.12 652.1,1173.6 942.6,1292.1 445.5,181.7 1127,-47.49 1549.6,-60.57 178.5,-5.54 856.5,-40.39 1004.3,112.18"
           style="fill:#eae8e7;fill-opacity:1;fill-rule:nonzero;stroke:none"
           id="path434" />
      </g>
      <g
         id="g436"
         transform="scale(1.74302)">
        <path
           d="M 11334.7,14720.6 H 8898.56 V 16300 h 2436.14 v -1579.4"
           style="fill:#eeeded;fill-opacity:1;fill-rule:nonzero;stroke:none"
           id="path438" />
      </g>
      <g
         id="g440"
         transform="scale(1.44242)">
        <path
           d="M 13696.8,14391.5 H 10753 V 16300 h 2943.8 v -1908.5"
           style="fill:#eeeded;fill-opacity:1;fill-rule:nonzero;stroke:none"
           id="path442" />
      </g>
      <g
         id="g444"
         transform="scale(1.62661)">
        <path
           d="m 16300,12761.9 h -2610.5 v 1692.4 H 16300 v -1692.4"
           style="fill:#eeeded;fill-opacity:1;fill-rule:nonzero;stroke:none"
           id="path446" />
      </g>
      <g
         id="g448"
         transform="scale(2.04116)">
        <path
           d="m 16300,10170.1 h -2080.2 v 1348.6 H 16300 v -1348.6"
           style="fill:#eeeded;fill-opacity:1;fill-rule:nonzero;stroke:none"
           id="path450" />
      </g>
      <g
         id="g452"
         transform="scale(2.44771)">
        <path
           d="M 16300,8480.86 H 14565.3 V 9605.5 H 16300 V 8480.86"
           style="fill:#eeeded;fill-opacity:1;fill-rule:nonzero;stroke:none"
           id="path454" />
      </g>
      <g
         id="g456"
         transform="scale(1.21206)">
        <path
           d="m 16300,13084.2 h -3503.3 v 2271.3 H 16300 v -2271.3"
           style="fill:#eeeded;fill-opacity:1;fill-rule:nonzero;stroke:none"
           id="path458" />
      </g>
      <g
         id="g460"
         transform="scale(1.62661)">
        <path
           d="M 16300,9749.64 H 13689.5 V 11442.1 H 16300 V 9749.64"
           style="fill:#eeeded;fill-opacity:1;fill-rule:nonzero;stroke:none"
           id="path462" />
      </g>
      <g
         id="g464"
         transform="scale(2.04116)">
        <path
           d="m 16300,7769.55 h -2080.2 v 1348.7 H 16300 v -1348.7"
           style="fill:#eeeded;fill-opacity:1;fill-rule:nonzero;stroke:none"
           id="path466" />
      </g>
      <g
         id="g468"
         transform="scale(1.74302)">
        <path
           d="M 15211.4,14720.6 H 12775.3 V 16300 h 2436.1 v -1579.4"
           style="fill:#eeeded;fill-opacity:1;fill-rule:nonzero;stroke:none"
           id="path470" />
      </g>
      <g
         id="g472"
         transform="scale(2.04116)">
        <path
           d="m 16300,12570.5 h -2080.2 v 1348.7 H 16300 v -1348.7"
           style="fill:#eeeded;fill-opacity:1;fill-rule:nonzero;stroke:none"
           id="path474" />
      </g>
      <g
         id="g476"
         transform="scale(2.45571)">
        <path
           d="m 16300,10448.5 h -1729.1 v 1121 H 16300 v -1121"
           style="fill:#eeeded;fill-opacity:1;fill-rule:nonzero;stroke:none"
           id="path478" />
      </g>
      <g
         id="g480"
         transform="scale(2.51939)">
        <path
           d="m 6806.61,15123.4 v 0 c -141.34,0 -257,115.7 -257,257 v 662.6 c 0,141.3 115.66,257 257,257 v 0 c 141.35,0 257.01,-115.7 257.01,-257 v -662.6 c 0,-141.3 -115.66,-257 -257.01,-257"
           style="fill:#eeeded;fill-opacity:1;fill-rule:nonzero;stroke:none"
           id="path482" />
      </g>
      <g
         id="g484"
         transform="scale(1.6299)">
        <path
           d="m 14910.7,16289 c -9.7,-12.7 -5.8,-42.3 20.7,-38 l 21.3,49 -42,-11"
           style="fill:#de343e;fill-opacity:1;fill-rule:nonzero;stroke:none"
           id="path486" />
      </g>
      <g
         id="g488"
         transform="scale(1.62896)">
        <path
           d="m 15088.6,16193.2 c 16.3,10.7 34.5,25 47,43.1 12.5,18.1 19.3,39.6 11.9,63.7 -18.4,-22 -28.6,-27.7 -39.3,-34.7 -10.6,-6.9 -21.9,-15.5 -40.8,-42.5 -26.4,-3.5 -44,20.1 -38.2,38.1 -5.2,-6.1 -15.1,-2.1 -25.9,-1.2 -10.8,1 -22.4,-0.2 -30.3,-15.5 31.8,-40 72.9,-46 121,-18 8.4,-11.8 -2.3,-24 -5.4,-33"
           style="fill:#de343e;fill-opacity:1;fill-rule:nonzero;stroke:none"
           id="path490" />
      </g>
      <g
         id="g492"
         transform="scale(1.70982)">
        <path
           d="m 16300,14180.6 -3.7,15.6 c -0.3,-5.1 1.1,-10.4 3.7,-15.6"
           style="fill:#de343e;fill-opacity:1;fill-rule:nonzero;stroke:none"
           id="path494" />
      </g>
      <g
         id="g496"
         transform="scale(1.75115)">
        <path
           d="m 16300,12514.2 c -1.5,10.6 -6.4,14.9 -10.6,15.3 3.5,-9.8 6.7,-17.8 10.6,-15.3"
           style="fill:#de343e;fill-opacity:1;fill-rule:nonzero;stroke:none"
           id="path498" />
      </g>
      <g
         id="g500"
         transform="scale(1.74556)">
        <path
           d="m 16296.2,12318 c 1.7,4.9 2.5,9.1 3.8,13.6 -4.6,-5 -7.2,-10.1 -3.8,-13.6"
           style="fill:#de343e;fill-opacity:1;fill-rule:nonzero;stroke:none"
           id="path502" />
      </g>
      <g
         id="g504"
         transform="scale(1.71223)">
        <path
           d="m 16277.1,14160.7 c 0,0 2.2,-10.1 4.5,-20.1 1.9,-10.1 3.9,-20.3 3.9,-20.3 14.5,6.1 -0.5,23.1 -8.4,40.4"
           style="fill:#de343e;fill-opacity:1;fill-rule:nonzero;stroke:none"
           id="path506" />
      </g>
      <g
         id="g508"
         transform="scale(1.62425)">
        <path
           d="m 15503.3,16300 c -9.5,-0.4 -17.9,-3.3 -26,-7.7 7.7,0.5 15.2,0.7 22.8,0.3 1,2.5 1.9,4.8 3.2,7.4"
           style="fill:#de343e;fill-opacity:1;fill-rule:nonzero;stroke:none"
           id="path510" />
      </g>
      <g
         id="g512"
         transform="scale(1.66369)">
        <path
           d="m 16300,15040.2 -8.7,8.1 c -6.4,-1.8 -13.4,-4.7 -20.8,-8.3 0,0 7.4,0.1 14.8,0.2 7.4,0 14.7,0 14.7,0"
           style="fill:#de343e;fill-opacity:1;fill-rule:nonzero;stroke:none"
           id="path514" />
      </g>
      <g
         id="g516"
         transform="scale(1.62789)">
        <path
           d="m 16251.4,15670.7 c 8.6,-7.7 34.8,26.1 48.6,39.3 -15,-11.2 -26.7,-13.7 -37,-11 -4.4,-6.8 -8.3,-15.9 -11.6,-28.3"
           style="fill:#de343e;fill-opacity:1;fill-rule:nonzero;stroke:none"
           id="path518" />
      </g>
      <g
         id="g520"
         transform="scale(1.6046)">
        <path
           d="m 15767.4,16300 c 0,0 -3.9,-0.4 -7.9,-0.8 -4,-0.6 -7.9,-1.1 -7.9,-1.1 4.2,0.9 10.9,0.9 15.8,1.9"
           style="fill:#de343e;fill-opacity:1;fill-rule:nonzero;stroke:none"
           id="path522" />
      </g>
      <g
         id="g524"
         transform="scale(1.68801)">
        <path
           d="m 16300,14565.8 c -4.2,-4.6 -7.2,-9.4 -8.5,-12.8 4,3.2 6.7,7.7 8.5,12.8"
           style="fill:#de343e;fill-opacity:1;fill-rule:nonzero;stroke:none"
           id="path526" />
      </g>
      <g
         id="g528"
         transform="scale(1.59953)">
        <path
           d="m 14929,16300 c -0.2,-3.1 0.5,-5 0.6,-7.7 2.9,4.6 3.6,7.7 -0.6,7.7"
           style="fill:#de343e;fill-opacity:1;fill-rule:nonzero;stroke:none"
           id="path530" />
      </g>
      <g
         id="g532"
         transform="scale(1.58191)">
        <path
           d="m 15738.8,16300 -8.6,-2.7 c -0.6,-8.4 -1.2,-16.6 -0.8,-24.7 l 9.4,27.4"
           style="fill:#de343e;fill-opacity:1;fill-rule:nonzero;stroke:none"
           id="path534" />
      </g>
      <g
         id="g536"
         transform="scale(1.7332)">
        <path
           d="m 16298.8,11989.9 c 0.6,0.7 0.7,1 1.2,1.7 -1.8,11.8 -2.5,5.5 -1.2,-1.7"
           style="fill:#de343e;fill-opacity:1;fill-rule:nonzero;stroke:none"
           id="path538" />
      </g>
      <g
         id="g540"
         transform="scale(1.40319)">
        <path
           d="m 16269.5,13143 c 21.8,-28.4 -3.9,-36.6 -26.6,-45.8 -22.6,-9.2 -42.3,-19.9 -6.7,-54.8 -1.5,10.4 22.4,23.8 38.7,41 16.4,17 25.1,37 -5.4,59.6"
           style="fill:#de343e;fill-opacity:1;fill-rule:nonzero;stroke:none"
           id="path542" />
      </g>
      <g
         id="g544"
         transform="scale(1.62344)">
        <path
           d="m 15523.6,16299.4 c 7.4,-1.1 14.9,-2.6 22.1,-5 -9.6,4.1 -16.4,5.6 -22.1,5"
           style="fill:#de343e;fill-opacity:1;fill-rule:nonzero;stroke:none"
           id="path546" />
      </g>
      <g
         id="g548"
         transform="scale(1.39833)">
        <path
           d="m 16292.6,13087.7 -0.1,-0.4 7.5,-6.8 c -3.1,3 -4.8,4.7 -7.4,7.2"
           style="fill:#de343e;fill-opacity:1;fill-rule:nonzero;stroke:none"
           id="path550" />
      </g>
      <g
         id="g552"
         transform="scale(1.69402)">
        <path
           d="m 16279.6,11358.6 c 7,-2.8 13.7,-2.9 20.4,-2.8 -3.5,2.3 -9,3.5 -20.4,2.8"
           style="fill:#de343e;fill-opacity:1;fill-rule:nonzero;stroke:none"
           id="path554" />
      </g>
      <g
         id="g556"
         transform="scale(1.73385)">
        <path
           d="m 16300,11720.2 -11.1,-15.7 c 5.8,5.8 9,11 11.1,15.7"
           style="fill:#de343e;fill-opacity:1;fill-rule:nonzero;stroke:none"
           id="path558" />
      </g>
      <g
         id="g560"
         transform="scale(1.66875)">
        <path
           d="m 16300,11207.4 c -9.9,-4 -16.3,-1.6 -23.6,-14.6 2.3,-0.9 4.2,-1.2 6.5,-1.3 0.3,7.5 3.9,13.7 17.1,15.9"
           style="fill:#de343e;fill-opacity:1;fill-rule:nonzero;stroke:none"
           id="path562" />
      </g>
      <g
         id="g564"
         transform="scale(1.63574)">
        <path
           d="m 16278.3,11215.3 c 3.3,-2.1 7,-3.2 10.5,-4.8 3.4,2.4 7.7,4.8 11.2,7.2 l -21.7,-2.4"
           style="fill:#de343e;fill-opacity:1;fill-rule:nonzero;stroke:none"
           id="path566" />
      </g>
      <g
         id="g568"
         transform="scale(1.57456)">
        <path
           d="m 13729.9,16269.8 c 14.3,-8.4 25,-19.1 34.3,-30.3 -17.4,27.2 47.4,60.5 -34.3,30.3"
           style="fill:#de343e;fill-opacity:1;fill-rule:nonzero;stroke:none"
           id="path570" />
      </g>
      <g
         id="g572"
         transform="scale(1.62351)">
        <path
           d="m 15505.1,16284 c 5.1,9.8 10.3,14.1 17.9,14.8 -5.4,0.7 -10.7,1 -15.9,1.2 -2.7,-5.9 -4.4,-11.6 -2,-16"
           style="fill:#de343e;fill-opacity:1;fill-rule:nonzero;stroke:none"
           id="path574" />
      </g>
      <g
         id="g576"
         transform="scale(1.68868)">
        <path
           d="m 16300,10814.3 c 0,0 -16.1,-10.9 -32.2,-21.9 -8.1,-5.5 -16,-11 -22.3,-14.8 -6.3,-3.9 -10.4,-6.4 -10.4,-6.4 20.2,9.3 43.1,25.8 64.9,43.1"
           style="fill:#de343e;fill-opacity:1;fill-rule:nonzero;stroke:none"
           id="path578" />
      </g>
      <g
         id="g580"
         transform="scale(1.30361)">
        <path
           d="m 14548,16280.4 -12,19.6 c 1,-8.5 4.7,-15.7 12,-19.6"
           style="fill:#de343e;fill-opacity:1;fill-rule:nonzero;stroke:none"
           id="path582" />
      </g>
      <g
         id="g584"
         transform="scale(1.6621)">
        <path
           d="m 16300,10809.4 c -19.7,5.9 -36.9,6.3 -53.1,3.9 -1.3,-4.5 -3.4,-8.6 -3.2,-13.9 l 56.3,10"
           style="fill:#de343e;fill-opacity:1;fill-rule:nonzero;stroke:none"
           id="path586" />
      </g>
      <g
         id="g588"
         transform="scale(1.56871)">
        <path
           d="m 13815.8,16299.7 c -0.2,0 -0.3,0.3 -0.3,0.3 0,0 0.1,-0.3 0.3,-0.3"
           style="fill:#de343e;fill-opacity:1;fill-rule:nonzero;stroke:none"
           id="path590" />
      </g>
      <g
         id="g592"
         transform="scale(1.77667)"
         style="fill:#000000">
        <path
           d="m 11561.4,13719.1 c -10.6,-15.6 -20,-13.4 -27,-8.8 6.3,5.8 13.1,13.3 21.7,23.6 -0.5,1.4 -0.6,3.4 -1.2,5 3.2,-7 6,-13.6 6.5,-19.8 z m -370.8,30.5 c 12.2,10 26,23.9 40.9,38.2 12.6,-6.7 18.7,-20.1 8.9,-28.3 -0.6,5.5 -7.8,4.7 -17.4,1.5 -9.5,-3.2 -21.6,-8.6 -32.4,-11.4 z m 92.9,89.3 c -0.2,0.3 -0.4,0.6 -0.5,0.6 9.3,9.5 17,17.8 22.2,22.7 -4.7,-4.6 -10.9,-11.4 -21.7,-23.3 z m 1327.4,762.3 c -64.6,-13.4 -19.3,-55.9 -26.4,-87.6 -72,-31.6 -43.4,28.7 -75.5,48.2 -5.6,-3 -10.9,-6.5 -15.9,-10.3 -5,-3.9 -9.7,-8.3 -14.3,-12.7 -9.1,-8.9 -17.4,-18.4 -25.4,-27.3 -16.1,-17.9 -30.9,-33.4 -48.6,-37 -4.8,7.4 -12.5,8.6 -7.3,20.9 -9.8,-12.9 -23.7,-22.7 -39.9,-30.5 -16.1,-7.7 -34.5,-13.7 -53,-20.2 -9.3,-3.2 -18.6,-6.5 -27.6,-10.2 -9,-4 -17.7,-8.3 -26,-13.3 -16.5,-9.9 -30.9,-22.2 -40.9,-39.1 -5.6,3 -9.2,6.3 -11.5,9.7 17.5,-21.3 27.2,-45.6 31.3,-63.8 -13.4,-5 -23.3,-16.8 -32.5,-23.8 -9,-7.3 -17.4,-9.9 -28.1,4 16.8,5.1 13.6,18.4 17.9,31 0,0 -5.8,-6 -11.8,-12 -5.8,-6 -11.7,-11.9 -11.7,-11.9 -42.1,35.8 33.2,29.9 21.6,63 -12.8,-8.2 -25.6,-18.9 -38.3,-29.5 -12.6,-10.8 -25.2,-21.5 -37.5,-32.1 -12.3,-10.2 -24.5,-19.3 -36.4,-26.3 -12,-7.1 -23.7,-11.9 -35.5,-13.1 -13.5,20 9.6,33.8 27.2,44.6 17.6,10.3 29.8,17.9 -6.5,26.3 0,0 18.2,2.2 36.4,4.5 18.2,2.3 36.4,4.1 36.4,4.1 -77.2,50.8 42.8,10.1 -32.2,67.3 -47.2,-10.4 -70,-25.9 -92.3,-41.7 -22.5,-15.6 -44.4,-31.5 -90.6,-44.5 -8.6,-32.7 22.2,-32.4 13.9,-65.1 -25.2,-24.3 -46.3,-32.9 -65.5,-33.5 -9.6,-0.3 -18.7,1.5 -27.4,4.3 -8.7,2.6 -16.9,6.3 -24.9,10 -31.9,14.7 -60.3,29.4 -89.1,-22 -3.8,-19.9 -0.5,-44.1 -5.6,-64.2 -5.1,-20.1 -18.7,-35.4 -56.4,-39.8 0,0 -1.7,14.5 -3.4,29 -1.6,14.5 -3.2,29.1 -3.2,29.1 -41,-21.4 -42.4,-44.5 -45.7,-64.9 -1.7,-10.1 -3.9,-19.5 -12,-27.5 -4,-4.1 -9.5,-7.8 -17,-11.2 -7.5,-3.5 -17.1,-6.7 -29.6,-9.5 1.4,13.3 13.8,27.2 24.4,36.8 10.6,9.7 18.9,15.9 11.3,14.8 -37.7,1.3 -42.9,-11.6 -43.5,-27.2 -0.7,-15.9 3.1,-34.9 -16.4,-48.1 l -34.8,33.2 c -19.2,-15.5 -38,-32.8 -56,-51.7 -9.1,-9.4 -18.2,-18.8 -27,-28.7 -8.8,-10.1 -17.6,-20.1 -26.4,-30.3 -9,-10 -17.5,-20.5 -26.3,-30.9 -8.8,-10.3 -17.6,-20.6 -26.4,-30.9 -17.4,-21 -35.7,-40.9 -54.1,-60.8 -5,14.3 -0.7,38 -29.4,31.6 -43.6,-55 -96.9,-105.1 -152.5,-154.1 -55.5,-49.1 -113.2,-97.1 -165.3,-144.1 0,0 0.5,-16.6 1,-33.1 0.2,-8.1 0.8,-16.5 1.1,-22.7 0.4,-6.1 0.6,-10.3 0.6,-10.3 -7.1,-9.5 -27.8,-7.9 -26.9,7.4 -43,-35.3 19.8,-16.9 18.6,-46.8 -13.8,-26.2 -41,-20.3 -40.9,2.5 -11.6,-48.7 -29.6,-114.9 -52.5,-177.5 -23.4,-62.5 -50.2,-122.6 -88.8,-160 0,0 -1.1,5.7 -2.2,11.2 -1,5.6 -1.9,11.2 -1.9,11.2 -11.3,-16.2 -13.2,-31.8 -11.8,-46 1.5,-14.3 6.9,-27.6 11.9,-40.3 2.5,-6.4 4.8,-12.6 6.5,-18.8 1.9,-6.2 3.1,-12.4 3.1,-18.6 0,-12.5 -4.9,-25.1 -19.2,-38.9 l -2.8,15 c -17.5,-37.5 -28,-78.3 -38.8,-118.8 -8.4,-41.1 -17,-82.1 -22.9,-122.3 -1.7,-10 -3.4,-19.9 -5.3,-29.7 -0.9,-4.9 -1.8,-9.8 -2.8,-14.7 -0.8,-4.8 -1.6,-9.7 -2.3,-14.5 -3.4,-19.2 -7.2,-38 -12,-56.2 -2.4,-9.1 -4.8,-18.1 -7.1,-26.9 -2.4,-8.8 -5.1,-17.5 -8.1,-26 -5.9,-16.9 -13.5,-33.2 -21.6,-48.8 14.5,-6.6 19.9,-19.8 21.2,-36.3 0.6,-8.3 0.2,-17.4 -0.6,-26.9 -0.5,-4.7 -1,-9.5 -1.5,-14.4 -0.5,-4.8 -0.8,-9.7 -1.1,-14.6 -2.6,-38.9 -2.8,-76.6 38.9,-79.5 -8.5,-23.4 -16,-39.7 -22.5,-52.9 -6.6,-13.2 -12.7,-23.3 -17.3,-34.5 -4.9,-11.3 -9.2,-23.8 -13,-42 -1.9,-9.1 -3.7,-19.6 -5.4,-32.2 -1.6,-12.5 -2.4,-27 -3.3,-44.1 0.9,-18 15.5,-29.2 31.8,-40.8 16.7,-11.5 35.2,-23.4 43.5,-43.6 l -41.7,-9.4 c 0,0 13.8,-12.3 27.6,-24.5 6.8,-6.1 14.2,-12 19.5,-16.4 5.4,-4.3 9,-7.3 9,-7.3 0,0 -10.7,-10.4 -21.4,-20.9 -10.6,-10.6 -21.2,-21.3 -21.2,-21.3 0,0 5,-9.3 10,-18.7 4.9,-9.3 10.4,-18.4 10.4,-18.4 -2,16.3 10.5,38.3 22.8,38.7 4.3,-7 7.4,-14.8 9.9,-22.9 2.7,-8.1 4.7,-16.5 6,-25.2 2.4,-17.3 2.2,-35.2 0.3,-51.9 -3.2,-33 -12.7,-60.6 -23,-64.8 0,0 5.1,-8.3 12.6,-20.8 7.4,-12.6 18.4,-28.8 28.9,-45 10.7,-16.2 21.2,-32.3 29.3,-44.2 8.4,-11.8 14,-19.7 14,-19.7 -17.2,-3.2 -32.4,17.9 -49.2,33.1 8.6,-7.6 14.4,-13.8 18.2,-18.7 4,-5 5.8,-8.9 6.3,-12.1 0.9,-6.4 -3.8,-10 -8.8,-13.5 -9.8,-6.9 -20.4,-13.4 12,-40.3 5.3,12.9 25.7,4.7 34.2,6.6 -2.7,-11 -2.3,-24 0.2,-38.1 2.5,-14.1 7,-29.5 12.9,-45.1 5.7,-15.7 13.6,-31.2 22.1,-46.1 8.5,-14.9 17.7,-29.1 27,-41.8 l -31.6,-2.5 c 5.2,-13.2 11.5,-26 18.2,-38.8 6.7,-12.9 13.7,-25.6 21.2,-38.5 7.2,-12.9 15.3,-25.4 23.6,-38 8.4,-12.5 16.8,-25.1 25.4,-37.7 8.4,-12.8 17.7,-25.1 26.7,-37.6 9.1,-12.5 18.2,-25.1 27.3,-37.7 18.3,-25.2 37.2,-50.2 54.6,-76.4 -14,45.2 34.5,64.8 58.4,38.1 l -28.7,-37.7 c 36.6,-2.7 -8.1,40.3 47.9,21.4 22.4,-39.8 -23.4,-55.4 -51.2,-42.1 l 46,-36.6 c -8.9,-10.8 -22.4,-4.2 -38.3,-11.7 17.9,-1.3 24,-27.4 33.1,-53.4 4.6,-13 10,-25.9 17.9,-35.3 7.9,-9.4 18.8,-14.9 33.6,-13.8 l -8.4,-11 c 40.1,-49.2 74.4,-80.5 106.3,-109.5 16.4,-14.2 32.4,-27.6 48.8,-42.1 4.1,-3.6 8.2,-7.3 12.4,-11.1 4.3,-3.6 8.6,-7.3 13.1,-11.2 8.7,-7.6 17.8,-15.7 27.3,-24.4 14.2,13.4 27,11.6 41.5,6.7 14.6,-4.9 31.7,-12.1 53.3,-10.5 11.7,-14.6 22.7,-30.8 34.6,-46.8 12,-16.1 24.3,-32.7 37.3,-49.4 3.3,-4.1 6.6,-8.3 9.9,-12.4 3.4,-4.1 6.9,-8 10.4,-12 7.1,-7.9 14.5,-15.7 22,-23.3 7.7,-7.6 15.6,-15.1 23.9,-22.3 8.3,-7.2 17.2,-13.6 26.5,-19.9 61.8,-21.4 34.2,15.8 70.3,18.1 -17.6,-31.9 57.5,-79.3 5.1,-74.2 45.4,-28.5 75.4,-44.9 109.4,-61.6 17,-8.1 35.5,-15.5 57.5,-24.1 11.2,-4.1 23,-8.9 36.4,-13.3 13.4,-4.3 28.1,-9.1 44.3,-14.3 -5.4,19.8 -16.1,33.3 -2.8,39.7 23.6,-6.8 39.9,-40.1 28.7,-53.4 h -7.3 c 19.5,-3.4 38.3,-9.4 56.2,-18 8.9,-4.3 17.7,-9.2 26.4,-14.5 8.7,-5.2 17.3,-10.8 25.8,-16.7 17,-12 33.4,-25.7 49.9,-39.5 16.5,-13.7 32.9,-28 49.2,-42.2 65.3,-55.6 131.9,-106.2 201.3,-92.8 l -7.6,-1 c 0,0 8.1,-0.6 20.2,-1.4 12.2,-0.8 28.2,-2.1 44.4,-2.6 32.2,-1.4 64.4,-2.8 64.4,-2.8 25.5,-12.2 15.5,-15.6 2.8,-20.5 -12.6,-4.8 -27.7,-10.6 -11.4,-28.2 36.5,3.4 66.8,0.3 93.9,-5.8 27.1,-5.8 50.9,-15.1 73.8,-24.6 23.2,-9.1 45.4,-18.6 69.2,-25.4 23.7,-6.6 49.1,-9.9 77.9,-7.4 13.6,-31.1 39.2,-50 71.1,-63.4 15.9,-6.8 33.5,-11.4 51.9,-15.4 18.5,-3.8 37.8,-7.07 57.5,-9.44 19.7,-2.36 39.5,-4.72 59.2,-7.14 19.6,-2.65 38.9,-5.01 57.3,-8.84 36.8,-7.77 70.2,-18.8 95.7,-40.24 l -2.5,25.49 c 33,18.8 32.8,-19.81 53.5,-28.76 -0.1,19.42 -28.1,26.79 -7.9,37.26 125,-4.84 250,-29.21 377,-56 126.7,-26.91 255.3,-55.84 382.5,-70.13 46.6,-4.51 60.5,27.18 77,52.45 16.6,25.39 35.4,43.51 94,14.3 l -33.4,-45.93 c 94.4,27.19 191,28.82 288.7,33.83 24.4,1.52 48.8,2.93 73.2,4.84 24.4,2.37 48.7,5.18 72.8,8.72 24.2,4.17 48.2,9.18 71.7,15.31 23.5,6.65 46.7,14.81 69.2,24.37 -9.4,-12.26 -7.4,-25.89 -26,-28.7 11.4,-6.59 26.5,-8.56 42.6,-7.04 16.2,1.86 33.3,6.93 48.8,13.63 7.7,3.32 15,7.09 21.6,11.03 6.5,4.22 12.3,8.55 17,12.89 9.5,8.66 14.7,17.11 13.4,23.8 30,3.83 12.4,-22.34 34,-31.46 11.3,-2.59 22.7,0.79 33.8,6.53 11.1,5.69 21.8,13.73 32.1,21.16 20.5,14.53 38.3,28.67 54,16.05 5.2,-4 -8,-13.91 -14.7,-18.75 5.4,5.97 15.8,11.15 27.7,15.99 11.9,5.01 25.6,9.06 37.2,14.48 23.3,10.5 39,21.2 20,34.7 38.1,3.6 69.5,22.3 98.9,38.7 7.4,4 14.5,8.6 21.6,12.7 7.2,4.2 14.2,8 21.5,11.4 14.3,6.9 29.3,11.3 45,13.5 3.6,14.2 12.9,23.9 24.6,31.4 11.7,7.6 26.1,13 38.9,19.3 25.7,12.3 48,24.7 36.5,53.7 14.6,-27.9 48.8,-20.6 82.1,0.8 16.1,11.1 31.9,25.6 44.8,40.4 12.8,15 22,30.9 26.5,43.8 -0.4,-24.6 44.1,10.2 46.5,-21.5 20.6,17.5 37.8,37.2 46.6,54.1 8.9,17 8.2,32 -5.9,40.7 15.1,1.4 28.2,5.2 39.6,10.9 11.4,5.7 21.1,13.1 29.1,21.9 8.2,8.8 15.1,18.4 21.3,28.4 6.3,10 11.8,20.2 16.7,30.4 10.2,20.2 19.8,38.7 33.4,50.9 13.3,12.4 31.1,18.4 58.4,13.2 37.6,71 71.1,138.7 102,204.3 30.5,65.8 58.8,129.1 86.1,191.3 25.9,-17.4 8.4,-51.1 -8.8,-83.3 -17.6,-32.1 -34.4,-63.2 -5.5,-78.5 24.9,62.8 34.3,117.1 45.9,168.7 5.6,26.1 12.7,50.9 22,76.3 9,25.6 21.7,51 38.7,78.1 21.5,26.4 17,-28.7 21,-43.5 4.5,15.9 9.1,31.6 14.2,46.8 5.2,15.2 10.9,30 16.9,44.5 11.7,29.1 23.6,57.5 35.7,85.4 11.4,28.2 21.8,56.3 30.3,84.6 7.7,28.5 12.9,57.6 14.2,87.2 5.4,-2 7.4,-15.8 8.1,-28.4 5.8,22 25.3,47.3 -2.6,53.5 l 0.8,-23.4 c -12.7,-5.3 -22.4,-0.8 -30,8.7 -7.9,9.6 -13.9,24.5 -19.1,40.1 -10.4,31.4 -16.9,65.9 -27.2,70.8 34.2,-29.2 46.4,-4.2 60.6,17.8 14.1,21.8 30.2,41.1 72,-1.5 -1.2,15.9 -9.3,37.2 -28.7,38.6 10.5,19.8 22.9,24.1 38.7,-3 2,41.4 -6.1,56.6 -12.5,70.4 -6.2,13.8 -11.3,26.2 -3.6,61.5 13.4,-3 15.6,-18.5 29.9,-29.3 -9.3,21 -18.7,41.7 -22.8,64.4 -4.5,22.7 -4.3,47.3 6.8,76.4 7.6,-5.1 19.5,0.2 16.1,-17.8 3.9,26.1 2.2,51.1 -0.9,75.3 -1.6,12 -3.5,24 -5.5,35.7 -2.1,11.8 -4.8,23.6 -7,35.4 -2.2,11.7 -4.2,23.5 -5.7,35.4 -1.4,11.8 -2.2,23.8 -2.7,36.2 -0.8,24.6 2.2,50.1 10.6,78.1 58,-37.6 21.7,37.6 73.7,41.3 0,0 -3.1,15.8 -6.1,31.6 -3.6,15.7 -7.1,31.5 -7.1,31.5 l -25.6,-24.2 c 1,27.1 -7.7,52.8 -14.4,77.3 -7.2,24.5 -12.9,47.6 -4.6,70.9 l 21.8,-39.9 c 0,0 -2.7,25.4 -5.5,50.7 -1.2,12.7 -3.3,25.3 -4.5,34.7 -1.3,9.5 -2.2,15.8 -2.2,15.8 0,0 -4.3,-14.5 -8.6,-28.9 -2.2,-7.3 -4.3,-14.4 -6.2,-19.8 -1.8,-5.4 -3,-9 -3,-9 -6.7,13.4 -14.3,19.6 -21.7,22.5 -7.3,2.9 -14.2,2.5 -19.9,2.6 -11.2,0.4 -17.4,2.9 -11.7,38.2 3,-7 2.6,6.1 5.2,24.7 2.5,18.6 6.8,42.6 21.2,57.5 0,0 0,-0.1 0.1,-0.1 -9.2,12.5 -18.5,25.1 -24.4,39.5 -6.3,14.4 -9.2,30.6 -4.8,50.7 15.5,12 57.8,-2.1 68.1,5.7 -11.4,5.4 -18.7,15.9 -24,28.9 -5.6,13 -9.3,28.6 -13.1,44.4 -3.9,15.7 -7.6,31.7 -14,45.2 -6.6,13.5 -15.2,24.7 -27.9,30.9 12.5,-9 39.4,-5.3 44.3,-0.8 l -38.4,15.8 c 7.1,26.3 11.8,30.9 33.8,30.8 -3.8,37.6 -19,28.5 -31.6,21.9 -12.6,-6.6 -22.9,-11.2 -17.6,34.8 4.2,-6.3 8.7,-2 16.7,-15.1 -0.8,45.2 -16.8,85.9 -31.3,125.5 -16,39.3 -30.5,77.7 -34.5,119 21.5,19.1 29.7,2.8 36.9,-13.4 7.3,-16.2 12.6,-32.7 30.2,-13.1 -10.6,28.2 -24.5,55.9 -39.1,83.4 -15.6,27.2 -31.9,54.1 -48.1,80.7 -16.9,26.3 -32.3,52.8 -46.6,79.2 -7.2,13.2 -13.8,26.4 -19.6,39.8 -5.9,13.4 -10.7,27 -15.3,40.6 0,0 0.9,-5.4 1.7,-10.9 0.9,-5.4 1.5,-10.9 1.5,-10.9 -36.7,-7.1 -37.1,15.3 -35.1,45.1 0.9,14.8 2.7,31.6 0,46.8 -2.7,15.2 -9.1,29.1 -23.2,38.2 11.1,-10.2 44.9,1.2 35.8,1.1 -24,76.6 -89.9,136.6 -172.3,223.8 l 23.8,-2.4 c -2.6,12 -7.4,24.9 -13.5,38.1 -6.4,13 -14.3,26.3 -22.3,39.6 -8.2,13.2 -16.4,26.5 -24.3,39.2 -8.1,12.5 -15.4,24.7 -21,36.1 -24.1,1.1 -38.2,25.8 -50.2,-4.5 -0.1,5.8 -0.4,11.5 -0.9,17.1 -0.6,5.5 -1.5,10.7 -2.5,15.9 -2,10.4 -4.8,20.2 -8.2,29.4 -3.5,9.3 -7.5,18.1 -12.1,26.3 -2.2,4.2 -4.6,8.3 -7.2,12.2 -2.6,3.8 -5.3,7.6 -8.2,11.2 -22.9,29.2 -51.7,52.5 -81.8,73.3 -14.9,10.5 -29.7,20.9 -44,31.4 -14.5,10.5 -28.2,21.3 -40.4,33.4 -6.1,6 -11.9,12.4 -17.2,19.2 -5.4,6.6 -10.5,13.5 -15,21.1 -9.1,15.1 -16,32.2 -20.4,52.3 11.7,-11.4 39.4,-15.8 30.1,-6.5 0,0 -5.9,4.4 -14.8,11 -4.5,3.2 -9.7,7.1 -15.3,11.1 -5.7,3.9 -11.7,8.2 -17.9,12.3 -24.2,16.7 -48.5,33.5 -48.5,33.5 -14.9,-30 -1.9,-24.9 -1.3,-59.6 -23.6,-3.9 -56.7,7.2 -77.9,25.3 52.5,-17.7 34.1,38.6 28.7,67.2 -3.6,-9.9 -16.5,-13 -21.6,-21.8 -2,20.6 -6.2,28.4 -11.8,29.6 -5.6,1.1 -12.7,-4.3 -20.7,-9.6 -16,-10.8 -35.3,-21.8 -54.3,18.7 l 13.9,10.4 c -7.2,3.1 -14.8,5.6 -22.6,7.8 -7.8,2.1 -15.8,3.8 -23.5,6 -15.5,4.3 -30.1,10.1 -41.5,22 11.6,37.9 36,-6 56.4,16.8 -9.5,6.7 -21.5,10.1 -34.2,12.2 -6.3,1 -12.9,1.8 -19.5,2.4 -6.5,0.6 -13.1,1.1 -19.5,1.8 -25.5,2.8 -47.3,8.9 -53.5,36.3 21.8,-3 44.7,-19.5 66.8,-22.7 -5.6,30.9 -11.4,45.1 -18.5,54.7 -7.2,9.5 -15.7,14.7 -28,27.1 l 2.1,-2.7 c 0,0 -13.6,15.2 -27.3,30.5 -6.9,7.7 -13.9,15.4 -19,21.1 -5.2,5.8 -8.8,9.5 -8.8,9.5 0,0 2.7,-5.2 5.3,-10.6 2.6,-5.3 5.2,-10.6 5.2,-10.6 -25.5,-11.7 -45.2,-15.1 -61.7,-13.1 -16.6,2.1 -30.1,9.3 -43.7,17.7 -13.5,8.5 -27.5,17.5 -44.1,23.9 -8.3,3.1 -17.2,5.6 -27.2,6.7 -9.9,1.2 -20.8,1 -33.2,-1.3 23.9,4.2 37.3,6.8 44.9,10.3 7.5,3.4 8.9,6.9 8.1,11.1 -1.6,8.5 -12,19.5 1,36.2 -11.7,20.2 -32.7,46.5 -19.2,52.6 -24.8,-5.8 -35.2,7.9 -48.7,20.4 -13.6,12.3 -30.1,23.9 -65,13.9 2,6.6 -6.8,11.5 -13.4,18 -6.6,6.3 -10.9,14.4 0.4,27.8 -49.4,11.7 0.3,-26.2 -11,-39.6 -44.2,-4.7 -77.4,27.2 -117.4,57 -9.9,7.6 -20.2,15.2 -31,22.1 -11,6.6 -22.4,12.7 -34.5,17.5 -12.1,4.8 -25,8.4 -38.6,10.2 -13.6,1.8 -28.3,1.2 -43.7,-1.5 -24.2,1.8 -44,1.1 -61.9,-1.7 -17.8,-2.9 -33.4,-7.1 -48.6,-11.3 -15.3,-4.3 -30.1,-8.2 -46.6,-11.5 -16.6,-3.3 -34.7,-5.4 -56.3,-5 -10.6,14.4 -1.8,24.7 10,31.3 11.7,6.6 26.2,9.5 26.2,9.5 -38.8,32.7 -74.4,37.6 -120.4,33.6 11.4,9.2 5.1,21.5 -4.6,39.2 -35.6,4.5 -34.1,-42.8 -75.1,-13 10.9,13 26,34.3 46.3,45.2 -44,-2.2 -89.8,-19.8 -134.1,-23.6 -7.2,25.4 31.9,30.3 50.1,42.5 -12.6,-0.2 -27,-0.4 -41.8,-0.6 -14.8,-0.6 -30,-1.9 -44.3,-4 -28.5,-4.3 -53,-12.5 -63,-30.3 0,0 7.3,-4.2 14.4,-8.6 7.2,-4.5 14.3,-9 14.3,-9 -17.5,1 -4.4,33.2 9.6,37.8 45.9,22.4 57.5,-22.1 57.2,-35.9 l -31.5,-3.8 c 4.5,-20.8 14.3,-31.5 27.4,-36.3 13,-5.2 29.4,-4.3 47.3,-1.4 35.8,6.5 77.5,18.8 107.1,9.9 0,0 -9.5,-12.7 -19,-25.3 -9.3,-12.7 -18.7,-25.4 -18.7,-25.4 0,0 17.8,8.3 35.6,16.5 9,4.2 18,8.1 24.8,10.9 6.7,2.9 11.2,4.8 11.2,4.8 9.4,-17.9 9.8,-51.4 -21,-52.3 17.3,-19.2 27.7,-16.6 37.3,-14.3 9.7,2.3 18.7,4.8 32.1,-15.6 2.6,-6 0.1,-8.1 -4.1,-9.2 l 44.8,4.7 c -11.3,-9.4 -5,-41 -27.1,-25.8 15.5,-13.3 31.1,-19.4 46.1,-21.9 14.9,-2.9 29.3,-2.3 42.3,-1.6 25.8,1.4 46.4,3.6 52.1,-22 l -7,-1.3 c 51.6,-8.3 57.9,0.7 62.2,14.4 2.1,6.8 3.9,14.9 10.8,22.4 6.9,7.4 19.1,14.9 42.1,18.9 0,0 3,-29.4 5.6,-58.5 2.5,-29.2 4.5,-58.2 4.5,-58.2 l 25.6,35.4 c 9.4,-5.4 27.6,-17.1 17.3,-31 48,10.7 1,19.7 33.2,35.5 8.1,-14.1 20.7,-23.6 34.9,-31.2 14,-7.9 29.6,-13.8 43.6,-20 28.4,-12 50,-26.6 39.8,-59.3 31.2,20.3 -32.9,44.8 26.5,39.6 -9.4,-36 6,-40.5 27.5,-42.4 21.1,-2.4 48.4,-2.8 61,-28.7 -31.2,-25.6 -59.9,12.9 -35.4,-38.8 13.8,10.5 25.3,12.1 35.5,8.7 9.9,-3.6 18.4,-12.6 26.3,-23 15.7,-20.9 29.1,-47.3 48.6,-52.9 14.1,20.9 35.1,13.8 60.6,-1.1 12.8,-7.5 26.2,-17.7 40.7,-26.9 14.4,-9.5 30.1,-17.9 45.9,-24.4 -6.6,-5.7 14.7,-29.7 42.1,-58.4 26.8,-29.6 60,-63.8 77.3,-90.6 l -6.7,-5.4 c 20.6,16 41.7,12 63,1.3 20.8,-11.2 41.7,-29.2 62.6,-40.5 -21.8,-21.5 -36.1,-25 -63.6,-19 l 32.3,-28 c 18.3,5.3 33.9,2.4 58.4,-12.5 l -34,-20.3 c 10.7,-9.4 23.3,-16.7 36.5,-24 13,-7.5 26.8,-14.5 40.5,-22.7 27.7,-15.8 53.1,-37.4 69.1,-72.7 14.5,10.6 22.6,38 35.7,58 13.1,19.8 31.9,32.4 68.1,10.3 -12.2,-15.3 -34.5,-39.2 -54.4,-29.2 6.6,-3.2 28,-7.5 31.1,-23.3 l -44.9,2.1 c 11.9,-34.9 31.8,4.8 47.7,-17.7 -21,-17.7 -1.4,-28 -20.4,-39.3 -6.5,3.3 -7.1,25.1 -21.9,25.7 8.2,-13.1 15.3,-29.1 19.4,-44.7 4,-15.5 4.4,-31 0.3,-42.2 10.3,12 28.2,23.8 45.2,8.9 19.1,-21.5 15.8,-30.4 8.9,-38.4 -6.8,-7.9 -17.1,-14.8 -12.5,-32.1 23.4,0.9 29.8,-39.6 63.1,-15.7 10.1,-13.4 -3.7,-27.5 -8.8,-39.2 7.9,-3.2 17.1,-11.6 26.8,-21.6 9.7,-10 20,-21.4 29.1,-31.2 18.4,-19.5 35.4,-30.9 44.1,-4.9 l -1.9,8 c 1.5,-0.7 2.5,-2.1 4.2,-3.1 -0.1,0.2 0,0 -0.1,0.2 l 0.1,-0.2 c 11.1,-7.3 21,-15.7 29.8,-24.9 8.6,-9.3 16,-19.6 22.7,-30.3 6.8,-10.7 12.7,-22 18.2,-33.6 5.7,-11.5 10,-23.7 14.6,-35.8 8.9,-24.1 17.8,-48.2 26.6,-72.1 4.6,-11.8 9.7,-23.1 15.5,-34 2.9,-5.4 6,-10.7 9.4,-15.9 3.1,-5.3 6.5,-10.4 10.2,-15.3 l -12.4,-6 c 19.6,-22.5 36.5,-50.1 52.1,-76.1 8,-12.9 16.3,-25.3 25.2,-36 9.1,-10.6 18.1,-20.2 29,-26.9 6.6,-16.2 -7.7,-47.1 -25.7,-46.4 13.4,-18.3 23.4,-27.7 30.8,-40.7 3.6,-6.5 6.5,-13.9 8.6,-24 1.9,-10.1 3.6,-22.6 3.1,-39.6 -9.1,8.6 -14.8,11.4 -18.2,11.8 -3.4,0.5 -4.6,-1.4 -5.2,-2.6 -1.1,-2.2 0.3,-1.5 -8.5,27.4 2.1,-14.4 2.9,-26.2 3.3,-36.8 0.3,-10.7 0.5,-19.9 2.3,-28.7 1.7,-8.9 5,-17.2 11.2,-26.4 6.3,-9.1 15.6,-18.9 28.8,-30.9 -19.8,4.8 -27.2,-8.7 -27.6,-26.1 -0.5,-17.4 6.6,-38.5 15,-50 0,0 3.6,11.2 6.6,22.4 3.2,11.2 6.4,22.5 6.4,22.5 14,-27.5 17.5,-54.2 21.6,-81 l -48.4,2.2 c -3.2,-15.6 -3.2,-29.9 -1.1,-43.3 1.7,-13.5 5.5,-26.2 10.8,-38.2 5.3,-12.1 12,-23.6 19.2,-34.8 6.8,-11.3 14.2,-22.3 21.3,-33.2 7,-10.9 13.7,-21.8 19.3,-32.7 5.6,-10.9 9.3,-22 11.3,-33.3 2,-11.3 1.9,-22.8 -1.2,-34.6 -1.5,-5.9 -3.8,-11.8 -6.9,-17.9 -3.3,-6.1 -7.4,-12.2 -12.5,-18.4 18,-12.8 21.5,3.5 25.7,20.3 3.7,16.9 7.9,34.4 28.8,23.8 0.3,-6.8 -0.2,-13.7 -1.6,-20.7 -1.4,-7 -3.6,-14 -6.3,-21 -5.3,-13.9 -12.4,-27.4 -19.5,-39.7 -14,-24.5 -29,-44 -28.1,-52.1 -9.1,-36.9 9.6,-51.7 28.4,-67.7 9.5,-7.8 19.4,-16 26,-26.9 3.4,-5.5 6,-11.7 7.3,-19 1.4,-7.3 1.5,-15.6 -0.4,-25.3 16,10.5 59.5,22.9 77.5,-35.3 -1.1,-13.8 -5.5,-25 -12.3,-33.5 -6.9,-8.5 -15.7,-14.3 -24.8,-17.2 -18,-6 -37.2,-0.8 -43.9,15.8 -1.8,12.8 3.1,19.1 8.7,18.7 -6.7,17.1 -14.7,39.3 -31.7,17.6 l 16.8,-6.3 c -4,-6.7 -6.6,-16.3 -8.8,-26.6 -2.5,-10.4 -4.6,-21.4 -7,-31.2 -4.8,-19.3 -11,-33.2 -24.6,-24.7 16.2,-39.6 27.3,-17.2 35.4,12.7 -11.1,-34.1 -12.1,-60.4 -11.9,-87.2 0.7,-26.7 0.7,-53.8 -9,-88.1 9.6,10.5 29.4,19.8 28.7,8.7 -3.2,-12.8 -5,-23 -6.2,-31.4 -1.2,-8.3 -1.4,-14.8 -0.7,-20 1.3,-10.3 5.6,-15.3 10.9,-19.4 10.6,-8.1 25.3,-12.4 25.6,-48.1 -29.5,-37.3 -58,20.4 -45,-51.9 -22,-40.4 -44.3,-3.3 -55.9,14.7 3.1,-8.3 4.9,-16.3 5.6,-24 0.5,-7.7 -0.1,-15.2 -1.4,-22.3 -2.6,-14.3 -8.3,-27.5 -15,-39.6 -6.6,-12.1 -14.9,-22.9 -22,-33 -7.1,-9.9 -13.2,-19 -16.1,-27.5 l -7.5,34.3 c 4.5,-20.4 1.5,-36.1 -1.4,-52.1 l 35.7,12.5 c -4.6,-9.1 -7.5,-17.6 -11.1,-23.5 -3.8,-5.9 -7.9,-9.1 -14.6,-7.6 8.5,-11.8 22.7,-10.8 37.4,-12.3 14.7,-1.5 29.9,-5.5 40.2,-28.4 -11,-11.2 -10.4,-31.9 -13.4,-49.7 -3.1,-17.7 -9.1,-32.6 -31.3,-31.8 16.8,38.4 5.6,38.7 -8.7,37.9 -7.1,-0.3 -15,-0.8 -20.5,3 -5.6,3.9 -8.5,11.9 -6.9,29.1 2.7,-14.1 -1.5,-29.8 -11.7,-47.2 -5.4,-1.7 -8.1,4.7 -9.4,10.4 -55.9,-65.2 40,-46.3 17.7,-124.6 -21,16.5 -49.8,-5.1 -48.9,-18.8 10.1,30.5 44.2,3.4 53.2,-31.1 -17,-22.2 -17.5,-36.9 -15.8,-49.2 1.8,-12.2 6.5,-22.4 1,-35.1 l 18.8,27 c 19.8,-17.9 8.2,-42.2 3.1,-79.9 -18.8,3.4 -1.3,36.3 -13.5,26.6 3.4,-6.7 4.8,-12.9 4.7,-18.7 -0.2,-5.7 -2.1,-11 -4.9,-16.1 -5.7,-10.3 -15.8,-19.4 -26.3,-28.9 -20.8,-19 -45.1,-37.9 -42.7,-69.8 -25.4,-17.5 -43.5,16 -62.6,-0.4 1.6,-34.8 -13.3,-46.8 -28.7,-58.5 -3.8,-2.9 -7.7,-5.8 -11.5,-9.1 -3.8,-3.2 -7.5,-6.7 -10.7,-11.1 -6.6,-8.5 -11.4,-20 -12.8,-37.5 37.9,1.6 32.5,8.8 40.1,-47.8 0,0 0.5,1.6 1.3,4.6 0.7,3 1.8,7.2 3.2,12.3 2.6,10.1 6.2,23.6 9.6,37.1 3.5,13.6 7.2,26.9 9.3,37.1 2.3,10.2 3.8,17 3.8,17 0,0 0.9,-5.2 2.3,-13.1 1.2,-7.8 3.3,-18.5 4.6,-28.9 2.8,-21.2 5.7,-42.3 5.7,-42.3 7.6,14.9 11.3,32.8 13.7,49.2 2.6,16.5 4.9,30.9 11.7,38.8 10.4,-41.9 4.3,-35.6 36,-32.4 -16.1,-5.3 -24.9,-13.8 -29.9,-24.3 -5.3,-10.2 -6.8,-22.4 -8,-35.1 -1.2,-12.7 -2,-25.9 -6,-38 -3.8,-12.2 -11.6,-22.7 -25.3,-30.5 l -71.4,40.4 c -17.4,-12.7 -27.6,-27.8 -34.8,-44.5 -7.5,-16.4 -11.6,-34.8 -15.7,-54.2 -4.5,-19 -9.1,-39.1 -17,-59.2 -8.4,-19.8 -20.1,-39.6 -38.5,-57.5 0,0 7.6,4.5 15,9.4 7.5,4.8 14.9,9.7 14.9,9.7 9.7,-14.6 2.2,-28.9 -9.5,-42.9 -11.8,-14.1 -26.3,-29 -31,-46.2 -20.3,18.6 -40.6,8.2 -62.4,7.5 8.4,-5.4 -2.5,-20.1 -12,-37.6 -9.3,-17.6 -16.2,-39.3 1.9,-60.4 0,0 -14.2,-2.7 -28.5,-5.5 -14.2,-2.6 -28.3,-5.2 -28.3,-5.2 -4,-3.2 -7.5,-6.5 -10.5,-9.9 -3.2,-3.2 -5.9,-6.5 -8.2,-9.9 -4.8,-6.7 -8,-13.8 -10.2,-21 -4.5,-14.4 -4.9,-29.8 -5.8,-44.8 -1.7,-30.2 -2.8,-62.2 -35.6,-85.9 -1.4,19.1 -12.1,25.9 -19.4,34.5 -7.3,8.7 -11,18.8 0,44.3 -18.6,-17.6 -38.9,-29.5 -26.3,-43.8 -5.7,0.6 -10.1,-4 -14.3,-10.8 -4.4,-6.8 -8.5,-16.1 -13,-25.3 -4.5,-9.4 -9.5,-18.7 -15.5,-25.5 -6.1,-6.6 -13.5,-10.3 -22.2,-9 -1,-16.1 14.2,-41.1 -10.7,-57.7 -6,2.6 -8.1,10.8 -8.1,10.8 8.3,-10.6 -26.6,-42.3 12.5,-51.2 -14.7,2.4 -28.5,2.2 -41.5,-0.3 -13.3,-2.1 -26,-5.9 -38.2,-11.4 -23.9,-11.3 -47.6,-26 -70.4,-41.9 -11.6,-7.6 -23.4,-14.7 -34.9,-21.5 -11.7,-6.7 -23.2,-12.8 -35.2,-16.6 -11.9,-4 -23.7,-6.6 -35.5,-7.1 -5.8,-0.3 -11.7,0.1 -17.5,1 -5.9,1.1 -11.8,2.9 -17.6,5.4 -12.1,-7.6 -24.9,-15.4 -38,-23.4 -6.5,-4.1 -13.4,-7.6 -20.3,-11.2 -6.9,-3.6 -13.8,-7.2 -20.7,-10.7 -27.4,-14.7 -56,-25.6 -80.5,-34.7 0.9,8.8 -3.8,13.1 6.4,13.3 -18.8,0.4 -29.7,-3.9 -36.6,-11.9 -6.9,-7.9 -10,-18.8 -13.5,-29.8 -3.5,-10.9 -7.5,-21.9 -16.1,-29.9 -8.7,-7.6 -22.3,-11.9 -44.5,-9.9 -51.3,33.5 37.7,33.5 8.1,43.8 -8.1,21.3 -17.8,29.8 -28.9,31.2 -5.6,0.6 -11.5,-0.4 -17.7,-2.6 -6.3,-2.1 -13,-4.9 -20,-8.3 -13.9,-6.7 -29.1,-14.9 -44.8,-18.7 -15.8,-3.4 -32.2,-2.5 -47.8,8.3 l 12.3,7.4 c -11.6,5.9 -23.2,5.6 -35.3,2 -12.4,-3.2 -25.2,-10 -38.9,-17.6 -6.8,-3.9 -13.9,-7.8 -21.1,-11.8 -7.3,-3.8 -15,-7.4 -22.8,-10.5 -15.7,-6.3 -32.2,-11 -49.8,-11 0,0 2.7,8.2 -0.8,13.6 -21.8,-24.6 -55.5,-43.3 -92.6,-56.1 -36.9,-13.5 -77.2,-21.6 -111.6,-29.1 20.6,35.9 30.7,19.7 16.7,55.1 -30.6,-6.1 10.8,-57.6 -51.1,-68.8 -20.5,18.8 -65.2,35.6 -71,73.9 0,0 14.4,0.5 28.9,1.1 7.2,0.2 14.4,0.5 19.8,0.9 5.4,0.2 9,0.5 9,0.5 -15,24.3 -33.5,23.9 -52.3,18.4 -18.7,-5.6 -37.6,-16.4 -52.9,-11.7 l 4.1,21.5 c -22.1,-1.5 -38.8,-6 -53,-11.9 -14.2,-5.8 -25.8,-12.8 -37.7,-19.6 -23.7,-13.5 -48.4,-25.6 -96.3,-21.7 l 9.3,-16.8 c -54.9,-52.1 -42.7,32.1 -97,-5.5 l -12.8,55.5 c -17.6,-5.7 -48.5,-16.9 -83.1,-27.6 -34.5,-10.3 -72.7,-20.2 -104.3,-22.4 38.8,37.3 112.4,52.6 158.3,74.1 -16.9,1.4 -45.9,1.8 -72.9,-0.4 -27.1,-2.4 -52.6,-8.4 -62.6,-21.1 14.3,4.2 32.6,16.2 45.4,6.8 -22.5,-19.8 -48.1,-34.2 -76.6,-42 -28.5,-8.1 -60.1,-10.3 -94.2,-6 11.6,52.3 -31.8,63.2 -82.7,73.4 -25.6,4.9 -52.9,9.9 -76.3,19 -23.4,8.9 -42.5,22.5 -51.4,44.8 -15.4,-2.6 -30.6,-3.7 -45.7,-3.7 -15,0.1 -29.8,1.8 -44.5,4 -14.8,2.4 -29.5,5.5 -44.1,9.5 -14.6,4 -29.2,8.6 -43.8,13.5 -29.4,9.6 -58.8,21.4 -89.4,31.5 -15.4,4.9 -30.9,10.3 -46.8,14.8 -15.9,4.5 -32.4,8.2 -49.2,11.5 7,-23 8.2,-33.9 5.6,-38.9 -2.6,-5 -8.8,-3.9 -16.3,-2.5 -14.9,2.8 -34.9,6.6 -41,-35.6 -33,2.5 -44.8,7 -46.1,13.2 0,0 -20.6,18.5 -41.1,37.2 -10.2,9.2 -20.3,18.6 -27.7,25.8 -7.5,7.1 -12.5,11.8 -12.5,11.8 -15.3,30.2 34.4,9.5 36.7,28.7 -65.1,25.7 -18.2,42.8 -55.4,77 0.2,-31.8 -35.6,-34.4 -69.8,-11.6 l 41.6,-53.9 c -53.3,-7 -68.5,16.2 -82.7,40 -14.3,24 -28.4,46.7 -81.5,42.5 l 37.8,14.7 c -25.9,1.1 -69.1,16.3 -113.8,27.3 -11.3,2.7 -22.8,4.7 -34,6.5 -11.2,1.8 -22.4,2.9 -33.3,2.9 -21.8,0.2 -42.8,-4.2 -60.8,-14.6 -4.2,12.6 -5.5,38.5 16.9,35.3 -26,14.5 -56.3,23.7 -87.3,32.5 -15.6,4.3 -31.6,8 -47.6,11.7 -16,3.9 -31.9,7.8 -47.6,11.7 -31.6,7.6 -61.3,17.5 -87.6,29.5 -26.1,12.3 -47.7,28.3 -62.6,48.8 l 18.3,13.4 c -22.2,5.5 -53.1,-13.6 -66.2,18.6 5.8,6.6 18.5,13 10.4,19.4 -6.7,0.1 -24.3,-0.4 -42,3.4 -17.8,3.6 -36.3,10.5 -45.3,23.6 l 33.8,5.8 c -10.2,10.8 -20.7,19.4 -31.2,26.7 -10.4,7.6 -21.1,13.6 -31.9,18.5 -10.9,4.9 -21.9,8.7 -33.2,11.8 -11,3.3 -22.2,6 -33.6,8.3 -45.5,8.9 -92.4,14.5 -135.4,39.9 19.3,23.6 14.8,53.8 2.5,82.1 -6.3,14 -13.9,28.5 -21.9,41.3 -8,12.9 -16.2,24.4 -22.7,33.6 l 7,5.3 c -11.4,11.7 -22.4,22.8 -34,32.6 -5.8,5 -11.6,9.7 -17.5,14.2 -3.1,2.3 -6,4.5 -9,6.6 -2.9,2.3 -5.8,4.6 -8.7,6.7 -11.7,8.8 -23.6,16.8 -35.8,24.5 -6.1,3.8 -12.2,7.5 -18.4,11.2 -6.1,3.7 -12.2,7.5 -18.2,11.2 -24.4,15 -50,28.8 -74.5,45.2 -12.3,8 -24.8,16.4 -37.3,25.2 -12.4,9 -24.2,19 -36.3,29.4 0.6,12.7 -1.1,25.7 -4.6,39 -3.3,13.3 -8,27.1 -14.3,41 -3.1,7 -6.5,14 -10.2,21.1 -3.8,7 -7.7,14.2 -11.6,21.5 -7.9,14.7 -16.7,29.6 -25.8,44.6 -35.5,60.7 -75.4,126 -86.5,188.8 -1.1,-21.6 -43.5,-19.8 -59.4,-3 -1.3,15.7 -19.3,29.1 -31,41.2 -11.6,12.2 -16.6,22.9 9.8,32.7 l 3.6,-9.7 c 10.1,10.9 15,21.7 17,32.8 2.1,11.2 0.8,22.4 -2.3,33.5 -3.1,11.2 -8.1,22.4 -13.3,33.3 -5,11.2 -10,22.3 -13.9,32.9 l -70.8,-20.3 c 12.7,38.3 11.7,74.9 1.9,109.9 -4.6,17.6 -10.4,35.1 -17.7,52.1 -3.6,8.6 -7.6,17 -11.4,25.5 -3.6,8.5 -7.4,16.9 -11.2,25.2 -7.3,16.6 -15.3,32.8 -21.1,48.7 -5.8,15.9 -10.7,31.2 -13.4,45.8 -1.2,7.2 -2.3,14.3 -2.3,21.2 0.1,6.8 0.9,13.5 2.4,19.8 3,12.7 9,24.3 19.2,34.4 -5.9,6.2 -10.8,13.1 -15,20.3 -4,7.2 -7.4,14.8 -10.9,22.4 -6.9,15.2 -13.8,30.5 -25.1,43.5 l 39.2,3.8 c 0.1,19.8 0.5,37.2 0.4,53.5 -0.1,8.1 -0.3,16 -0.4,23.8 0.1,7.9 0.1,15.6 -0.1,23.5 -0.3,15.8 -1.8,32.2 -3.3,50.5 -1.1,18.4 -3.1,38.8 -6.1,62.9 l 28.6,-19.2 c 0.2,6.7 -1.5,12.7 -4.6,18.3 -3.1,5.6 -7.1,10.7 -12.3,15.6 -10.4,9.7 -24.6,18.4 -38.9,27.1 -14.3,8.8 -28.7,17.7 -39.7,27.7 -11,10.1 -17.6,21.2 -17.4,34.4 0,0 14.9,3.1 29.8,6.1 14.8,2.9 29.8,5.8 29.8,5.8 0.7,11.9 1.7,24 4.3,35.8 2.6,11.8 5.7,23.6 8.9,35.2 l 5,17.5 c 1.6,5.9 3.3,11.7 5.4,17.4 3.9,11.5 7.8,22.9 11.1,34.4 1.7,5.7 3.3,11.5 4.7,17.2 l 2.1,8.6 2.2,8.6 c 2.9,11.4 5,23 6.1,34.8 0.5,5.9 0.9,11.9 0.9,17.9 0,3 -0.1,6 -0.2,9.1 0,3 -0.1,6 -0.2,9.1 -0.6,12.2 -2.4,24.8 -5.9,38 7.9,-3.7 23.6,-10.8 22,-26.1 3.2,10.6 9.9,25.6 16.8,42.1 7.8,16.2 16,33.8 21,50.4 4.7,16.9 8.2,32.1 4.4,44.4 -3.6,12.3 -13.7,21.5 -34,24.8 12.4,-4.4 21,-0.9 26.9,7.6 3,4.2 5.2,9.6 7,16.1 2,6.3 3.6,13.6 4.7,21.5 1.1,7.9 1.9,16.4 2.4,25.2 0.4,8.9 1.3,17.8 1.5,26.8 0.9,17.9 0.9,35.8 2,50 l 30.9,-24.4 c -12.2,30.3 -20.9,48 -24.5,65.6 -3.1,17.4 -1.7,35.1 8.5,66.2 12.1,10.5 33.5,-4.5 14.7,-16.4 21.6,16.2 18.6,29.1 16.6,43.5 -2.1,14.2 -2.6,29.7 22.5,49.8 l 8.4,-32.5 c 7.6,10.3 12.3,18.4 15.3,25.1 3.1,6.7 4.2,12.2 4,17.7 -0.3,11.1 -5.5,22.1 -9.1,42.3 3.3,17.8 20.2,36.7 40.3,48.7 20.3,11.8 43.5,16.8 59.4,8.8 -6.3,9.4 -10.3,24 -9.2,38.5 1.1,14.5 6.9,29.2 21,37.5 12.8,-5.6 11.4,-19.2 11,-26.2 19.1,12.1 32.1,25.7 41.5,40.1 9.9,14 16.5,28.7 22.9,42.6 6.3,14 13,26.6 22,37.2 4.6,5.3 9.8,9.9 16,13.6 6.4,3.7 13.8,6.5 22.5,8.3 9.8,-8.4 17,-10.4 23.2,-9.8 -25.4,-23 -47.3,-44.7 -63.4,-59.4 -15.5,-15 -25,-23.3 -24.3,-20.5 13.1,-12.2 30.1,-9.3 44.5,-11.8 14.4,-2.4 26.1,-10.3 29.5,-42.6 2.4,12.4 4.7,27.6 8,43.5 3.4,16 7.1,33.4 12.8,49.6 5.6,16.3 12.4,32 21.1,45.1 9,12.8 19.7,23.1 32.4,28.9 4.2,-0.8 8.3,-1.6 13.4,-4.5 l -1.4,-6.7 c 11.4,5.6 17.7,15 21.6,26.4 16.8,6.6 27.7,10.3 40.8,20.1 11.8,-9.4 26.3,-2.7 40.6,8.3 14.7,10.6 29.2,25.7 40.4,33.4 -25.4,29.8 7.8,46.2 -39,51.9 5.2,0.5 -1.4,-6.8 -15,-19.4 -2.6,-3.5 -6.2,-7 -6.9,-10.5 -0.2,1.2 -0.5,2.6 -0.6,3.9 -13.8,-11.9 -31.8,-27.4 -52.3,-45.1 4.4,29 12,57.2 50,58.8 -4,28.6 -6.7,59.1 -6.5,74.1 64,-19.8 140.8,-2.9 167.8,-25.7 28.6,32.5 69.1,61.4 103.5,93.4 17.5,15.6 33.2,32.6 45.9,50.7 12.6,18.1 21.6,38.2 25.2,60.7 17.8,19.7 34.9,-5.7 48.2,-11.9 -9.2,-12.9 -24.6,-19.6 -26.5,-32.4 8.6,9.7 20.8,19.1 33.9,28.5 13.2,9.4 27.7,18.3 40.6,27.9 25.8,19 46.4,38.9 41.2,64.9 33.3,2.1 30,-12.4 27.8,-21.8 -2.1,-9.5 -3.2,-14.2 34,6.5 l -4.3,-18.9 c 23,-1 43.4,1.1 61.7,6.2 18.3,5.3 35,12.7 50.4,22.3 15.4,9.8 30,20.8 44,33 14.2,12.6 28.3,25 42.5,37.6 14.4,12.6 29,25.1 44.6,36.5 7.8,5.6 15.8,11.3 24.1,16 8.5,4.7 17.2,8.9 26.3,12.7 36.4,14.6 78.6,21.1 130.8,7 -14.2,2.9 -21.3,4.2 -26.1,11.8 27.4,1.1 54.4,4.4 81.1,9.2 26.8,4.3 53.5,9.7 80.1,16.2 13.2,3.4 26.5,6.9 39.8,10.2 13.3,3.4 26.6,6.8 39.9,10.4 l 40,10.9 20,5.5 20.1,5.1 c 26.9,6.6 53.8,13.1 80.7,18.7 27,5.4 54.3,9.4 81.5,12.3 13.6,1.4 27.3,2.5 40.9,3.1 13.7,0.4 27.5,0.3 41.1,-0.2 27.5,-1.1 54.8,-4 82.3,-10 61.7,-7.9 64.4,25.4 98.6,54.3 l 17.5,-40.4 58.2,54.2 c 43.3,22.3 84.7,-0.7 128.1,-18.7 43.5,-18.2 89.3,-33.1 143.9,4.3 l -16.5,27.3 c 41.2,-2.7 128.8,24.5 123.8,-8.3 3.9,5.4 11.8,30.1 28.7,16.2 l 2.5,-21.8 98.8,42.9 c 79.1,-12.1 -7.9,-87.5 106.3,-86.4 42,10.4 118,69.2 101.4,83.1 -17.2,0.4 -44.4,11.7 -46.7,33.6 l 38.5,13.2 c 4.2,64.8 31.4,132.3 -66.5,173.1 l -65.1,-42.5 -23,30.3 56.2,4.6 c -33.2,28 -52.4,0.9 -74.2,-18 -6.1,16.3 -16.2,27.5 -29.8,33.1 l -62.7,-65 c -9.3,24.8 27,51.7 -18,63.2 -29.4,-30.3 32.5,-55 -17.4,-76.5 -33.7,27.5 -25.8,52.1 -62,24.7 -6.3,16.4 1.1,27.4 15.6,35.6 -32.5,-21.9 -88.6,-13.8 -103.7,-49.2 -36,33.9 -112.9,-17.5 -114.1,43.8 -9.5,-15.2 -55.8,-52.7 -86.4,-57.8 25.2,38.8 -3.9,37.5 -38.4,36.4 -34.5,-1.5 -74.3,-3.1 -70.7,36.8 -17.9,-34.9 -55.1,-45.7 -96.8,-54.3 -20.9,-4.3 -42.9,-7.6 -64,-12.8 -21.1,-5.4 -41.4,-12.8 -58.8,-24.3 3.5,5.7 10.3,17.3 17.3,14.9 -42.7,-0.2 -57.6,17.9 -86.5,26.5 2.1,-54.7 -61.2,-77 -90.6,-115.4 -29.7,21.7 -24.7,38.6 -15,56.3 9.6,17.4 23.9,35.2 11.8,58.8 4.8,-21.6 -15.9,-35.6 -34.8,-49.4 -18.8,-13.5 -35.8,-25.8 -23.8,-42.4 -44.9,25.1 -36.5,9.6 -65,50.3 5.6,-67.7 -34.7,-18.5 -59.1,-66 -31.6,10.7 -38.6,25.6 -44.8,33.6 -3.2,4.1 -6.1,6.4 -12,5.6 -5.8,-0.6 -14.6,-4.5 -29.1,-13.2 -17.1,6.7 -13.1,19.1 -4.7,30 4.2,5.4 9.5,10.3 13.8,14 4.2,3.5 7.4,5.7 7.4,5.7"
           style="fill:#000000;fill-opacity:1;fill-rule:nonzero;stroke:none"
           id="path594" />
      </g>
      <g
         id="g596"
         transform="scale(1.50276)">
        <path
           d="m 13662.2,16291.2 c 1.9,2.7 2.1,5.3 5.1,8.2 -6,0.5 -11.5,0.6 -16.6,0.2 0.8,-5.5 1.6,-11 2.6,-16.2 3,2.7 6.2,5.4 8.9,7.8"
           style="fill:#de343e;fill-opacity:1;fill-rule:nonzero;stroke:none"
           id="path598" />
      </g>
      <g
         id="g600"
         transform="scale(1.70961)">
        <path
           d="m 16297.6,14200.6 0.7,-2.7 c 0.1,2.7 0.3,5.3 1.7,7.8 -0.6,-2.5 -1.7,-3.2 -2.4,-5.1"
           style="fill:#de343e;fill-opacity:1;fill-rule:nonzero;stroke:none"
           id="path602" />
      </g>
      <g
         id="g604"
         transform="scale(1.31858)">
        <path
           d="m 14312.2,16283.9 13,2.9 -14.5,13.2 1.5,-16.1"
           style="fill:#de343e;fill-opacity:1;fill-rule:nonzero;stroke:none"
           id="path606" />
      </g>
      <g
         id="g608"
         transform="scale(1.67145)">
        <path
           d="m 16298.3,15157.1 c 1.3,3.6 1.7,8.4 -0.4,14.4 -1.4,-2.3 -0.8,-7.9 0.4,-14.4"
           style="fill:#de343e;fill-opacity:1;fill-rule:nonzero;stroke:none"
           id="path610" />
      </g>
      <g
         id="g612"
         transform="scale(1.64597)">
        <path
           d="m 16300,15598.7 -29.7,38.3 c 11.8,-18.4 21.4,-29.8 29.7,-38.3"
           style="fill:#de343e;fill-opacity:1;fill-rule:nonzero;stroke:none"
           id="path614" />
      </g>
      <g
         id="g616"
         transform="scale(1.62569)">
        <path
           d="m 16300,15947.2 c -6.5,-4.8 -10.1,-9.2 -13.4,-13.3 0.1,-0.2 0.2,-0.3 0.3,-0.5 l 13.1,13.8"
           style="fill:#de343e;fill-opacity:1;fill-rule:nonzero;stroke:none"
           id="path618" />
      </g>
      <g
         id="g620"
         transform="scale(1.76141)">
        <path
           d="m 16299.2,11466.5 c -0.8,-3.2 -1.4,-6.3 -1.3,-9.3 0.1,-23.1 2.1,-8.1 1.3,9.3"
           style="fill:#de343e;fill-opacity:1;fill-rule:nonzero;stroke:none"
           id="path622" />
      </g>
      <g
         id="g624"
         transform="scale(1.76902)">
        <path
           d="m 16277.4,12522.5 c 7.9,-11 15.7,-21.9 21,-33.8 1.6,19.6 1.3,35 -21,33.8"
           style="fill:#de343e;fill-opacity:1;fill-rule:nonzero;stroke:none"
           id="path626" />
      </g>
      <g
         id="g628"
         transform="scale(1.68941)">
        <path
           d="m 16300,10814.4 c 0,0.3 -0.2,0.3 -0.3,0.7 -2.3,-2 -4.4,-3.6 -6.8,-5.5 l 7.1,4.8"
           style="fill:#de343e;fill-opacity:1;fill-rule:nonzero;stroke:none"
           id="path630" />
      </g>
      <g
         id="g632"
         transform="scale(1.76979)">
        <path
           d="m 16293.1,12432.2 c 6.9,19.9 5,36.3 -1.7,51.1 -1.3,-16.2 -5,-35.2 1.7,-51.1"
           style="fill:#de343e;fill-opacity:1;fill-rule:nonzero;stroke:none"
           id="path634" />
      </g>
      <g
         id="g636"
         transform="scale(1.62933)">
        <path
           d="m 15230.9,16296.4 -12,3.6 c -0.1,-2.8 -1.2,-5 -2.4,-6.6 l 14.4,3"
           style="fill:#de343e;fill-opacity:1;fill-rule:nonzero;stroke:none"
           id="path638" />
      </g>
      <g
         id="g640"
         transform="scale(1.62867)">
        <path
           d="m 15222.6,16300 -14.2,-2.8 c 6.2,-1 11.6,-1.5 14.2,2.8"
           style="fill:#de343e;fill-opacity:1;fill-rule:nonzero;stroke:none"
           id="path642" />
      </g>
      <g
         id="g644"
         transform="scale(1.62882)">
        <path
           d="m 15177,16288.8 c 0,0 7.5,1.8 15,3.6 3.8,0.8 7.5,1.7 10.3,2.4 2.9,0.6 4.8,1 4.8,1 -9.9,1.6 -22,4.2 -30.1,-7"
           style="fill:#de343e;fill-opacity:1;fill-rule:nonzero;stroke:none"
           id="path646" />
      </g>
      <g
         id="g648"
         transform="scale(1.6214)">
        <path
           d="m 15634.3,16286.1 7.9,13.9 c -2.9,-2.5 -5.6,-7 -7.9,-13.9"
           style="fill:#de343e;fill-opacity:1;fill-rule:nonzero;stroke:none"
           id="path650" />
      </g>
      <g
         id="g652"
         transform="scale(1.6225)">
        <path
           d="m 15723.9,16250.3 c -22.4,10.4 -50,49.3 -85.9,49.7 l -6.4,-11 c 10.8,9 26.7,-5.5 43.3,-19.6 16.6,-14.2 33.9,-28.1 49,-19.1"
           style="fill:#de343e;fill-opacity:1;fill-rule:nonzero;stroke:none"
           id="path654" />
      </g>
      <g
         id="g656"
         transform="scale(1.59672)">
        <path
           d="m 16300,16176.9 c 0,0 -17.2,11.6 -34.5,23.3 -8.6,6 -17.4,11.5 -24,15.6 -6.6,4.2 -11,7 -11,7 6.4,-21.1 14.2,-49.1 -21.3,-38 18.4,-21.6 27.1,-29.8 31.6,-30.8 4.5,-1 4.7,5.6 5.7,13.3 1.8,15.5 6.2,35.8 53.5,9.6"
           style="fill:#de343e;fill-opacity:1;fill-rule:nonzero;stroke:none"
           id="path658" />
      </g>
      <g
         id="g660"
         transform="scale(1.61956)">
        <path
           d="m 16279.7,15810 c -41,15.4 -11.7,-21 -18.5,-27.9 31,-0.8 38.8,-1 18.5,27.9"
           style="fill:#de343e;fill-opacity:1;fill-rule:nonzero;stroke:none"
           id="path662" />
      </g>
      <g
         id="g664"
         transform="scale(1.73236)">
        <path
           d="m 16300,13533.4 -35.4,-9.6 c 16.1,-26.6 13.4,4.9 35.4,9.6"
           style="fill:#de343e;fill-opacity:1;fill-rule:nonzero;stroke:none"
           id="path666" />
      </g>
      <g
         id="g668"
         transform="scale(1.76361)">
        <path
           d="m 16286.7,13038.6 13.3,36.5 -35.6,6.2 22.3,-42.7"
           style="fill:#de343e;fill-opacity:1;fill-rule:nonzero;stroke:none"
           id="path670" />
      </g>
      <g
         id="g672"
         transform="scale(1.74104)">
        <path
           d="m 16286,12964.6 -7.2,12.1 21.2,-47.3 -14,35.2"
           style="fill:#de343e;fill-opacity:1;fill-rule:nonzero;stroke:none"
           id="path674" />
      </g>
      <g
         id="g676"
         transform="scale(1.64235)">
        <path
           d="m 16262.6,11234.5 29.7,-38.2 c 7.7,8.3 6,25.3 -0.3,36.1 -3.2,5.3 -7.6,9.4 -12.5,10.2 -5.1,0.8 -10.9,-1.1 -16.9,-8.1"
           style="fill:#de343e;fill-opacity:1;fill-rule:nonzero;stroke:none"
           id="path678" />
      </g>
      <g
         id="g680"
         transform="scale(1.51477)">
        <path
           d="m 16300,11934.8 c -14.6,26.1 -53.5,44 -79.2,20.3 31.6,-5.3 62.7,-26.3 79.2,-20.3"
           style="fill:#de343e;fill-opacity:1;fill-rule:nonzero;stroke:none"
           id="path682" />
      </g>
      <g
         id="g684"
         transform="scale(1.29551)">
        <path
           d="m 15150.4,16272.8 29.3,-22.2 -35.5,49.4 6.2,-27.2"
           style="fill:#de343e;fill-opacity:1;fill-rule:nonzero;stroke:none"
           id="path686" />
      </g>
      <g
         id="g688"
         transform="scale(1.43816)">
        <path
           d="m 11205.8,13871.8 c -146.7,-27.5 -3446.3,-2796.5 -8033.22,-3623.7 L 6652.03,16300 11205.8,13871.8"
           style="fill:#da986f;fill-opacity:1;fill-rule:nonzero;stroke:none"
           id="path690" />
      </g>
      <g
         id="g692"
         transform="scale(1.52565)">
        <path
           d="m 2602.88,13058.9 2355.28,2637.2 c 0,0 193.35,194 468.4,362.4 286.55,175.6 626.94,241.5 958.68,188.1 l 4379.36,-705.3 -1953.86,-1416.2 -2166.23,456.8 c 0,0 -293.03,58 -577.11,-526.1 l -867.54,-1484.4 c -304.6,-521.1 -247.24,-1182.4 153.48,-1633.9 72.42,-81.5 153.89,-154 245.13,-210.4 L 2797.15,9446.53 2303.48,11404.3 c 0,0 -299.52,971.4 299.4,1654.6"
           style="fill:#f7b690;fill-opacity:1;fill-rule:nonzero;stroke:none"
           id="path694" />
      </g>
      <path
         d="M 8687.5,4623.1 6132.5,0 H 0 v 6256.6 l 1335.7,2419.4 3413,-1881.4 3925.4,-2164 13.4,-7.5"
         style="fill:#4d4d4d;fill-opacity:1;fill-rule:nonzero;stroke:none"
         id="path696" />
      <path
         d="M 8674.1,4630.6 6117.7,0 H 997.602 L 4748.7,6794.6 8674.1,4630.6"
         style="fill:#1a1a1a;fill-opacity:1;fill-rule:nonzero;stroke:none"
         id="path698" />
      <g
         id="g700"
         transform="scale(1.48631)">
        <path
           d="m 11287,16074.1 c 0,0 1900.9,225.9 1943.3,148.8 42.3,-77.1 -1337.4,-1563.5 -1337.4,-1563.5 l -456.5,582.3 -149.4,832.4"
           style="fill:#e4ac53;fill-opacity:1;fill-rule:nonzero;stroke:none"
           id="path702" />
      </g>
      <g
         id="g704"
         transform="scale(1.46612)">
        <path
           d="M 11453,16300 3065.21,12675.6 3671.14,11281 12062.4,14863.8 c 0,0 77.7,230 -131.5,272.1 0,0 126.9,201.4 -131.1,277.8 0,0 119.6,192.2 -128.3,322.6 0,0 118.6,190.5 -98.7,268.7 0,0 105.4,136.4 -119.8,295"
           style="fill:#4d4d4d;fill-opacity:1;fill-rule:nonzero;stroke:none"
           id="path706" />
      </g>
      <g
         id="g708"
         transform="scale(1.37466)">
        <path
           d="m 7939.51,12412.5 c 202.45,162.5 955.59,863.9 1355.9,1682.4 l 853.49,1659.9 c 0,0 311.2,545.2 951.3,504.1 29.6,-1.9 58.9,-7 87.5,-14.8 165.1,-45.1 727.6,-238.4 921.9,-816.2 21.7,-64.6 28.4,-133.5 19.4,-201.2 -20.3,-152.4 -99.5,-459.6 -385,-978.8 L 9462.22,9711.74 c 0,0 -626.56,-1116.79 -1269.55,-1752.15 -9.82,-9.75 -19.28,-19.86 -28.16,-30.48 -87.22,-103.59 -587.63,-692.32 -895.42,-924.38 -50.18,-37.82 -91.95,-85.62 -122.53,-140.54 l -372.43,-668.82 c -6.3,-11.28 -20.55,-15.43 -31.88,-9.1 l -3568.01,1973.44 217.56,393.34 c 52.25,94.49 68.75,204.56 46.51,310.26 l -341.12,1619.29 2891.7,1321.4 c 66.38,30.3 149.04,71.6 215.88,100.9 59.8,26.2 359.08,-596.8 1734.74,507.6"
           style="fill:#f7b690;fill-opacity:1;fill-rule:nonzero;stroke:none"
           id="path710" />
      </g>
      <g
         id="g712"
         transform="scale(1.15035)">
        <path
           d="m 2737.23,15660 1499.03,640 762.5,-1785.9 -1499.03,-640.1 c -540.11,-230.5 -1153.58,-17.3 -1363.27,473.8 v 0 c -209.69,491.1 60.66,1081.6 600.77,1312.2"
           style="fill:#232522;fill-opacity:1;fill-rule:nonzero;stroke:none"
           id="path714" />
      </g>
      <path
         d="M 1227.26,8308.5 8433.2,4332.8 c 465.27,-256.7 1055.97,-86 1312.67,379.2 l 1243.43,2253.7 c 256.7,465.2 86,1055.9 -379.3,1312.6 L 3404.09,12254 c -465.27,256.7 -1055.98,86.1 -1312.68,-379.2 L 848.035,9621.2 C 591.336,9155.9 761.984,8565.2 1227.26,8308.5"
         style="fill:#fcfaed;fill-opacity:1;fill-rule:nonzero;stroke:none"
         id="path716" />
      <g
         id="g718"
         transform="scale(1.48356)">
        <path
           d="m 12510.1,16211.9 c 0,0 725.1,88.1 741,45.4 19.8,-53.1 -462.8,-578.5 -462.8,-578.5 l -278.2,533.1"
           style="fill:#252423;fill-opacity:1;fill-rule:nonzero;stroke:none"
           id="path720" />
      </g>
    </g>
  </g>
</svg>
