<?xml version="1.0" encoding="UTF-8" standalone="no"?>
<!-- Created with Inkscape (http://www.inkscape.org/) -->

<svg
   width="84.942154mm"
   height="77.191002mm"
   viewBox="0 0 101.042 91.821703"
   version="1.1"
   id="svg5"
   xml:space="preserve"
   inkscape:version="1.2.1 (1:1.2.1+202210291244+9c6d41e410)"
   sodipodi:docname="log_2.svg"
   xmlns:inkscape="http://www.inkscape.org/namespaces/inkscape"
   xmlns:sodipodi="http://sodipodi.sourceforge.net/DTD/sodipodi-0.dtd"
   xmlns="http://www.w3.org/2000/svg"
   xmlns:svg="http://www.w3.org/2000/svg"><sodipodi:namedview
     id="namedview7"
     pagecolor="#ffffff"
     bordercolor="#666666"
     borderopacity="1.0"
     inkscape:showpageshadow="2"
     inkscape:pageopacity="0.0"
     inkscape:pagecheckerboard="0"
     inkscape:deskcolor="#d1d1d1"
     inkscape:document-units="mm"
     showgrid="false"
     inkscape:zoom="1.1351306"
     inkscape:cx="247.54861"
     inkscape:cy="458.53755"
     inkscape:window-width="1862"
     inkscape:window-height="1016"
     inkscape:window-x="58"
     inkscape:window-y="1107"
     inkscape:window-maximized="1"
     inkscape:current-layer="g4739"><inkscape:page
       x="0"
       y="0"
       width="101.04201"
       height="91.821701"
       id="page3030"
       inkscape:export-filename="logo_2.png"
       inkscape:export-xdpi="96"
       inkscape:export-ydpi="96" /><inkscape:page
       x="173.20511"
       y="-37.14444"
       width="158.75"
       height="158.75"
       id="page3032" /><inkscape:page
       x="341.95511"
       y="-37.14444"
       width="158.74997"
       height="158.75"
       id="page5107" /></sodipodi:namedview><defs
     id="defs2"><clipPath
       clipPathUnits="userSpaceOnUse"
       id="clipPath694"><path
         d="m 330.375,1524.54 v 0 361.51 c 0,8.02 6.559,14.58 14.586,14.58 h 582.09 l -31.965,-20.14 H 760.93 591.992 v -191.05 l -12.34,-7.77 v 166.85 31.97 H 463.063 346.477 v -345.8 l -16.102,-10.15"
         id="path692" /></clipPath></defs><g
     inkscape:label="Layer 1"
     inkscape:groupmode="layer"
     id="layer1"
     transform="translate(-46.794868,-37.144444)" /><g
     id="g4739"
     transform="matrix(0.03527778,0,0,-0.03527778,341.95513,121.60555)"><path
       d="m -7946.2722,2154.6678 c 0,-600.3909 -222.2118,-1087.1088 -496.302,-1087.1088 -274.1381,0 -496.3257,486.7179 -496.3257,1087.1088 0,600.32 222.1876,1087.0615 496.3257,1087.0615 274.0902,0 496.302,-486.7415 496.302,-1087.0615 z m -543.0195,1292.4185 c -325.8735,0 -590.0948,-578.6623 -590.0948,-1292.4185 0,-713.8509 264.2213,-1292.51319 590.0948,-1292.51319 325.8738,0 590.0235,578.66229 590.0235,1292.51319 0,713.7562 -264.1497,1292.4185 -590.0235,1292.4185"
       style="fill:#666666;fill-opacity:1;fill-rule:nonzero;stroke:none;stroke-width:2.38088"
       id="path5083" /><path
       d="m -8741.6841,2684.1077 c -52.4046,-24.5988 -102.6344,-50.7401 -151.7891,-77.5214 -4.1343,-19.7601 -7.599,-40.3031 -11.1833,-60.6798 58.1393,33.6608 119.1942,65.9219 183.1649,95.9771 234.1357,109.9969 466.4793,174.1398 665.0815,192.5477 -7.7426,21.183 -15.8195,41.4888 -24.2311,61.2963 -204.9822,-34.0169 -432.0925,-104.0901 -661.0429,-211.6199"
       style="fill:#cccccc;fill-opacity:1;fill-rule:nonzero;stroke:none;stroke-width:2.38088"
       id="path5085" /><path
       d="m -8009.9559,2906.2597 c 7.0973,-21.8475 13.5494,-44.7623 20.0726,-67.5822 232.3914,9.5831 409.224,-48.6293 470.518,-177.2001 117.1877,-245.968 -230.9576,-653.5033 -777.6566,-910.3122 -546.6753,-256.7382 -1084.9153,-265.4911 -1202.1985,-19.4993 -90.1846,189.2504 95.896,474.0269 435.3666,712.4041 2.3896,22.82 5.4963,44.9285 8.3638,67.2268 -462.202,-294.5972 -725.9691,-667.5941 -610.7175,-909.4824 139.2676,-292.3198 779.1863,-281.9535 1429.2847,23.3897 650.0029,305.2247 1063.8626,789.7596 924.5234,1082.1985 -84.5211,177.3654 -353.9042,242.647 -697.5565,198.8571"
       style="fill:#cccccc;fill-opacity:1;fill-rule:nonzero;stroke:none;stroke-width:2.38088"
       id="path5087" /><path
       d="m -7915.0158,2444.2125 c 102.6582,-72.0658 191.0265,-148.3544 262.2616,-225.0694 15.174,18.0754 29.0578,36.1277 42.153,54.1559 -89.3484,82.1001 -194.4201,162.7533 -312.8263,238.1166 2.9394,-22.2271 6.0696,-44.3832 8.4117,-67.2031"
       style="fill:#000000;fill-opacity:1;fill-rule:nonzero;stroke:none;stroke-width:2.38088"
       id="path5089" /><path
       d="m -9518.0028,2214.3985 c -94.295,0 -170.6673,-75.8612 -170.6673,-169.3715 0,-93.5338 76.3723,-169.3715 170.6673,-169.3715 94.1992,0 170.6195,75.8377 170.6195,169.3715 0,93.5103 -76.4203,169.3715 -170.6195,169.3715"
       style="fill:#000000;fill-opacity:1;fill-rule:nonzero;stroke:none;stroke-width:2.38088"
       id="path5091" /><path
       d="m -7551.8405,2093.0156 c 89.6112,-133.2912 120.2942,-260.8416 72.4299,-361.3497 -117.2589,-245.9918 -655.4991,-237.2389 -1202.1979,19.4993 -546.6996,256.8089 -894.8205,664.3442 -777.6571,910.3122 61.2701,128.5708 238.0311,186.7832 470.3744,177.2001 6.5238,22.9148 13.1669,45.6399 20.2879,67.5822 -343.6287,43.7899 -613.1309,-21.3966 -697.6042,-198.8571 -139.387,-292.4389 274.4969,-776.9738 924.4756,-1082.1985 650.0982,-305.3432 1289.9934,-315.7095 1429.3325,-23.3897 71.6886,150.5367 -3.441,351.695 -181.6836,553.2094 -18.2806,-20.6614 -37.3261,-41.394 -57.7575,-62.0082"
       style="fill:#1a1a1a;fill-opacity:1;fill-rule:nonzero;stroke:none;stroke-width:2.38088"
       id="path5093" /><path
       d="m -8236.9708,2684.1077 c -197.0249,92.5615 -392.8787,157.5346 -574.4905,195.6789 -7.36,-18.1943 -14.4331,-37.1954 -21.3631,-56.4572 177.4535,-27.2562 375.9364,-87.6272 575.6851,-181.4458 103.3276,-48.4865 199.4863,-102.4055 286.8275,-159.6218 -3.1307,21.9187 -6.6193,43.4339 -10.467,64.6886 -80.387,48.4865 -165.7205,94.7198 -256.192,137.1573"
       style="fill:#000000;fill-opacity:1;fill-rule:nonzero;stroke:none;stroke-width:2.38088"
       id="path5095" /><path
       d="m -7766.9546,1655.6625 c -94.2947,0 -170.6913,-75.8617 -170.6913,-169.3951 0,-93.5342 76.3966,-169.3243 170.6913,-169.3243 94.1991,0 170.5954,75.7901 170.5954,169.3243 0,93.5334 -76.3963,169.3951 -170.5954,169.3951"
       style="fill:#4d4d4d;fill-opacity:1;fill-rule:nonzero;stroke:none;stroke-width:2.38088"
       id="path5099" /><path
       d="m -8165.9272,3305.0658 c -94.2708,0 -170.6909,-75.8613 -170.6909,-169.3955 0,-93.4861 76.4201,-169.3477 170.6909,-169.3477 94.1756,0 170.6195,75.8616 170.6195,169.3477 0,93.5342 -76.4439,169.3955 -170.6195,169.3955"
       style="fill:#cccccc;fill-opacity:1;fill-rule:nonzero;stroke:none;stroke-width:2.38088"
       id="path5101" /><path
       d="m -8587.8637,2414.2999 c -83.0874,0 -150.4511,-66.8475 -150.4511,-149.3509 0,-82.4084 67.3637,-149.2792 150.4511,-149.2792 83.0633,0 150.4032,66.8708 150.4032,149.2792 0,82.5034 -67.3399,149.3509 -150.4032,149.3509"
       style="fill:#ffffff;fill-opacity:1;fill-rule:nonzero;stroke:none;stroke-width:2.38088"
       id="path5103" /><path
       d="m -8587.8637,2414.2999 c -83.0874,0 -150.4511,-66.8475 -150.4511,-149.3509 0,-82.4084 67.3637,-149.2792 150.4511,-149.2792 83.0633,0 150.4032,66.8708 150.4032,149.2792 0,82.5034 -67.3399,149.3509 -150.4032,149.3509"
       style="fill:#ffffff;fill-opacity:1;fill-rule:nonzero;stroke:none;stroke-width:2.38088"
       id="path5105" /><path
       d="m -8733.1415,2653.442 c 0,8.6044 6.7875,15.5554 15.1499,15.5554 8.3568,0 15.1385,-6.951 15.1385,-15.5554 0,-8.5753 -6.7817,-15.5408 -15.1385,-15.5408 -8.3624,0 -15.1499,6.9655 -15.1499,15.5408"
       style="fill:#000000;fill-opacity:1;fill-rule:nonzero;stroke:none;stroke-width:1.44422"
       id="path146" /><path
       d="m -8607.9298,2465.3578 -116.5314,99.4345 v 88.6497 h 12.9335 v -82.4012 l 111.8606,-95.4689 -8.2627,-10.2141"
       style="fill:#000000;fill-opacity:1;fill-rule:nonzero;stroke:none;stroke-width:1.44422"
       id="path148" /><path
       d="m -8189.9591,2634.1843 c 0,8.5752 -6.7875,15.5408 -15.1385,15.5408 -8.3739,0 -15.1443,-6.9656 -15.1443,-15.5408 0,-8.5899 6.7704,-15.5554 15.1443,-15.5554 8.351,0 15.1385,6.9655 15.1385,15.5554"
       style="fill:#000000;fill-opacity:1;fill-rule:nonzero;stroke:none;stroke-width:1.44422"
       id="path150" /><path
       d="m -8264.5286,2447.4464 -10.69,7.4777 63.6399,95.7615 v 83.4987 h 12.9393 v -87.5961 l -65.8892,-99.1418"
       style="fill:#000000;fill-opacity:1;fill-rule:nonzero;stroke:none;stroke-width:1.44422"
       id="path152" /><path
       d="m -8157.3545,1758.8677 c 0,-8.5899 -6.7818,-15.5554 -15.1385,-15.5554 -8.3696,0 -15.14,6.9655 -15.14,15.5554 0,8.5752 6.7704,15.5408 15.14,15.5408 8.3567,0 15.1385,-6.9656 15.1385,-15.5408"
       style="fill:#000000;fill-opacity:1;fill-rule:nonzero;stroke:none;stroke-width:1.44422"
       id="path154" /><path
       d="m -8166.0177,1758.8677 h -12.9449 v 82.4158 l -111.8678,95.4542 8.2684,10.2142 116.5443,-99.4345 v -88.6497"
       style="fill:#000000;fill-opacity:1;fill-rule:nonzero;stroke:none;stroke-width:1.44422"
       id="path156" /><path
       d="m -8943.3177,2258.3671 c 0,8.5899 6.7875,15.5554 15.1385,15.5554 8.3625,0 15.1386,-6.9655 15.1386,-15.5554 0,-8.5899 -6.7761,-15.5554 -15.1386,-15.5554 -8.351,0 -15.1385,6.9655 -15.1385,15.5554"
       style="fill:#000000;fill-opacity:1;fill-rule:nonzero;stroke:none;stroke-width:1.44422"
       id="path158" /><path
       d="m -8755.3298,2176.405 -73.3593,75.3185 h -106.2547 v 13.2726 h 111.6154 l 77.1465,-79.1818 -9.1479,-9.4093"
       style="fill:#000000;fill-opacity:1;fill-rule:nonzero;stroke:none;stroke-width:1.44422"
       id="path160" /><path
       d="m -8736.31,1734.02 h -12.9507 v 126.1846 l 183.3228,63.7142 4.1535,-12.5994 -174.5256,-60.6558 V 1734.02"
       style="fill:#000000;fill-opacity:1;fill-rule:nonzero;stroke:none;stroke-width:1.44422"
       id="path162" /><path
       d="m -7960.6634,1973.3361 h -102.4905 l -107.2467,110.1023 9.1592,9.3801 103.4425,-106.1952 h 97.1355 v -13.2872"
       style="fill:#000000;fill-opacity:1;fill-rule:nonzero;stroke:none;stroke-width:1.44422"
       id="path164" /><path
       d="m -8156.9925,2266.7521 0.3607,0.439 -10.2767,8.0777 c 3.9581,5.3119 58.5001,37.4178 103.548,63.4215 l 1.4866,0.8634 h 119.2068 v -13.3019 h -115.8273 c -36.034,-20.8234 -93.4267,-54.656 -98.4981,-59.4997"
       style="fill:#000000;fill-opacity:1;fill-rule:nonzero;stroke:none;stroke-width:1.44422"
       id="path166" /><path
       d="m -7961.9947,2331.2858 c 0,8.6045 6.7818,15.5554 15.1513,15.5554 8.3668,0 15.1514,-6.9509 15.1514,-15.5554 0,-8.5753 -6.7846,-15.5408 -15.1514,-15.5408 -8.3695,0 -15.1513,6.9655 -15.1513,15.5408"
       style="fill:#000000;fill-opacity:1;fill-rule:nonzero;stroke:none;stroke-width:1.44422"
       id="path168" /><path
       d="m -7977.1275,1979.9943 c 0,8.5752 6.776,15.5261 15.1328,15.5261 8.381,0 15.1513,-6.9509 15.1513,-15.5261 0,-8.6045 -6.7703,-15.5554 -15.1513,-15.5554 -8.3568,0 -15.1328,6.9509 -15.1328,15.5554"
       style="fill:#000000;fill-opacity:1;fill-rule:nonzero;stroke:none;stroke-width:1.44422"
       id="path170" /><path
       d="m -8757.9353,1743.3123 c 0,8.5899 6.7875,15.5554 15.1443,15.5554 8.3624,0 15.1385,-6.9655 15.1385,-15.5554 0,-8.5752 -6.7761,-15.5408 -15.1385,-15.5408 -8.3568,0 -15.1443,6.9656 -15.1443,15.5408"
       style="fill:#000000;fill-opacity:1;fill-rule:nonzero;stroke:none;stroke-width:1.44422"
       id="path172" /><path
       d="m -8457.4225,2488.2738 c 0,51.027 -40.2929,92.3958 -90.0073,92.3958 -49.2241,0 -89.1892,-40.564 -89.9745,-90.9032 -7.4503,1.3756 -15.0944,2.1365 -22.9337,2.1365 -70.6099,0 -127.8572,-58.7681 -127.8572,-131.2624 0,-23.9989 6.3085,-46.4759 17.2537,-65.8214 -11.5196,-18.9942 -18.1887,-41.4127 -18.1887,-65.4556 l 0.071,-2.8828 c -23.4953,-22.638 -38.1948,-54.7731 -38.1948,-90.4788 0,-43.4468 21.7821,-81.6695 54.6974,-103.8246 -1.0462,-6.5851 -1.6135,-13.3457 -1.6135,-20.2527 0,-66.1434 50.4214,-120.1849 113.9715,-123.8579 10.9067,-46.271 51.5004,-80.6597 99.9348,-80.6597 56.7969,0 102.8411,47.2808 102.8411,105.5806 v 575.2569 0.029"
       style="fill:#dae3ec;fill-opacity:1;fill-rule:nonzero;stroke:none;stroke-width:1.44422"
       id="path174" /><path
       d="m -8433.0635,2488.2738 c 0,51.027 40.3,92.3958 90.003,92.3958 49.2241,0 89.1892,-40.564 89.9745,-90.9032 7.4432,1.3756 15.093,2.1365 22.9323,2.1365 70.6056,0 127.8586,-58.7681 127.8586,-131.2624 0,-23.9989 -6.3085,-46.4759 -17.2551,-65.8214 11.5082,-18.9942 18.1901,-41.4127 18.1901,-65.4556 l -0.078,-2.8828 c 23.5067,-22.638 38.2006,-54.7731 38.2006,-90.4788 0,-43.4468 -21.7707,-81.6695 -54.7088,-103.8246 1.0519,-6.5851 1.632,-13.3457 1.632,-20.2527 0,-66.1434 -50.4271,-120.1849 -113.9715,-123.8579 -10.9181,-46.271 -51.5075,-80.6597 -99.9405,-80.6597 -56.7969,0 -102.8368,47.2808 -102.8368,105.5806 v 575.2569 0.029"
       style="fill:#dae3ec;fill-opacity:1;fill-rule:nonzero;stroke:none;stroke-width:1.44422"
       id="path176" /><path
       d="m -8660.338,2485.2593 c -66.924,0 -121.3819,-55.9145 -121.3819,-124.6188 0,-21.9356 5.6614,-43.5638 16.3743,-62.4849 l 1.9655,-3.4535 -2.071,-3.395 c -11.253,-18.5699 -17.2038,-39.9933 -17.2038,-61.9436 l 0.039,-1.595 0.094,-4.112 -2.1095,-2.0194 c -23.3071,-22.4771 -36.1466,-52.8708 -36.1466,-85.6352 0,-39.7007 19.359,-76.4453 51.7755,-98.2639 l 3.5234,-2.3706 -0.6785,-4.2583 c -1.0248,-6.4095 -1.5479,-12.8482 -1.5479,-19.1845 0,-62.2362 47.3811,-113.7315 107.864,-117.2143 l 4.7991,-0.278 1.1303,-4.8144 c 10.4833,-44.4712 49.0017,-75.5673 93.649,-75.5673 53.1324,0 96.3658,44.398 96.3658,98.937 v 575.2569 c 0,47.3101 -37.4765,85.7815 -83.532,85.7815 -45.3158,0 -82.7809,-37.8422 -83.5049,-84.3766 l -0.1169,-7.829 -7.5058,1.4049 c -7.2764,1.3609 -14.6155,2.034 -21.7806,2.034 z m 100.0744,-684.4959 c -49.0573,0 -91.578,33.0863 -105.0075,81.0256 -65.0753,6.2192 -115.3798,62.485 -115.3798,130.1356 0,5.6485 0.3734,11.3848 1.1132,17.1065 -34.0072,24.5257 -54.1857,64.1971 -54.1857,106.9708 0,34.9301 13.8643,68.7481 38.1235,93.2299 v 0.1317 c 0,23.1063 5.9238,45.6711 17.1697,65.5727 -10.6288,20.1064 -16.2346,42.7298 -16.2346,65.7043 0,76.0503 60.259,137.906 134.3268,137.906 5.5673,0 11.2188,-0.3805 16.8646,-1.1121 4.5539,50.2221 46.1838,89.8788 96.0436,89.8788 53.1993,0 96.4769,-44.4272 96.4769,-99.0394 v -575.2862 c 0,-61.8704 -49.0345,-112.2242 -109.3107,-112.2242"
       style="fill:#000000;fill-opacity:1;fill-rule:nonzero;stroke:none;stroke-width:1.44422"
       id="path178" /><path
       d="m -8573.0688,2255.7916 -8.4081,10.0971 c 27.0316,23.7355 42.5207,58.2706 42.5207,94.7518 0,68.7043 -54.4408,124.6188 -121.3818,124.6188 -66.924,0 -121.3819,-55.9145 -121.3819,-124.6188 h -12.9449 c 0,76.0503 60.259,137.906 134.3268,137.906 74.0677,0 134.3381,-61.8557 134.3381,-137.906 0,-40.3591 -17.1596,-78.5818 -47.0689,-104.8489"
       style="fill:#000000;fill-opacity:1;fill-rule:nonzero;stroke:none;stroke-width:1.44422"
       id="path180" /><path
       d="m -8556.8285,2430.8813 -7.3605,10.9312 c 20.6389,14.6627 33.7791,38.2812 35.1432,63.1581 l 12.9292,-0.7609 c -1.5935,-28.9304 -16.809,-56.3536 -40.7119,-73.3284"
       style="fill:#000000;fill-opacity:1;fill-rule:nonzero;stroke:none;stroke-width:1.44422"
       id="path182" /><path
       d="m -8753.4925,2210.1644 c -14.3745,0 -28.5624,2.5316 -41.9135,7.624 l 4.5155,12.4531 c 28.8246,-11.019 62.2032,-8.5459 91.5837,6.7753 29.1966,15.2042 50.6665,41.2226 58.9463,71.3676 2.8051,10.2141 4.2247,20.8966 4.2247,31.74 h 12.9407 c 0,-12.0726 -1.5879,-23.955 -4.7108,-35.3399 -9.2433,-33.7155 -33.1334,-62.7337 -65.5385,-79.6208 -19.0853,-9.9507 -39.747,-14.9993 -60.0481,-14.9993"
       style="fill:#000000;fill-opacity:1;fill-rule:nonzero;stroke:none;stroke-width:1.44422"
       id="path184" /><path
       d="m -8574.0324,2156.1961 c -3.8199,0 -7.6669,0.2634 -11.5138,0.7463 -50.7393,6.4973 -86.863,54.1585 -80.5374,106.2391 l 12.8395,-1.6389 c -5.4406,-44.8078 25.6447,-85.8254 69.2957,-91.4154 26.3402,-3.3804 52.5094,6.8777 70.0026,27.4231 l 9.7493,-8.7362 c -17.7668,-20.8819 -43.2504,-32.618 -69.8359,-32.618"
       style="fill:#000000;fill-opacity:1;fill-rule:nonzero;stroke:none;stroke-width:1.44422"
       id="path186" /><path
       d="m -8467.427,1850.8977 -11.2744,6.5412 c 15.0273,27.306 18.7845,58.9875 10.6059,89.2057 -8.1786,30.2328 -27.3437,55.3585 -53.9405,70.7968 -33.1334,19.1991 -73.271,20.2674 -107.3793,2.795 l -5.784,11.8824 c 37.9653,19.4479 82.6468,18.2772 119.5331,-3.117 29.6086,-17.165 50.9331,-45.1589 60.0481,-78.8013 9.108,-33.6277 4.9103,-68.9091 -11.8089,-99.3028"
       style="fill:#000000;fill-opacity:1;fill-rule:nonzero;stroke:none;stroke-width:1.44422"
       id="path188" /><path
       d="m -8666.6352,1887.3936 c -4.4485,45.554 27.7613,87.7424 70.3262,92.1178 l 1.2971,-13.214 c -35.595,-3.6584 -62.4926,-39.1739 -58.7511,-77.5575 l -12.8722,-1.3463"
       style="fill:#000000;fill-opacity:1;fill-rule:nonzero;stroke:none;stroke-width:1.44422"
       id="path190" /><path
       d="m -8767.706,2011.9246 h -12.9449 c 0,72.0992 57.1133,130.7355 127.3227,130.7355 v -13.2872 c -63.0599,0 -114.3778,-52.6952 -114.3778,-117.4483"
       style="fill:#000000;fill-opacity:1;fill-rule:nonzero;stroke:none;stroke-width:1.44422"
       id="path192" /><path
       d="m -8559.6179,2039.7575 h -12.9449 c 0,41.3835 32.7942,75.0697 73.1099,75.0697 V 2101.54 c -33.1677,0 -60.165,-27.7158 -60.165,-61.7825"
       style="fill:#000000;fill-opacity:1;fill-rule:nonzero;stroke:none;stroke-width:1.44422"
       id="path194" /><path
       d="m -8675.3155,2384.9614 -12.5045,3.4389 c 4.1534,15.9358 2.0154,32.6034 -6.0306,46.871 -8.0332,14.2969 -21.0181,24.5111 -36.5514,28.7695 l 3.3567,12.8335 c 18.8643,-5.1656 34.6314,-17.5894 44.4078,-34.9594 9.7722,-17.3553 12.3663,-37.5788 7.322,-56.9535"
       style="fill:#000000;fill-opacity:1;fill-rule:nonzero;stroke:none;stroke-width:1.44422"
       id="path196" /><path
       d="m -8542.9201,1802.7243 -9.1706,9.3654 c 13.096,13.4921 20.2897,31.4034 20.2612,50.4562 -0.033,19.0382 -7.2821,36.935 -20.4165,50.3685 l 9.1364,9.4093 c 15.5846,-15.9505 24.1922,-37.169 24.225,-59.7485 0.029,-22.5941 -8.4964,-43.8712 -24.0355,-59.8509"
       style="fill:#000000;fill-opacity:1;fill-rule:nonzero;stroke:none;stroke-width:1.44422"
       id="path198" /><path
       d="m -8507.4377,2504.5755 c 0,8.6045 -6.776,15.5408 -15.1442,15.5408 -8.3568,0 -15.1442,-6.9363 -15.1442,-15.5408 0,-8.5752 6.7874,-15.5261 15.1442,-15.5261 8.3682,0 15.1442,6.9509 15.1442,15.5261"
       style="fill:#000000;fill-opacity:1;fill-rule:nonzero;stroke:none;stroke-width:1.44422"
       id="path200" /><path
       d="m -8668.4668,2384.7858 c 0,8.5752 -6.7874,15.5408 -15.1385,15.5408 -8.3681,0 -15.1328,-6.9656 -15.1328,-15.5408 0,-8.5752 6.7647,-15.5408 15.1328,-15.5408 8.3511,0 15.1385,6.9656 15.1385,15.5408"
       style="fill:#000000;fill-opacity:1;fill-rule:nonzero;stroke:none;stroke-width:1.44422"
       id="path202" /><path
       d="m -8566.1873,2258.3671 c 0,8.5899 -6.776,15.5554 -15.1442,15.5554 -8.3582,0 -15.1442,-6.9655 -15.1442,-15.5554 0,-8.5899 6.786,-15.5554 15.1442,-15.5554 8.3682,0 15.1442,6.9655 15.1442,15.5554"
       style="fill:#000000;fill-opacity:1;fill-rule:nonzero;stroke:none;stroke-width:1.44422"
       id="path204" /><path
       d="m -8495.3052,2194.0383 c 0,8.5752 -6.776,15.5408 -15.1328,15.5408 -8.3739,0 -15.1442,-6.9656 -15.1442,-15.5408 0,-8.5899 6.7703,-15.5408 15.1442,-15.5408 8.3568,0 15.1328,6.9509 15.1328,15.5408"
       style="fill:#000000;fill-opacity:1;fill-rule:nonzero;stroke:none;stroke-width:1.44422"
       id="path206" /><path
       d="m -8614.522,2340.1244 c 0,8.5898 -6.7803,15.5408 -15.1385,15.5408 -8.3681,0 -15.1442,-6.951 -15.1442,-15.5408 0,-8.5899 6.7761,-15.5408 15.1442,-15.5408 8.3582,0 15.1385,6.9509 15.1385,15.5408"
       style="fill:#000000;fill-opacity:1;fill-rule:nonzero;stroke:none;stroke-width:1.44422"
       id="path208" /><path
       d="m -8638.184,2136.0165 c 0,8.5753 -6.7818,15.5408 -15.1442,15.5408 -8.3568,0 -15.1386,-6.9655 -15.1386,-15.5408 0,-8.5898 6.7818,-15.57 15.1386,-15.57 8.3624,0 15.1442,6.9802 15.1442,15.57"
       style="fill:#000000;fill-opacity:1;fill-rule:nonzero;stroke:none;stroke-width:1.44422"
       id="path210" /><path
       d="m -8613.7637,2026.9239 c 0,8.5898 -6.7874,15.5408 -15.1442,15.5408 -8.3625,0 -15.1442,-6.951 -15.1442,-15.5408 0,-8.5899 6.7817,-15.5261 15.1442,-15.5261 8.3568,0 15.1442,6.9362 15.1442,15.5261"
       style="fill:#000000;fill-opacity:1;fill-rule:nonzero;stroke:none;stroke-width:1.44422"
       id="path212" /><path
       d="m -8581.8389,1972.9117 c 0,8.5752 -6.7818,15.5408 -15.1443,15.5408 -8.3681,0 -15.1442,-6.9656 -15.1442,-15.5408 0,-8.5899 6.7761,-15.5554 15.1442,-15.5554 8.3625,0 15.1443,6.9655 15.1443,15.5554"
       style="fill:#000000;fill-opacity:1;fill-rule:nonzero;stroke:none;stroke-width:1.44422"
       id="path214" /><path
       d="m -8529.7243,1914.9485 c 0,8.5898 -6.7817,15.5407 -15.1385,15.5407 -8.3696,0 -15.1399,-6.9509 -15.1399,-15.5407 0,-8.5899 6.7703,-15.5554 15.1399,-15.5554 8.3568,0 15.1385,6.9655 15.1385,15.5554"
       style="fill:#000000;fill-opacity:1;fill-rule:nonzero;stroke:none;stroke-width:1.44422"
       id="path216" /><path
       d="m -8487.1266,2108.1836 c 0,8.5753 -6.7761,15.5408 -15.1442,15.5408 -8.3682,0 -15.1385,-6.9655 -15.1385,-15.5408 0,-8.5898 6.7703,-15.5554 15.1385,-15.5554 8.3681,0 15.1442,6.9656 15.1442,15.5554"
       style="fill:#000000;fill-opacity:1;fill-rule:nonzero;stroke:none;stroke-width:1.44422"
       id="path218" /><path
       d="m -8343.0605,2574.026 c -46.0626,0 -83.5448,-38.4714 -83.5448,-85.7522 v -575.2862 c 0,-54.539 43.2391,-98.937 96.3786,-98.937 44.6473,0 83.1528,31.0961 93.649,75.5819 l 1.136,4.7998 4.7991,0.278 c 60.47,3.4828 107.8583,54.9781 107.8583,117.2143 0,6.3363 -0.5246,12.775 -1.5422,19.1845 l -0.6913,4.2583 3.5305,2.3706 c 32.4151,21.8186 51.7797,58.5632 51.7797,98.2639 0,32.7644 -12.8451,63.1581 -36.1508,85.6352 l -2.111,2.0194 0.09,4.0974 0.05,1.6096 c 0,21.9503 -5.9579,43.3591 -17.2209,61.9436 l -2.0554,3.395 1.9599,3.4535 c 10.7128,18.9357 16.3757,40.5493 16.3757,62.4849 0,68.7043 -54.4536,124.6188 -121.3833,124.6188 -7.1766,0 -14.4971,-0.6731 -21.7806,-2.034 l -7.5001,-1.4049 -0.1212,7.829 c -0.724,46.5344 -38.1891,84.3766 -83.5049,84.3766 z m 12.8338,-773.2626 c -60.2719,0 -109.3121,50.3538 -109.3121,112.2242 v 575.2569 c 0,54.6415 43.2776,99.0687 96.4783,99.0687 49.8641,0 91.4826,-39.6567 96.0422,-89.8788 5.6515,0.7316 11.2972,1.1121 16.8646,1.1121 74.0678,0 134.3339,-61.8557 134.3339,-137.906 0,-22.9745 -5.6187,-45.5979 -16.2531,-65.7043 11.2587,-19.9016 17.1825,-42.4664 17.1825,-65.5727 v -0.1317 c 24.2578,-24.4818 38.1221,-58.2998 38.1221,-93.2299 0,-42.7737 -20.1771,-82.4451 -54.18,-106.9708 0.7241,-5.7217 1.1089,-11.458 1.1089,-17.1065 0,-67.6506 -50.3045,-123.9164 -115.3755,-130.1356 -13.4295,-47.9393 -55.9602,-81.0256 -105.0118,-81.0256"
       style="fill:#1a1a1a;fill-opacity:1;fill-rule:nonzero;stroke:none;stroke-width:1.44422"
       id="path220" /><path
       d="m -8317.4158,2255.7916 c -29.9107,26.2671 -47.0704,64.4752 -47.0704,104.8489 0,76.0503 60.2605,137.906 134.3325,137.906 74.0678,0 134.3339,-61.8557 134.3339,-137.906 h -12.9506 c 0,68.7043 -54.4536,124.6188 -121.3833,124.6188 -66.9339,0 -121.3932,-55.9145 -121.3932,-124.6188 0,-36.4812 15.5062,-71.0163 42.5378,-94.7518 l -8.4067,-10.0971"
       style="fill:#000000;fill-opacity:1;fill-rule:nonzero;stroke:none;stroke-width:1.44422"
       id="path222" /><path
       d="m -8333.6575,2430.8813 c -23.9072,16.9748 -39.1298,44.398 -40.7048,73.3284 l 12.9107,0.7609 c 1.364,-24.8769 14.5099,-48.4954 35.1488,-63.1581 l -7.3547,-10.9312"
       style="fill:#000000;fill-opacity:1;fill-rule:nonzero;stroke:none;stroke-width:1.44422"
       id="path224" /><path
       d="m -8136.9935,2210.1644 c -20.3054,0 -40.9614,5.0486 -60.0367,14.9993 -32.4151,16.8871 -56.3066,45.9053 -65.5499,79.6208 -3.123,11.3849 -4.7151,23.2673 -4.7151,35.3399 h 12.945 c 0,-10.8434 1.4196,-21.5112 4.2204,-31.74 8.2741,-30.145 29.7539,-56.1634 58.9506,-71.3676 29.3762,-15.3212 62.7548,-17.7943 91.578,-6.7753 l 4.5212,-12.4531 c -13.3512,-5.0924 -27.549,-7.624 -41.9135,-7.624"
       style="fill:#000000;fill-opacity:1;fill-rule:nonzero;stroke:none;stroke-width:1.44422"
       id="path226" /><path
       d="m -8316.4522,2156.1961 c -26.5869,0 -52.0705,11.7361 -69.8416,32.618 l 9.7478,8.7362 c 17.5004,-20.5454 43.6739,-30.8035 70.0098,-27.4231 21.1506,2.7072 39.9979,13.7116 53.0768,30.9791 13.0946,17.2529 18.8515,38.7202 16.2075,60.4363 l 12.8452,1.6389 c 3.0616,-25.2281 -3.6246,-50.1636 -18.8302,-70.2407 -15.2169,-20.0625 -37.1258,-32.8522 -61.6958,-35.9984 -3.8541,-0.4829 -7.7011,-0.7463 -11.5195,-0.7463"
       style="fill:#000000;fill-opacity:1;fill-rule:nonzero;stroke:none;stroke-width:1.44422"
       id="path228" /><path
       d="m -8423.0519,1850.8977 c -16.7378,30.3937 -20.924,65.6751 -11.8161,99.3028 9.1151,33.6424 30.4282,61.6363 60.0424,78.8013 36.8864,21.3942 81.5679,22.5649 119.5346,3.117 l -5.7797,-11.8824 c -34.1084,17.4724 -74.2516,16.4041 -107.385,-2.795 -26.6026,-15.4383 -45.7548,-40.564 -53.9406,-70.7968 -8.1843,-30.2182 -4.4142,-61.8997 10.6074,-89.2057 l -11.263,-6.5412"
       style="fill:#000000;fill-opacity:1;fill-rule:nonzero;stroke:none;stroke-width:1.44422"
       id="path230" /><path
       d="m -8223.8508,1887.3936 -12.8723,1.3463 c 3.7358,38.3836 -23.1731,73.8991 -58.751,77.5575 l 1.2971,13.214 c 42.5663,-4.3754 74.7647,-46.5638 70.3262,-92.1178"
       style="fill:#000000;fill-opacity:1;fill-rule:nonzero;stroke:none;stroke-width:1.44422"
       id="path232" /><path
       d="m -8109.8394,2011.9246 h -12.9449 c 0,64.7531 -51.3079,117.4483 -114.3835,117.4483 v 13.2872 c 70.2136,0 127.3284,-58.6363 127.3284,-130.7355"
       style="fill:#000000;fill-opacity:1;fill-rule:nonzero;stroke:none;stroke-width:1.44422"
       id="path234" /><path
       d="m -8317.9289,2039.7575 h -12.9392 c 0,34.0667 -26.9974,61.7825 -60.175,61.7825 v 13.2872 c 40.3157,0 73.1142,-33.6862 73.1142,-75.0697"
       style="fill:#000000;fill-opacity:1;fill-rule:nonzero;stroke:none;stroke-width:1.44422"
       id="path236" /><path
       d="m -8215.1705,2384.9614 c -5.0443,19.3747 -2.4502,39.5982 7.322,56.9535 9.7706,17.37 25.5335,29.7938 44.4078,34.9594 l 3.341,-12.8335 c -15.5291,-4.2584 -28.4954,-14.4726 -36.5357,-28.7695 -8.0503,-14.2676 -10.1883,-30.9352 -6.0349,-46.871 l -12.5002,-3.4389"
       style="fill:#000000;fill-opacity:1;fill-rule:nonzero;stroke:none;stroke-width:1.44422"
       id="path238" /><path
       d="m -8347.5702,1802.7243 c -15.5348,15.9797 -24.064,37.2568 -24.0427,59.8509 0.046,22.5795 8.6533,43.798 24.2365,59.7485 l 9.1322,-9.4093 c -13.1402,-13.4335 -20.3838,-31.3303 -20.4237,-50.3685 -0.021,-19.0528 7.178,-36.9641 20.2612,-50.4562 l -9.1635,-9.3654"
       style="fill:#000000;fill-opacity:1;fill-rule:nonzero;stroke:none;stroke-width:1.44422"
       id="path240" /><path
       d="m -8383.0598,2504.5755 c 0,8.6045 6.7704,15.5408 15.1443,15.5408 8.3567,0 15.1442,-6.9363 15.1442,-15.5408 0,-8.5752 -6.7875,-15.5261 -15.1442,-15.5261 -8.3739,0 -15.1443,6.9509 -15.1443,15.5261"
       style="fill:#000000;fill-opacity:1;fill-rule:nonzero;stroke:none;stroke-width:1.44422"
       id="path242" /><path
       d="m -8222.0193,2384.7858 c 0,8.5752 6.7704,15.5408 15.14,15.5408 8.3567,0 15.1385,-6.9656 15.1385,-15.5408 0,-8.5752 -6.7818,-15.5408 -15.1385,-15.5408 -8.3696,0 -15.14,6.9656 -15.14,15.5408"
       style="fill:#000000;fill-opacity:1;fill-rule:nonzero;stroke:none;stroke-width:1.44422"
       id="path244" /><path
       d="m -8324.303,2258.3671 c 0,8.5899 6.7761,15.5554 15.1442,15.5554 8.3625,0 15.1385,-6.9655 15.1385,-15.5554 0,-8.5899 -6.776,-15.5554 -15.1385,-15.5554 -8.3681,0 -15.1442,6.9655 -15.1442,15.5554"
       style="fill:#000000;fill-opacity:1;fill-rule:nonzero;stroke:none;stroke-width:1.44422"
       id="path246" /><path
       d="m -8395.1922,2194.0383 c 0,8.5752 6.7874,15.5408 15.1385,15.5408 8.3739,0 15.1442,-6.9656 15.1442,-15.5408 0,-8.5899 -6.7703,-15.5408 -15.1442,-15.5408 -8.3511,0 -15.1385,6.9509 -15.1385,15.5408"
       style="fill:#000000;fill-opacity:1;fill-rule:nonzero;stroke:none;stroke-width:1.44422"
       id="path248" /><path
       d="m -8275.9641,2340.1244 c 0,8.5898 6.7818,15.5408 15.1329,15.5408 8.3624,0 15.1442,-6.951 15.1442,-15.5408 0,-8.5899 -6.7818,-15.5408 -15.1442,-15.5408 -8.3511,0 -15.1329,6.9509 -15.1329,15.5408"
       style="fill:#000000;fill-opacity:1;fill-rule:nonzero;stroke:none;stroke-width:1.44422"
       id="path250" /><path
       d="m -8252.3077,2136.0165 c 0,8.5753 6.776,15.5408 15.1399,15.5408 8.3739,0 15.1485,-6.9655 15.1485,-15.5408 0,-8.5898 -6.7746,-15.57 -15.1485,-15.57 -8.3639,0 -15.1399,6.9802 -15.1399,15.57"
       style="fill:#000000;fill-opacity:1;fill-rule:nonzero;stroke:none;stroke-width:1.44422"
       id="path252" /><path
       d="m -8276.7209,2026.9239 c 0,8.5898 6.7746,15.5408 15.1385,15.5408 8.3625,0 15.1442,-6.951 15.1442,-15.5408 0,-8.5899 -6.7817,-15.5261 -15.1442,-15.5261 -8.3639,0 -15.1385,6.9362 -15.1385,15.5261"
       style="fill:#000000;fill-opacity:1;fill-rule:nonzero;stroke:none;stroke-width:1.44422"
       id="path254" /><path
       d="m -8308.6528,1972.9117 c 0,8.5752 6.7875,15.5408 15.1442,15.5408 8.3739,0 15.1443,-6.9656 15.1443,-15.5408 0,-8.5899 -6.7704,-15.5554 -15.1443,-15.5554 -8.3567,0 -15.1442,6.9655 -15.1442,15.5554"
       style="fill:#000000;fill-opacity:1;fill-rule:nonzero;stroke:none;stroke-width:1.44422"
       id="path256" /><path
       d="m -8360.766,1914.9485 c 0,8.5898 6.786,15.5407 15.1385,15.5407 8.3625,0 15.1385,-6.9509 15.1385,-15.5407 0,-8.5899 -6.776,-15.5554 -15.1385,-15.5554 -8.3525,0 -15.1385,6.9655 -15.1385,15.5554"
       style="fill:#000000;fill-opacity:1;fill-rule:nonzero;stroke:none;stroke-width:1.44422"
       id="path258" /><path
       d="m -8403.3651,2108.1836 c 0,8.5753 6.7874,15.5408 15.1442,15.5408 8.3625,0 15.1442,-6.9655 15.1442,-15.5408 0,-8.5898 -6.7817,-15.5554 -15.1442,-15.5554 -8.3568,0 -15.1442,6.9656 -15.1442,15.5554"
       style="fill:#000000;fill-opacity:1;fill-rule:nonzero;stroke:none;stroke-width:1.44422"
       id="path260" /></g></svg>
